<svg xmlns="http://www.w3.org/2000/svg" viewBox="0 0 357.56 560.49"><g id="图层_2" data-name="图层 2"><g id="图层_1-2" data-name="图层 1"><path d="M75.38,457.88,80,461l16.43-1.46.24,2.83-17,1.49-.91-.24-4.23-2.83-.88,3.16-2.77-.79,4.14-14.6L70.3,448l.3-2.86,6.48.7,1.22,1.83Zm.67-13.45-4.9-3.68,1.71-2.31,4.89,3.68Zm20.11,4.26-10-.31-3,6.76,8.49-1.4-.79-2.37,2.7-.92,2.38,7-2.74.92-.64-1.86L81,458.37l-1.52-2,3.62-8.1-4-.12.09-2.86,17.13.55Zm-3.41-6.54-11.47-.22.06-2.86,11.48.25Z" style="fill:#77a825"/><path d="M108.15,449.45,104.56,460l4.11-.43-.7-3,2.83-.67,1.7,7.42-2.77.64-.39-1.58-6.73.67-1.49-1.86,3.93-11.53-3.78.15-.12-2.89,11.47-.51.15,2.89Zm3.32-6.33-8.89-.42.09-2.87,9,.43Zm8.64,20.75-1.1-2.61,4.75-2-.88-14.61-3,.4-3.74,18.83-2.83-.54,3.56-17.9-2.52.34-.4-2.83,3.53-.46.82-4.07,2.8.57-.61,3.11,3.56-.49,1.62,1.34,1,17.19-.88,1.4Z" style="fill:#77a825"/><path d="M134.32,457.76l-1.46-7,1.31-1.74,20.11-1.49,1.52,1.74L154,457.54l-2.77-.6,1.37-6.4L136,451.76l1.13,5.42Zm10-1.53,9.43,5.88-1.52,2.43-10-6.27-6.57,6.36-2-2,11.13-10.77,2,2.07Zm-6.61-9.34-1.36-1-1.77-5.32,1.25-1.86,15.45-1,1.53,1.68-1.07,6.33-1.4,1.15Zm.19-5.44.82,2.58,10.4,0,.55-3.34Z" style="fill:#77a825"/><path d="M161.61,451.28l1.64-.52-.12-6.12,1.34-1.49,1.79-.15,3-4.11,2.34,1.68-1.52,2.06,3.56-.33,1.55,1.4.43,16.09-1.19,1.43-9.19,1.62-1.7-1.43-.19-7.64-.88.27Zm4.53-1.4,4.84-1.5.82,2.77-5.6,1.74.16,6.81,6.36-1.09-.37-13.27-6.3.55Zm9.59-3.72,3.62-7.27,2.58,1.31-1.21,2.4h5.72L187.9,444l-.43,18-1.64,1.39-8.25-1,.34-2.89,6.69.82.37-14.85h-5.69l-1,2Zm1.09,4.9,2.1-2,4.54,4.72-2.1,2Z" style="fill:#77a825"/><path d="M207.4,462.62l-1.61-1.42V441.11l1.52-1.4,17.47,1,1,2.34-6.94,8.18,6,7.25-.95,2.34Zm1.25-20v16.95l12.29-1.37-5.11-6.14,0-1.83,5.87-6.87Z" style="fill:#77a825"/><path d="M247.38,461.22,244.61,446l-5.5,9.74-2.56-.12-4.14-9-2.61,14.63-2.83-.51,3.43-19.14,2.68-.34L238,451.85l6.09-10.74,2.64.46,3.47,19.14Z" style="fill:#77a825"/><path d="M254.29,461.68l-2.86-.15,1-20.9,2.89.15Z" style="fill:#77a825"/><path d="M280.46,446.38l.21,3.68,1.49-.88,1.43,2.46-2.74,1.61.3,5.05-.24.95-3.5,4.71-2.34-1.73,3.19-4.26-.18-3.07-2.49,1.46-1.46-2.47,3.74-2.19-.31-5.32h-2.89v-2.86h2.71l-.24-4.35L280,439l.24,4.54h3v2.86Zm3,9.34,1.85-.25-.21-3.92,1.37-1.52,10.68-.52,1.49,1.52-.43,10.71-1.4,1.37-9.61.18L285.69,462l-.21-3.58-1.65.21Zm3-7.73-1.34-1.55.7-8.07,2.83.25-.52,6.6,1.1.09,6.63-6.6,2,2L293,445.59l5.33.36-.22,2.86Zm1.76,7.12,6-.79.36,2.86-6.17.82.12,2.4,6.93-.15.31-7.76-7.64.34Z" style="fill:#77a825"/><path d="M306.29,443.27l2.74-.18-.13-5.32,2.86-.1.13,5.24h.33l.09-.06,1.28-4.66,2.77.76-1,3.75,1.34-.1.19,2.83-2.56.19,3,4.23L315,451.49l-3-4.2.09,4-2.86.09-.09-3.78-3,4.33-2.37-1.62,3-4.26-2.19.16-.18-2.87,1.67-.09-2-3,2.38-1.61,2.1,3.07Zm8.3,15.31,2.8.36-.39,2.83-5.05-.64-3.65,3.47-2-2,2-1.91-2.65-.34-1.16-1.88.92-2.5-1.65-.09.12-2.86,2.56.12.64-1.73,2.71,1-.34.88,6.94.31.91,2.46Zm-6.17-2.53-.61,1.65,3.13.42,1.95-1.89ZM329,444.76l-4.11,9.5,5,7.12L327.56,463l-4-5.66-2.65,6.18-2.61-1.1,3.34-7.82L317.73,449l2.37-1.64,2.89,4.17,2.74-6.36-6.66.82-1.46-2.1,3-5.81,2.55,1.34-1.79,3.38,8-1,.34,2.83Z" style="fill:#77a825"/><path d="M27,423.29h0a27,27,0,0,1,27,27v27a0,0,0,0,1,0,0H27a27,27,0,0,1-27-27v0A27,27,0,0,1,27,423.29Z" style="fill:#77a825"/><line x1="53.03" y1="475.29" x2="339.98" y2="475.29" style="fill:none;stroke:#77a825;stroke-miterlimit:10;stroke-width:4px"/><path d="M41.82,513.26l2.72,1.82,9.72-.86.15,1.67-10,.88-.54-.14L41.34,515l-.52,1.88-1.64-.47,2.45-8.64-2.81-.29.18-1.69,3.83.41.72,1.08Zm.4-7.95-2.9-2.18,1-1.37,2.9,2.18Zm11.9,2.52-5.92-.18-1.8,4,5-.83-.47-1.4,1.6-.54L54,513l-1.62.54-.38-1.1-6.84,1.1-.9-1.17,2.14-4.79L44,507.52l.06-1.69,10.13.32Zm-2-3.87-6.78-.13,0-1.69,6.79.14Z" style="fill:#2193af"/><path d="M61.21,508.28l-2.12,6.21,2.43-.26-.42-1.78,1.68-.39,1,4.39-1.63.38-.24-.94-4,.4-.88-1.1,2.32-6.82-2.23.09-.07-1.71,6.79-.31.09,1.71Zm2-3.75-5.25-.25,0-1.69,5.29.25Zm5.11,12.28-.64-1.55,2.8-1.17-.52-8.64-1.78.23-2.21,11.15-1.68-.33,2.11-10.58-1.5.2-.23-1.68,2.09-.27.48-2.41,1.66.34-.36,1.84,2.11-.29,1,.79.61,10.17-.52.83Z" style="fill:#2193af"/><path d="M76.69,513.19l-.86-4.14.77-1,11.9-.88.9,1-1.08,4.89-1.64-.36.81-3.78-9.81.72.67,3.21Zm5.89-.9,5.58,3.47-.9,1.44-5.94-3.7-3.89,3.76-1.17-1.21,6.59-6.37L84,510.9Zm-3.91-5.53-.81-.59-1-3.15.73-1.1,9.15-.61.9,1L87,506l-.83.69Zm.11-3.22.48,1.53,6.16,0,.32-2Z" style="fill:#2193af"/><path d="M94.8,516.09l-.81-.83-.29-11.5.79-.85,12.13-.88.92.85-.34,12.87-.9.81Zm10.71-1.26.3-11.05-10.4.75.25,9.9Zm-9.4-7.56,3.49-.36,1.44-2.45,1.46.85-.81,1.38,3.35-.34.18,1.69-4.59.47-3,5.17-1.49-.85,2.39-4.1-2.23.23Zm4.57,3.22,1.21-1.19,2.66,2.72-1.22,1.19Z" style="fill:#2193af"/><path d="M119,505.92l5.69-.31.9,1-1.26,9.61-.92.68-3.76-.38.16-1.65,3,.3,1-7.75-5.7.3-4.84,9.13-1.5-.78,4.39-8.24-4.28.22-.09-1.71L117,506l2.29-4.31,1.47.8Zm-4.55-.09L112.94,503l1.53-.78,1.44,2.88Zm6.25,7.74-2.42-3.4,1.39-1L122,512.6Z" style="fill:#2193af"/><path d="M138.88,509.93l4.84,5.28-1.26,1.13-5.67-6.17-2.81.32-.37,4.41,4-1.24.51,1.62-5.19,1.56-1.09-.84.46-5.33-2.59.29-.2-1.69,2.94-.33.63-7.22,1.67.17-.59,6.85,9.14-1,.18,1.69Zm-2.09-2.23-1-1.35,5.15-3.87,1,1.35Z" style="fill:#2193af"/><path d="M147.3,515.73l1-2.4-1.23,0,0-1.68,1.48,0v-4.21l-1.12-.09.15-1.68,1,.08v-1h-.94v-1.71h.94v-1.15h1.67v1.15h2.59l.08-1.21,1.69.11-.07,1.08h.81v1.69l-.92,0-.42,7,1,0v1.71l-4.85-.09-1.29,3Zm3-9.85,2.41.16.08-1.29-2.49,0Zm0,2.81,2.25-.13.06-.82-2.31-.17Zm0,3,2.05,0,.09-1.44-2.14.13ZM151.7,515l1.09-1.29,2.13,1.78-1.08,1.28Zm6-3.94,0,.49v.21l-.91,4.54-1.68-.29.9-4.48,0-.5-.92,0,0-1.71.81,0-.28-6,.79-.87,4.71-.39.92.86-.18,11.68-.36.69-1.65,1.11-1-1.38,1.32-.87.09-6.94-2.77.3.09,1.89,2.17,0v1.71Zm-.33-7,.08,1.73,2.89-.3,0-1.68Z" style="fill:#2193af"/><path d="M176.81,515.3l.75-.42.52-3.54-10.89.64.85,4.22-1.67.32-1.05-5.17.79-1,12.91-.78.88,1-.72,5-.45.63-1.11.59Zm-11.34-12,6.22-.14-.27-.67,1.61-.64.5,1.26,6.28-.15,0,1.71L165.5,505Zm2.52,6.07-1.14-2.54.72-1.19,8.64-.52.9.74.25,2.11-.73.93-7.74,1Zm1,6.64-.54-2.46.77-1,6.48-.47.94.94-.33,2.93-.84.76-5.66,0Zm.3-7.92,6.28-.79-.05-.41-6.59.37Zm1.23,6.9,4.17,0,.11-1.13-4.46.32Z" style="fill:#2193af"/><path d="M183.54,516.68l-.36-1.64,3.42-.73.11-2.87-2.77.24-.92-.85v-3.72l.7-.87,2.77-.45.2-2.1-3.67.43-.18-1.69,4.7-.54,1,.91-.38,3.8-.7.78-2.7.45v2.08l2.81-.25.92.88-.19,4.5-.66.8Zm10.53-3.94v1.8l1.55-.16-.36-.87,1.58-.64,1.55,3.6-1.58.66-.49-1.13-7,.68-.18-1.65,3.24-.33v-1.91l-2.3.09-.85-.64-.83-3.33.69-1.05,3.29-.52v-1.15l-2.34.09-.88-.72-.4-2.95.83-1,7.74-.18.85,1-.49,2.85-.81.7-2.79.11v.95l3.17-.5,1,.88-.18,4.35-.83.81Zm-3.38-1.58,1.67-.06v-2l-2.12.32Zm-.13-7.83.16,1.24,5.4-.24.2-1.15Zm3.51,5.47v2.25l2.32-.09.09-2.56Z" style="fill:#2193af"/><path d="M201.14,515.67l1.26-4.33.24-7.73.84-.82,5.21.1-.33-1,1.62-.53.52,1.57,5.58.13v1.71l-11.78-.26-.19,7,0,.2-1.3,4.46Zm3.24,0,2.7-1-.93-.27.47-1.64,3.11.9,2.32-.9.18-.88-6.14.54-.16-1.71,7.27-.63.92,1-.47,2.47-.54.63-.65.25,2.47.7-.47,1.66-4.66-1.33L205,517.2Zm.83-9.49,1.17-.1.06-1.16,1.71.09-.06.9,3-.27L211,505l1.7-.2.07.61,1.44-.14.14,1.69-1.39.14.19,1.41-.73.93-5.23.8-1-.89.07-1.62-.94.09Zm6.09,1.16-3.28.3,0,.83,3.41-.5Z" style="fill:#2193af"/><path d="M218.84,509.36l1-.31-.07-3.62.79-.88,1.06-.09,1.77-2.43,1.38,1-.9,1.22,2.11-.19.92.82.25,9.53-.7.84-5.44,1-1-.85-.11-4.52-.52.16Zm2.68-.83,2.86-.88.49,1.63-3.31,1,.09,4,3.76-.65-.22-7.84-3.73.32Zm5.67-2.2,2.14-4.3,1.53.77-.72,1.43h3.39l.86.84-.25,10.62-1,.83-4.88-.58.2-1.71,4,.49.21-8.78H229.3l-.58,1.17Zm.65,2.9,1.24-1.17,2.68,2.79-1.24,1.21Z" style="fill:#2193af"/><path d="M239.88,504.89l.27,12-1.69.06-.25-10.33-.8.81-1.22-1.19,3.89-3.93,1.22,1.21Zm8,1.17-.27,5.37,1.1-.18.27,1.67-1.46.25-.2,3.76-1.71-.09.18-3.38-1.73.29-.3-1.68,2.12-.36.29-5.45-.9.11-3,9.72-1.62-.52,2.77-9-2.46.29-.2-1.69,5.51-.67.16-2.86,1.69.05-.14,2.61,3.6-.45.2,1.7Zm3.65,9L248,507.9l1.51-.78,3.57,7.2Z" style="fill:#2193af"/><path d="M255.63,503.24l6.52-.33-.33-.61,1.48-.77.68,1.29,5.53-.27.09,1.69-8.88.45-1.17,1.46,7-.5-.2-.33,1.46-.86,1.67,2.83-1.46.86-.59-1,0,.13-9.72.68L257,506.6l1.44-1.78-2.74.13Zm9.88,12.24,1.3-.45-.13-5.22-8,.55,0,.45L266,511l0,1.71-7.14-.18.05.9,6.66-.35.09,1.7-6.66.36.11,1.71-1.71.1-.11-1.72-.85,0-.09-1.71.85,0-.22-3.87.78-.89,9.75-.7.9.83.15,6.73-.56.81-1.89.65Z" style="fill:#2193af"/><path d="M275.09,516.83l-1.26-.9,1.8-8.28-2.23-.29.23-1.69,3.11.43.72,1-1.56,7.22,1.51-.9.86,1.44Zm1.64-11.33-2.88-2.37,1.07-1.32,2.89,2.4ZM279.62,517l-1.58-.56,1.19-3.36-.29-11.25,1.71-.06.27,11.42-.05.3Zm4.54-1.13h-1.71l0-13.3h1.69Zm2,.86L286,501.54h1.69l.16,15.22Z" style="fill:#2193af"/><path d="M295,512.45l-3.69-.48-.5-1.44,2.28-2.38-1.87-.45-.52-1.28,2.9-4.57,1.44.9-2.27,3.58,2.16.51.43,1.4-2.16,2.25,2,.27Zm-2.88,4.23-.88-1.46,4.43-2.68.88,1.44Zm4.9,0-1.37-1,2.68-3.71,1.37,1Zm5.24-5.65-.29,3.53-.18.45-1.23,1.65-1.35-1,1.08-1.47.24-3.08-3.12.14-.84-1.19,1-2.39-.92-.09.16-1.67,1.44.14.63-1.53-2.56-.05,0-1.7,3.24.06L300,502l1.58.64-.1.26,4,.05,0,1.71-4.68-.07-.7,1.67,1.75.16.77.92-.16,2,2.54-.13.09,1.69Zm-2.92-3.17-.67,1.62,2-.09.11-1.39Zm6.3,8.46-3.33-1.76.81-1.5,3.33,1.77Z" style="fill:#2193af"/><path d="M316.61,517.62l-1.26-.67,1.32-2.34-1.21-.5.54-1.35,2,.79.36,1Z" style="fill:#2193af"/><path d="M341.76,512.07h-3.4l.34,3-.63.9-3.38.87-.44-1.62,2.67-.69-.27-2.46-9.16-.06v-1.71l9,.06-.11-1-7-.12-.85-.9.33-5.58.83-.78,9.79-.23.83,1-.67,3-.81.65-7.43.23,0-1.69,6.77-.2.29-1.29-7.92.16-.22,3.92,9.56.15.21-1.23,1.68.31-.36,2-.87.67-2.41,0,.11,1h3.6Zm-10,4.47-2.79-3.3,1.28-1.11,2.79,3.33Z" style="fill:#2193af"/><path d="M9.69,529.23l-1.62.21,0,2.36,2-.2.14,1.7-2.12.19,0,2,2.55-.63.42,1.63-7.17,1.77-.39-1.66,2.9-.7,0-2.21-2,.18-.17-1.7L6.4,532l0-2.27-2.1.29-.88-1.23,1.35-2.82L3.09,526l-.16-1.67,7.9-.67.12,1.69-4.28.36-1.08,2.33L9,527.61l-.35-.76,1.57-.72,1.44,3.19-1.57.68Zm1.21,8.24,2.48-4.55-1.74-2,1.29-1.09,1.32,1.53,1.8-3.3-3.57-.75-.59-1.16,1-2.62,1.58.61-.64,1.71,3.69.81.55,1.22-2.64,4.84L18.3,536,17,537.15l-2.47-2.86-2.17,4Z" style="fill:#2193af"/><path d="M20.93,537.67l-1-.85V524.94l.9-.82,10.33.55.58,1.39-4.1,4.84,3.54,4.29-.56,1.38Zm.73-11.83v10l7.28-.81-3-3.64,0-1.08,3.47-4.06Z" style="fill:#2193af"/><path d="M44.58,536.84l-1.64-9-3.26,5.76-1.51-.07-2.45-5.33-1.55,8.66-1.67-.3,2-11.33,1.59-.19L39,531.3l3.6-6.36,1.57.27,2,11.33Z" style="fill:#2193af"/><path d="M48.66,537.11,47,537l.61-12.36,1.71.09Z" style="fill:#2193af"/><path d="M55.14,528.06l.13,2.18.88-.53.85,1.46-1.62,1,.18,3-.15.56-2.07,2.79-1.38-1,1.89-2.52-.11-1.82-1.48.86-.86-1.46,2.21-1.29-.18-3.15H51.72v-1.69h1.61l-.15-2.58,1.71-.11.15,2.69h1.74v1.69Zm1.77,5.52,1.1-.14-.13-2.32.81-.9,6.32-.31.88.9-.25,6.34-.83.81-5.69.11-.88-.8-.13-2.12-1,.13ZM58.67,529l-.79-.92.41-4.77,1.68.15-.31,3.9.65.06,3.92-3.91,1.19,1.21-2.86,2.86,3.15.22-.13,1.69Zm1,4.21,3.52-.46.22,1.69-3.65.48.07,1.43,4.1-.09.18-4.59-4.52.19Z" style="fill:#2193af"/><path d="M70.43,526.22l1.62-.11L72,523l1.7-.05.07,3.1h.2l0,0,.76-2.75,1.63.45-.61,2.21.79,0,.11,1.67-1.51.11,1.76,2.5-1.36,1-1.77-2.48.06,2.39-1.7.06-.05-2.24-1.78,2.56-1.41-1,1.77-2.52-1.3.09-.11-1.7,1,0-1.2-1.76,1.4-1,1.24,1.82Zm4.91,9.06,1.66.21-.24,1.68-3-.38-2.16,2.05-1.17-1.21,1.17-1.13-1.56-.2-.69-1.11.54-1.48-1-.05L69,532l1.52.08.37-1,1.61.59-.2.53,4.1.18.54,1.45Zm-3.65-1.5-.36,1,1.85.26,1.15-1.12Zm12.18-6.68-2.43,5.62,3,4.21-1.38,1-2.36-3.34-1.57,3.65-1.54-.65,2-4.62-2.33-3.33,1.41-1,1.71,2.47,1.62-3.76-3.94.48-.87-1.24,1.8-3.44,1.51.8-1.06,2,4.74-.55.19,1.67Z" style="fill:#2193af"/><path d="M87.72,524.06l14-.34,0,1.69-4.63.11-2.84,2.93,1.64.11-.09,1.37,6.37,2.38-.58,1.56-5.9-2.16-.4,6.32-1.69-.11.61-9.41-5.85,6.06-1.22-1.17,7.52-7.81-6.89.16Z" style="fill:#2193af"/><path d="M105.51,528l1.82-4.59,1.58.63-.4,1,4-.18.07,1.71-2.07.09.52.67-1.35,1.06-1.31-1.66-.58,0-.74,1.89Zm.18,4.9,4.73-4.79,1.21,1.19-2.32,2.37.59,6.12-1.69.18-.47-4.7-.83.85Zm4.75-1.91,6-.87,0-1.24h1.71l0,1,1.42-.21.25,1.71-1.69.25,0,5.83-.92.85-3.19-.24.13-1.71,2.27.18,0-4.66-5.69.83Zm1.62-3.49,2.52-3.89,1.42.92-.14.23,3.83-.25.11,1.71-1.44.09,1.44,1.15-1.06,1.35-2.92-2.34-1.1.07-1.22,1.89Zm0,6.3,1.44-.92,1.53,2.39-1.42.92Z" style="fill:#2193af"/><path d="M123.2,529.52l7.76-6,1,1.35-.84.65,7,2.82-.63,1.57-7.91-3.17-5.32,4.11Zm4.23,8.38-.81-.68-.72-3.65.78-1,7.48-.65.92,1-.74,4.61-.88.72Zm-.7-7.93,7.43-1.14.26,1.69L127,531.64Zm6.07,6.51.41-2.79-5.44.47.4,2.07Z" style="fill:#2193af"/><path d="M141.31,536.07l6.34-.18-.58-11.77,1.71-.08.2,4.36,5-.79.27,1.67-5.22.85.27,5.7,6.62-.19,0,1.69-14.64.41Z" style="fill:#2193af"/><path d="M167.77,525.65l-.94,1.92,6.2-.14.86.92-.9,8.89-.86.75-11.45-.19-.83-.83-.31-8.37.85-.88,4.54-.09,1-2-6.48-.13v-1.71l14.19.27,0,1.7Zm-4.32,10.49-.22-6.79-1.94,0,.22,6.71Zm1.49-6,3.33.41.18-1.33-3.52.09Zm.11,3.15,2.94-.49.07-.56-3.06-.41Zm.09,2.88,2.41,0,.2-1.62-2.64.42Zm5-7-.93,7.06,2.14,0,.72-7.14Z" style="fill:#2193af"/><path d="M176.88,531l1-.31-.07-3.62.79-.88,1.06-.09,1.77-2.43,1.38,1-.9,1.22,2.11-.19.92.82.25,9.53-.7.84-5.44,1-1-.85-.11-4.52-.52.16Zm2.68-.83,2.86-.88.49,1.63-3.31,1,.09,4,3.76-.65-.22-7.84-3.72.32Zm5.67-2.2,2.14-4.3,1.53.77-.72,1.43h3.39l.86.84-.25,10.62-1,.83-4.88-.58.2-1.71,4,.49.21-8.78h-3.36l-.58,1.17Zm.65,2.9,1.24-1.17,2.68,2.79-1.24,1.21Z" style="fill:#2193af"/><path d="M198.48,531.08l-.16,1,3.54,4.26-1.31,1.08L198,534.36l-.59,3.83-1.69-.27,1-6.59-1.42.2-.23-1.69,1.94-.27.38-2.38-2.07-.12.09-1.69,2.23.12.36-2.23,1.68.27-.33,2.05,1.26.06-.07,1.71-1.46-.08-.32,2.06,2.32-.33.22,1.68ZM209,533.87l-1.67-.23,1.08-8-5.31.88.36,7.1-1.68.09-.52-10,1.69-.09.06,1.15,6.26-1,1,1Zm-5.13,4.65-1.62-.47,3.24-10.66,1.64.49Zm5.47-.63-3.29-.31-.76-.88.13-2.72,1.69.07L207,536l2.47.23Z" style="fill:#2193af"/><path d="M213,527.45l3.4-3.89,1.28,1.11-3.4,3.89Zm2.18,10.65.36-7.74-1,1.17-1.3-1.08,2.61-3.09,1.51.57-.5,10.24Zm3.36-10.26,3.39-.27,0-.9-2.9.18-.09-1.67,2.93-.18,0-1.57,1.71,0,0,1.49,3.1-.22.9.9-.09,1.53.43,0,.13,1.71-.67.05-.12,2.16-.85.79-2.65,0,0,.81,3.8-.12,0,1.69-3.8.14,0,.92,4.4-.38.14,1.69-4.5.38,0,1.41-1.68,0,0-1.29-4.45.37-.14-1.69,4.53-.38,0-1-3.52.1,0-1.71,3.51-.1,0-.87h-4.3v-1.67l4.25,0,0-.85-3.31.27Zm5.06-1.26,0,.85,2.12-.18.06-.81Zm2,3.51.05-1.11-2,.16,0,1Z" style="fill:#2193af"/><path d="M238.65,539.22l-1.26-.67,1.32-2.34-1.21-.5.54-1.35,2,.79.36,1Z" style="fill:#2193af"/><path d="M248.84,527.68l4.59-4.28,1.17,1.22-2.09,2,.26,11.79-1.71,0-.24-10.24-.81.77Zm4.52,9,11-.65.13,1.71-11,.65Zm.86-3-.09-3-.68,0,.09-1.71.56,0-.06-2.25.74-.88,8.28-1.08,1,.86-.16,7.73-.83.82-7.92.36Zm1.59-4.67,5.63.22-.07,1.71-5.51-.22.06,2.06,6.24-.31.15-5.9-6.54.84Z" style="fill:#2193af"/><path d="M267.45,537.44l3.32-4.31,1.35,1.07-3.32,4.26Zm.09-6.36,14.22-.74.09,1.7-5.32.27.1,1.08,3.14-.69.36,1.66-4.05.86-1.05-.74-.2-2.08-7.2.37Zm.65-4.5.61,0-.16-1.71.79-1,9.69-.57.9.84v5l-.85.84-9.21.09-.87-.75-.11-1.08-.64,0Zm2.32-.16,7.11-.56.15,1.69-7.09.54,0,.27,7.62-.07v-3.24l-7.91.49ZM271.76,537l.25-1.7,9.32,1.37-.23,1.69Z" style="fill:#2193af"/><path d="M293.36,534.09l2.59-1.28-.87-3.26-5,.65.13,1.73,1.76-.69.59,1.59-2.23.86.13,1.6-.29.72-2.92,2.43-1.09-1.29,2.59-2.16-.06-.67-2.46,1-.63-1.57,2.95-1.13-.16-2.16-3,.37-.22-1.67,3.08-.4-.16-2.07-2.2,1.07-.73-1.52,5.81-2.84.74,1.53-2,1,.19,2.67,4.7-.61-.88-3.32,1.64-.41.93,3.51,1.77-.23-1-2.06,1.53-.73,1.51,3.11-.67,1.21-2.71.36.72,2.7,1.27-.63.76,1.53-1.58.77,1.08,4-1.64.45-1-3.73-2.31,1.12Z" style="fill:#2193af"/><path d="M305.25,538.21l-.59-9.88-.74.9-1.33-1.08,4-4.88,1.3,1.08-1.68,2,.69,11.7Zm3.19,0-.27-11.33,1.69,0,.27,11.32Zm2.41-10.8-2.5-3,1.33-1.08,2.47,3Zm4.07,11.08-.43-1.63,2.32-.62.2-10.49-4.56.41-.18-1.67,5.53-.52.92.84L318.5,537l-.63.81Z" style="fill:#2193af"/><path d="M334.22,525.92v10.6l-.78.83-6.93.72-.14-1.68,6.15-.63v-9.9l-11.43-.43.08-1.71,15,.56,0,1.71Zm-10.7,8.51-1-6.1.88-1,6.93.29.77,1-1,5.35-.78.68-4.86.45Zm1.53-1.06,3.48-.31.74-3.78-4.92-.18Z" style="fill:#2193af"/><path d="M339.47,536.86l.38-13.09,1.69.06-.3,11.1,2.91-2.61,1.14,1.26-4.4,3.93Zm4.25-12.1,1.57-.68,2.12,4.73-1.55.71Zm1.21,12.66,6.22-13.7,1.55.72-2.86,6.26,4,5-1.33,1.06-3.47-4.36-2.58,5.65Z" style="fill:#2193af"/><path d="M5.39,555.24l-.88,1.22-1.37-1L5.66,552,4,552l0-1.69,2.86,0,.47-.65-1.62.05L5.66,548l2.95-.09.47-.66-3.76.36-.14-1.7,11.73-1.13.16,1.69-5.76.56-.57.81,5.87-.2,0,1.69-7.16.26-.52.74,9.12.07,0,1.71L7.73,552l-2.25,3.13L6.72,555l-.07-1.18.79-.9,8.81-.62.9.89-.31,6.17-.83.81H7.84L7,559.4l-.18-2.7-1.28.12Zm9.81,3.26.2-4.45-7,.5,0,.31,6.19-.59.16,1.67-6.24.59v.17l6-.17.06,1.57-5.91.16,0,.24Z" style="fill:#2193af"/><path d="M22.91,552.11v-5h1.71v4.07l3-.24-.09-5.69h1.71l.09,5.58,2.88-.24.54-3.11,1.69.29-.66,3.78-.78.7-3.65.27.09,5.4,3.8,0,.12-4.16,1.71.06-.18,5-.83.81-10.87.11-.84-.81-.24-4.19,1.69-.09L24,558l3.77,0-.09-5.3-3.86.29Z" style="fill:#2193af"/><path d="M40,548.9l5.63-4.26,1,1.35-.63.48,6.7.88L53,549l-4.25,2.15,5.58,1.6-.45,1.64-7.38-2.11-6.86,3.47-.79-1.52,5.22-2.63-1.6-.47.45-1.66,3.4,1,3.44-1.74L44.11,548,41,550.29Zm2.26,10.53.2-4.14.88-.81,8,.06.87.84v3.19l-.78.83-8.26.93Zm1.75-.92,6.52-.72v-1.54l-6.39-.06Z" style="fill:#2193af"/><path d="M61.41,551.66l.05,1.6,2.65,2.12-1.06,1.33-1.52-1.2.15,4.44L60,560l-.15-4.84-1.63,4.61-1.61-.6L59.14,552l-1.93.31-.27-1.66,2.72-.45-.07-2.84-2.45.25L57,546l6.53-.67.18,1.7-2.43.25.07,2.73,2.25-.37.27,1.67Zm7.83,5.45,0,3h-1.7v-2.81l-2,.18-.94-.81-.39-7.45.88-.9,2.39.09,0-3.47h1.7v3.54l2.67.09.81,1-.81,6.69-.78.74Zm-3-1.44,1.26-.11,0-5.47L65.94,550Zm2.91-5.51,0,5.24,1-.09.61-5.09Z" style="fill:#2193af"/><path d="M77.88,548.09,78.15,560l-1.69.06-.26-10.33-.79.81-1.22-1.19,3.89-3.93,1.22,1.21Zm8,1.17-.27,5.37,1.1-.18.27,1.67-1.46.25-.2,3.76L83.62,560l.18-3.38-1.73.29-.3-1.68,2.12-.36.29-5.45-.9.11-3,9.72-1.62-.52,2.77-9-2.46.29-.2-1.69,5.51-.67.16-2.86,1.69,0L86,547.53l3.6-.45.2,1.7Zm3.65,9L86,551.1l1.51-.77L91,557.52Z" style="fill:#2193af"/><path d="M93.63,546.44l6.51-.33-.32-.61,1.48-.77L102,546l5.53-.27.09,1.7-8.88.44-1.17,1.46,7-.5-.2-.33,1.46-.86,1.67,2.83-1.46.86-.59-1,0,.13-9.72.68L95,549.8,96.44,548l-2.74.13Zm9.88,12.24,1.3-.45-.13-5.22-8,.55,0,.45,7.29.17,0,1.71-7.15-.18.06.9,6.66-.35.09,1.7-6.66.36.11,1.71-1.71.1-.11-1.72-.85,0-.09-1.71.85,0-.22-3.87.78-.88,9.75-.71.9.83.15,6.73-.56.81-1.89.65Z" style="fill:#2193af"/><path d="M114,555.42l-.16,2.3,1.77.31-.29,1.67-2.54-.43-.7-.9.21-2.81-1.24.09-.14-1.69,1.51-.11.14-2h-1.27v-1.71h4.35v1.71h-1.37l-.14,1.84,1.15-.09.11,1.69Zm-.91-7-.56,1.33L111,549.1l1.73-4.14,1.58.65-.43,1,1.91-.2.18,1.69ZM117,559.61l-.11-2.46-1.26.36-.47-1.62,1.64-.47-.38-8.55L117,546l3.06-.69.38,1.64-2.38.54.07,1.44,1.48-.29.32,1.66-1.73.34.08,1.53,1.47-.68.72,1.56-2.1,1,0,.92,1.53-.45.47,1.64-1.93.56.15,2.84Zm6.71-2.84,2.63,1.89-1,1.37-2.56-1.86L121.53,560l-1.42-.94,1.26-1.91-.56-.41,1-1.37.48.36,1.43-2.14-2.4,0V552l4-.05.7,1.33Zm.72-5.49-.9-.9.11-3.37-1.06,0-.49,3.94-1.69-.22L121,546l.87-.75,2.68.07.83.88-.11,3.28.83,0,.12,1.69Z" style="fill:#2193af"/><path d="M132.85,551.6l-.23-.18-.15,2.2,2.25,3.29-1.4,1-1.39-2-1.08,4-1.64-.41,1.55-5.8,0-.31-1,.28-1.49-5.33,1.64-.49,1,3.64.43-6.12,1.69.1L132.8,549l.55-.7,1.32,1.08Zm2.68,8.21-1.4-1,2.68-3.69,1.37,1Zm5.2-5.65-.27,3.53-.16.41-1.24,1.69-1.37-1,1.1-1.49.25-3.06-3.13.14-.83-1.17,1-2.39-.92-.09.16-1.67,1.44.14.63-1.55-2.59,0,0-1.7,3.26.06.37-.88,1.55.64-.11.26,4,0,0,1.69-4.7-.05-.7,1.67,1.76.16.76.9-.16,2,2.57-.13.09,1.71ZM137.84,551l-.67,1.62,2-.09.12-1.4Zm6.31,8.46-3.33-1.76.78-1.52L145,558Z" style="fill:#2193af"/><path d="M151.52,554.23l3.76,3.87-1.21,1.21-3.35-3.48-2,4-1.53-.75,2.28-4.59-2.05-2.15,1.21-1.17,1.64,1.71,1.89-3.77L147.79,548l.45-1.62,5.35,1.44.54,1.18Zm9.14-5.8.81,10.25-.7.9-4.41.77-.31-1.65,3.66-.69L159,548.6l-4.21.41-.15-1.67,4.23-.42-.16-2.18,1.69-.1.16,2.12,1.37-.14.15,1.67Zm-3.2,8.05-2.7-5.22,1.51-.77,2.7,5.23Z" style="fill:#2193af"/><path d="M173.42,547l.49,4.3,6-.56.16,1.7-5.92.55.54,4.6-.63.93-4.41,1.22-.45-1.63,3.72-1-.47-3.94-7.07.65-.16-1.7,7-.64-.53-4.49-4.66-.08,0-1.68,11.63.2,0,1.69Z" style="fill:#2193af"/><path d="M185.88,548.09l.27,11.95-1.69.06-.25-10.33-.8.81-1.22-1.19,3.89-3.93,1.22,1.21Zm8,1.17-.27,5.37,1.1-.18.27,1.67-1.46.25-.2,3.76-1.71-.09.18-3.38-1.73.29-.3-1.68,2.12-.36.29-5.45-.9.11-3,9.72-1.62-.52,2.77-9-2.46.29-.2-1.69,5.51-.67.16-2.86,1.69,0-.14,2.61,3.6-.45.2,1.7Zm3.65,9L194,551.1l1.51-.77,3.57,7.19Z" style="fill:#2193af"/><path d="M202.84,560.21l-1.44-.88,1.89-3.12L203.18,546l.79-.86,11.18-.67.09,1.71-10.37.59.13,9.62-.13.45Zm8.37-10.12v1.24l3.79.06.85,1-.85,4.36-1.65-.32.63-3.35L207.5,553l.21,3.62-1.71.09-.23-4.56.85-.86,2.88,0v-1.08l-3.8.31-.15-1.69,3.95-.33v-1h1.71v.85l4.42-.36.15,1.68Zm-4.05,10.4-1.26-1.11,5.45-6,1.26,1.12Zm7.38-.08-3.6-3.16,1.13-1.27,3.56,3.15Z" style="fill:#2193af"/><path d="M218.84,552.56l1-.31-.07-3.62.79-.88,1.06-.09,1.77-2.43,1.38,1-.9,1.23,2.11-.2.92.83.25,9.52-.7.84-5.44,1-1-.85-.11-4.52-.52.17Zm2.68-.83,2.86-.88.49,1.63-3.31,1,.09,4,3.76-.65-.22-7.84-3.73.32Zm5.67-2.2,2.14-4.3,1.53.77-.72,1.43h3.39l.86.84-.25,10.62-1,.83-4.88-.58.2-1.71,4,.49.21-8.78H229.3l-.58,1.17Zm.65,2.9,1.24-1.17,2.68,2.79-1.24,1.21Z" style="fill:#2193af"/><path d="M237.68,545.66l13.95-.34,0,1.69-4.63.11-2.84,2.93,1.64.11-.09,1.37,6.37,2.38-.58,1.56-5.9-2.16-.4,6.32-1.69-.11.61-9.41-5.85,6.06L237.09,555l7.52-7.81-6.89.16Z" style="fill:#2193af"/><path d="M264.94,558.06l2.82-1.69-.57-9.2-9.51.2-.25,11.7-1.69,0,.25-12.52.83-.83,11.16-.24.86.8.65,10.53-.43.75-3.24,2Zm-6.75-9.46,7.65-.81.18,1.69-7.65.81Zm1.56,8-.79-.75-.38-3.75.76-.92,6-.63.93.92-.39,4.74-.9.75Zm4.46-1.37.24-2.88-4.1.44.23,2.17Z" style="fill:#2193af"/><path d="M279.71,549.08l-2.16.11,1.43.23-.24,1.45-2.63-.44.18-1.17-1.24.06.41,3.42-1.69.19-.52-4.31.81-.94,5.62-.27v-.58l-4,.27-.11-1.67,9.72-.69.15,1.7-4.09.28v.62l5.74-.29.88,1-.86,4.7-1.66-.33.67-3.63-4.73.23.09,3.58-1.7.06Zm1.61,10.79.63-2.76-2.43.07.05,2.7-1.67,0-.08-2.68-2.3.07.18,2.63L274,560l-.24-3.51.81-.9,4.93-.16.22-.64-5.33.32-.09-1.71,12.12-.72.1,1.67-5,.31-.24.72,5.4-.18.88.84v2.15l-.25.61-1.29,1.35L284.86,559l1.06-1.1V557l-2.25.07-.72,3.2Zm-5.21-7.67.22-1.44,2.65.45-.24,1.42Zm6.1-1.77.22-1.44,2.63.43-.22,1.45Zm0,1.75.22-1.44,2.63.45-.22,1.4Z" style="fill:#2193af"/><path d="M292.42,547.77l5.44-.31v-2.32h1.69v2.21l3.47-.19-.77-1,1.35-1,1.73,2.27-.63,1.35-5.15.3v2.35l1.84,1.6,2.64-2.88,1.26,1.15-2.61,2.84,3.44,3L305,558.39l-5.45-4.75V559l-1,.83-3.24-.78.4-1.67,2.18.54v-2.16l-6.09,2.66-.68-1.56,6.77-3v-4.75l-5.35.31Zm.29,3.58,1.08-1.31,2.93,2.41-1.08,1.31Z" style="fill:#2193af"/><path d="M309.43,557.54l-.29-9.61.87-.88h3l.87.88-.31,9.45-.81.83-2.43.16Zm1.68-.92.79,0,.27-7.83-1.3,0Zm6.91-.25,2.63-1.73-.78-4-2.43.31.06,1.64.84-.29.54,1.6-1.33.45.07,1.89-.12.47-1.91,3.17-1.48-.87,1.8-3,0-1.11-1.05.34-.56-1.6,1.53-.52-.05-2-1.31.16-.2-1.69,1.46-.18-.08-1.78-.75.23-.51-1.62,4-1.19.51,1.62-1.51.45.07,2.09,2.14-.27-.61-3.15,1.65-.31.65,3.26,2.61-.32.22,1.67-2.5.33.62,3.15.92-.6.92,1.42-1.47,1,.81,4-1.68.34-.67-3.34L319,557.79Zm3.18-10.31,1.37-1,1.51,2.1-1.37,1Z" style="fill:#2193af"/><path d="M326.93,559.58l-.24-2.87,1.91-.16.24,2.88Zm2-4.83-1.9-.23,1.18-9.25,1.93.28Z" style="fill:#2193af"/><path d="M57,414.41a9.27,9.27,0,1,0-9.27-9.26A9.27,9.27,0,0,0,57,414.41Z" style="fill:#f7c479"/><path d="M58.84,439.06l-17.05-7.6c-1.85-.93-2.78,1.85-3.7,3.7s-7.6,13.35-7,15.38a3.71,3.71,0,0,0,3.52,2.6,2.29,2.29,0,0,0,1.11-.19l22.79-7a3.55,3.55,0,0,0,2.59-3.33,3.9,3.9,0,0,0-2.22-3.52Z" style="fill:#a41f24"/><path d="M54.76,416.63l-4.07-1.85a5,5,0,0,0-6.49,2.41L22.15,464.63a3.79,3.79,0,0,0,1.85,5,5.65,5.65,0,0,0,1.67.37A3.51,3.51,0,0,0,29,468s17.79-24.64,19.27-27.61,9.08-17.23,9.08-17.23a5.05,5.05,0,0,0-2.6-6.49Z" style="fill:#e94c37"/><path d="M80.15,417.56A3.78,3.78,0,0,0,75,417l-9.26,7.78L53.84,418.3A4.41,4.41,0,0,0,47.72,420c-1.48,2.41-.74,5.37,1.48,6.3l15.38,6.3a5.35,5.35,0,0,0,1.67.37,3.88,3.88,0,0,0,2.41-.93l11.12-9.26a3.75,3.75,0,0,0,.37-5.19ZM26.78,431.27l6.3-9.45,8.53,1.11,2.78-5.74a4.69,4.69,0,0,1,3.89-2.78h-17a3.64,3.64,0,0,0-3.15,1.67L20.67,427.2a3.67,3.67,0,0,0,1.11,5.18,2.71,2.71,0,0,0,1.85.56A3.88,3.88,0,0,0,26.78,431.27Z" style="fill:#f7c479"/><path d="M75.08,223.82l4.38-.24-1.77-1.74,2-2.07,2.74,2.71-.94,1,5.56-.34,2.2-3.16,2.37,1.67-.88,1.28,5.17-.31.18,2.83-5.51.34-1.49,5h1l2.86-4.93,2.46,1.43-2,3.47,3.32,0,0,2.89-23.28.15v-2.89h2.83l-1.15-1.46,2.22-1.77,2.55,3.2h1l-.09-4.47-5.57.3Zm-.86,14.64,1.53,0-.31-1.59,1.31-1.7L93.94,234l1.52,1.62-1,8.12L93,244.91l-14.82-.09-1.37-1.13-.49-2.41-2,0Zm17.5,3.62.67-5.15-13.81.95.09.48,11.8-.21.09,2.89-11.35.21.16.74Zm-8-11.29h2.34L87.52,226l-3.86.21Z" style="fill:#2193af"/><path d="M116.82,238.15l-2.83-.09.15,2.95-2.89.15-.15-3.22-1,0,.12-2.89.7,0-.3-7,1.43-1.52,3.1-.09-.79-.95,2.19-1.85,1.79,2.13,2.62-2.22-8.4-.76.25-2.83L124.73,221l.79,2.53-3.19,2.64,2.74-.09,1.49,1.49-.4,10.65-.48,1-1.74,1.52,3.74-.46.37,2.83-16.1,2-1.09-.3L107.51,242l-2.22,2.58-2.16-1.82,2.59-3.05,1.09-9.89-3.8-.66.55-2.83,5.08.91,1.15,1.58-1.15,10.38,3.59,3,10.62-1.28-1.46-1.67,1.94-1.77.31-8.49-4.26.13,0,1.39,3.38-.15.12,2.89-3.38.16.06,2,2.56.09-.09,2.86-2.35-.06.06,1.95-2.89.09ZM104,221.2l2.35-1.58,3.16,4.57-2.34,1.58Zm9.62,9.53,2.92-.12-.06-1.4-2.92.09Zm.21,4.44,2.86.09-.06-1.76-2.89.12Z" style="fill:#2193af"/><path d="M133.5,243l13.66-22.79,2.43,1.49-13.66,22.76Zm11.38-10.56,2-2.07,11.53,10.83-2,2.1Z" style="fill:#2193af"/><path d="M163.37,243.81l-1.61-1.43V222.3l1.52-1.4,17.47.94,1,2.35-6.94,8.18,6,7.24-.94,2.34Zm1.25-20v17l12.29-1.37-5.11-6.15,0-1.82,5.88-6.88Z" style="fill:#2193af"/><path d="M203.35,242.41l-2.76-15.24-5.51,9.73-2.56-.12-4.14-9-2.61,14.63-2.83-.52,3.44-19.13,2.67-.34L194,233l6.09-10.74,2.65.46,3.46,19.13Z" style="fill:#2193af"/><path d="M210.26,242.87l-2.86-.15,1-20.91,2.9.15Z" style="fill:#2193af"/><path d="M230.31,232.55l-.15,8.37,9.34-.36.12,2.85-24.82,1-.13-2.83,5.33-.21-1.83-12.39,2.86-.42,1.86,12.71,4.38-.18.27-17.52-11.16-.31.09-2.89,22.12.67-.06,2.83-8.1-.21-.09,6.08h7.49v2.86Z" style="fill:#2193af"/><path d="M245.19,230.48l.7-5.53,1.4-1.25,2.16,0-1.28-2.43,2.5-1.31,2,3.77,3.8,0,.27-4,2.86.16-.24,3.83,3.1,0,3-4.08,2.28,1.74L266,223.88h2.5L270,225.4l-.28,4.41-2.86-.15.16-2.92-18.44-.15-.49,4.23Zm10,14.34.15-5.42-6.57.3.52,4.11-2.83.4-.73-5.66,1.37-1.65,8.34-.36,0-1.49h-4.9l-1.43-1.64.57-4.42,1.34-1.24,12.69-.67,1.49,1.27.61,5.09-1.4,1.61H258.4l0,1.37,9-.43,1.49,1.52-.39,4.9-1.07,1.25-3.28.88-.73-2.77,2.31-.61.18-2.25-7.64.37-.18,5.6Zm7.61-12.63-.28-2.16-10.1.48-.24,1.68Z" style="fill:#2193af"/><path d="M276.65,245.64l-1.52-2.38,8.34-5.23,1.52,2.43Zm6.63-17.74-1-2.16-6.18.36-.15-2.89,5-.27-.67-1.49,2.59-1.22,1.15,2.53,8.22-.46,1.31-3.29,2.68,1.07-.83,2,5.12-.31.15,2.83-6.45.4-1.25,3L290.31,227l.73-1.8-5.72.33.55,1.13Zm-.27,4.71-6.69-2,.82-2.77,6.69,2.07Zm.12,4.51-6.48-.46.18-2.83,6.51.46Zm13.63,8.21-8.55-1.85-1.12-1.22-1.43-11.53,1.37-1.58,11-.58,1.49,1.55-.45,5.26L298,236.63l-6.3,1.67-.7-2.77,5.33-1.39.18-2.59-7.85.36,1.13,9,6.48,1.46,2-4,2.59,1.25-2.49,5Z" style="fill:#2193af"/><path d="M308.87,245.06l-1.43-1.31-1.15-21.82,1.37-1.52,21.42-.79,1.49,1.52-1.68,22.31-1.43,1.27Zm.34-21.82,1,19,16-.31,1.4-19.38Zm15,18-2.8-.69.85-3-3.62.16-.27,3.34-2.83-.27.24-3-4,.15-.12-2.86,4.38-.18.13-1.74-3.47.09-.1-2.86,3.81-.09.18-2.13-5.38-.12.09-2.86,5.53.15.19-2.16,2.86.22-.19,2,5.54.12-.06,2.87-5.72-.13-.15,2,4.65-.12L324,233l-5,.12-.15,1.67,5.21-.24,1.43,1.83Z" style="fill:#2193af"/><path d="M28.61,204.48h0a27,27,0,0,1,27,27v27a0,0,0,0,1,0,0h-27a27,27,0,0,1-27-27v0A27,27,0,0,1,28.61,204.48Z" style="fill:#2193af"/><line x1="54.64" y1="256.48" x2="341.6" y2="256.48" style="fill:none;stroke:#2193af;stroke-miterlimit:10;stroke-width:4px"/><path d="M163.15,289.21l-.09,4.81,5.37-.21.07,1.65-14.28.54-.07-1.63,3.06-.12-1-7.12,1.64-.25,1.07,7.32,2.52-.11.16-10.08-6.43-.17.05-1.66,12.73.38,0,1.63-4.65-.12-.05,3.5h4.3v1.64Z" style="fill:#aec9b4"/><path d="M171.71,288l.4-3.18.8-.72,1.25,0-.74-1.4,1.44-.76,1.15,2.17,2.19,0,.16-2.27L180,282l-.14,2.21h1.79l1.71-2.34,1.31,1-1,1.36h1.43l.84.88-.16,2.54-1.64-.09.09-1.68-10.61-.09-.28,2.43Zm5.77,8.24.09-3.11-3.78.17.3,2.37-1.63.22-.42-3.25.79-1,4.79-.21,0-.85h-2.82l-.82-.95.33-2.54.77-.71,7.3-.39.86.74.35,2.92-.81.93h-3.5l0,.78,5.2-.24.86.87-.23,2.82-.61.72-1.89.51-.42-1.6,1.33-.35.1-1.29-4.39.21-.1,3.22Zm4.38-7.26-.16-1.24-5.81.28-.14,1Z" style="fill:#aec9b4"/><path d="M298.71,291.15l3.38-4.18,1.27,1-2,2.47h.92l-.14,9.86-1.64,0,.1-8.91-.63.79Zm3.76,9,1.12-5.27-.14-5.91.79-.86,3.1-.14-.6-1,1.42-.82,1,1.73,3.57-.17.87.84-.07,3-.82.81-7.58-.07.07,2.62v.21l-1.14,5.36Zm9.47-9.43.05-1.32-6.88.34,0,.91Zm-4.2,8-.49,0,.1,2.12-1.66.05-.28-6.56.74-.84,6.58-.61.91.84-.23,6.63-1.65,0,.07-1.86-.49,0v1.78l-1.67,0,0-1.67h-.31l.12,2-1.63.09Zm-.56-1.63.45,0-.12-2-.42,0Zm2.1-.12.44,0v-2.1l-.57.05Zm2.12-2.29,0,2.18h.51l.08-2.23Z" style="fill:#e7ac63"/><path d="M317.84,293.22l.73-.05L318.4,292l.78-1,3.73-.16v-.37l-5.48.25-.08-1.65,5.56-.26v-.45l-4,.29-.1-1.62,10.48-.83.12,1.65-4.86.38v.51l5.81-.28.09,1.65-5.9.28v.38l5-.21.86.95-.56,4-.83.72-4.49.09v.36l4.2-.14,0,1.63-4.22.16v.65l5.83.1-.05,1.63-13.48-.23,0-1.66,6,.12v-.56l-4,.14-.07-1.66,4.08-.12v-.39l-3.06.05-.84-.7-.16-1-.91.07Zm2.39-.16,2.68-.19v-.3l-2.73.11Zm.3,1.75,2.38,0v-.28l-2.41.17Zm4.05-.44v.37l3.77-.09.34-2.32-4.11.17v.25l3.39-.25.11,1.63Z" style="fill:#e7ac63"/><path d="M32.58,297.12l6,1.68,5.51-.28.09,1.66-5.67.28-.26,0L32,298.66l-.81,2.28-1.56-.55,2.91-8.15-2.5-.58.35-1.61,3.43.77.61,1.09Zm.92-7.49-2.8-2.22,1-1.3,2.8,2.23Zm8.61.65.77,6.23-.71.91-3.57.45-.21-1.62,2.78-.35-.68-5.43-5.22.65-.19-1.65,5.2-.64-.3-2.47,1.64-.21.3,2.48,2.35-.29.22,1.64Zm-4.69,5.46-1.8-3.48,1.47-.77,1.8,3.5Z" style="fill:#24749e"/><path d="M51.69,298.1l.05,2.91-1.63,0,0-2.65-2.89.51-.28-1.63,3.13-.54L50,294.11l-2.13-.17-.74-1,.77-3-1,.1-.18-1.64,1.58-.16.58-2.22,1.59.42-.42,1.61,3.6-.39.18,1.63-4.24.45-.66,2.61,1,.09,0-1.68,1.66,0,0,1.84,1.22.1-.14,1.65-1.06-.09,0,2.19,2.07-.35L54,297.7Zm8-8.05,2.71,2.21-1,1.27-3-2.43-3.79,3-1-1.31,5.55-4.39-4.55-.27.09-1.66,6.72.42.45,1.47Zm-.84,5.51L59,299l2.63.09-.05,1.63-8-.32.07-1.61,3.73.14-.16-3.31-2.49.09-.05-1.66,6.58-.25.07,1.65Z" style="fill:#24749e"/><path d="M65.51,357.12a6.11,6.11,0,0,1-1.8,1.33,3.41,3.41,0,0,1-2.22.3,7.06,7.06,0,0,1-2.34-1,18.91,18.91,0,0,0-2.22-1.2,2.84,2.84,0,0,0-2-.16,8.26,8.26,0,0,0-2.56,1.77v-.8A6.79,6.79,0,0,1,54.27,356a3.06,3.06,0,0,1,2-.23,9,9,0,0,1,2.59,1.09,15.94,15.94,0,0,0,2.53,1.23,2.46,2.46,0,0,0,2-.16,10.52,10.52,0,0,0,2.2-1.57Zm0,3.2a6.29,6.29,0,0,1-1.8,1.33,3.34,3.34,0,0,1-2.22.29,6.83,6.83,0,0,1-2.34-1,17.54,17.54,0,0,0-2.22-1.2,2.84,2.84,0,0,0-2-.17,8,8,0,0,0-2.56,1.76v-.8a6.93,6.93,0,0,1,1.93-1.42,3.06,3.06,0,0,1,2-.23A8.75,8.75,0,0,1,58.82,360a16.16,16.16,0,0,0,2.53,1.24,2.47,2.47,0,0,0,2-.17,11.66,11.66,0,0,0,2.2-1.56Z" style="fill:#2193af"/><path d="M72.2,365.29l-1.37-.11.79-10.78-3,2.26-.84-1.1L72,352.41l1.09.59Z" style="fill:#2193af"/><path d="M80,365.27l-5.92-1.46-.31-1.18,4.61-4.13-3.5-2.76.15-1.15,5-2.18.8.17,2.33,2.57,0,1-2.55,2.3,3.87,3,0,1.14-3.83,2.6Zm-4.34-2.48,4.38,1.08,2.8-1.92-3.35-2.6Zm1-7.4,2.79,2.17,2.23-2-1.55-1.71Z" style="fill:#2193af"/><path d="M87.49,365.78,85.12,365,86,362.6l2.36.82Z" style="fill:#2193af"/><path d="M97.32,365.17,89,363.35l.31-1.35,7.7,1.7,1.62-4.08-6.58-.7-.6-.81.94-5.06.68-.56h6.53v1.36h-6L93,357.63l6.75.72.55.93-2.14,5.46Z" style="fill:#2193af"/><path d="M270.74,356.78A6,6,0,0,1,269,358.1a3.37,3.37,0,0,1-2.23.3,6.78,6.78,0,0,1-2.33-1,17,17,0,0,0-2.23-1.2,2.83,2.83,0,0,0-2-.16,7.79,7.79,0,0,0-2.55,1.77v-.8a6.9,6.9,0,0,1,1.93-1.44,3.1,3.1,0,0,1,1.95-.23,9.26,9.26,0,0,1,2.6,1.1,15.3,15.3,0,0,0,2.52,1.22,2.42,2.42,0,0,0,2-.16,10.54,10.54,0,0,0,2.2-1.56Zm0,3.2A6,6,0,0,1,269,361.3a3.44,3.44,0,0,1-2.23.3,6.78,6.78,0,0,1-2.33-1,17,17,0,0,0-2.23-1.2,2.84,2.84,0,0,0-2-.17,7.73,7.73,0,0,0-2.55,1.76v-.8a6.65,6.65,0,0,1,1.93-1.43,3.17,3.17,0,0,1,1.95-.23,9,9,0,0,1,2.6,1.1,15.51,15.51,0,0,0,2.52,1.23,2.42,2.42,0,0,0,2-.17,10.83,10.83,0,0,0,2.2-1.55Z" style="fill:#e7ac63"/><path d="M274.13,365.11l-.56-1.14,7.06-7.92-3.24-2.71-3.62,2.47-.77-1.13,4.05-2.77.82,0,4.17,3.49.07,1-6.33,7.13,7.19-.8.16,1.36Z" style="fill:#e7ac63"/><path d="M291.29,364.93l-7.48-1.62.3-1.33,7,1.5,1.7-3.16-4.81-1.2-.26-1.2,4.66-3.63-6.19-.86.19-1.37,7.79,1.09.34,1.23-4.83,3.74,4.32,1.07.42,1L292,364.59Z" style="fill:#e7ac63"/><path d="M297.55,365.44l-2.36-.84.85-2.35,2.37.82Z" style="fill:#e7ac63"/><path d="M304.43,364.82l-1.26-.56,4.34-9.64-4.72-1-2.11,2.94,4,1.89-.6,1.24-4.73-2.26-.25-1,2.85-3.95.7-.29,6,1.31.49,1Z" style="fill:#e7ac63"/><rect x="14.57" y="315.3" width="60.22" height="6.3" style="fill:#24749e"/><rect x="79.66" y="315.3" width="198.97" height="6.3" style="fill:#aec9b4"/><rect x="283.49" y="315.3" width="74.07" height="6.3" style="fill:#e7ac63"/><rect x="74.8" y="290.81" width="4.86" height="55.28" style="fill:#2193af"/><rect x="278.63" y="288.38" width="4.86" height="60.15" style="fill:#deb25a"/><path d="M74.78,188.12H14.59a4.49,4.49,0,1,0,0,9H31.53a3.39,3.39,0,0,1,3.26,2.5c.89,2.3.45,6.74-.1,10.18L34,213.84v0l0,0L28.2,246.63a4.56,4.56,0,0,0,3.68,5.28,4.4,4.4,0,0,0,1.77,0,4.45,4.45,0,0,0,1.62-.72,4.34,4.34,0,0,0,1.21-1.28,4.53,4.53,0,0,0,.63-1.66l4-22.75s1.28-5.4,3.61-5.4,3.61,5.4,3.61,5.4l4,22.77a4.56,4.56,0,0,0,.62,1.67,4.62,4.62,0,0,0,1.23,1.3,4.43,4.43,0,0,0,1.63.72,4.32,4.32,0,0,0,1.79,0,4.49,4.49,0,0,0,2.94-1.9,4.41,4.41,0,0,0,.69-1.64,4.32,4.32,0,0,0,0-1.79L55.44,213.9v0l0,0-.72-4.07c-.55-3.44-1-7.88-.1-10.18a3.41,3.41,0,0,1,3.21-2.49h17a4.49,4.49,0,0,0,4.49-4.49,4.47,4.47,0,0,0-4.49-4.49Z" style="fill:#e94e37"/><path d="M44.69,180.6a9.32,9.32,0,1,0-9.32-9.31A9.31,9.31,0,0,0,44.69,180.6Z" style="fill:#f7c579"/><path d="M211.83,92.16l.46,20.42-2.89.09L209,95l-1.35,1.39-2.09-2,6.64-6.71,2.09,2.06Zm13.68,2-.46,9.16,1.87-.3.46,2.85-2.49.43-.33,6.43-2.92-.15.3-5.78-2.95.49-.52-2.86,3.63-.62.49-9.31-1.54.18-5.13,16.61-2.77-.9,4.73-15.31-4.21.5-.33-2.89,9.4-1.14.28-4.89,2.89.09-.25,4.46,6.15-.77.34,2.89Zm6.24,15.4L225.63,97.3,228.21,96l6.09,12.29Z" style="fill:#2193af"/><path d="M240.39,99.14l1.29-.09-.31-2,1.39-1.69,6.54-.28v-.64l-9.62.43L239.53,92l9.77-.46v-.8l-7,.52-.19-2.86,18.42-1.44.21,2.89-8.55.67v.89l10.21-.49.15,2.89-10.36.49v.68l8.86-.37,1.5,1.66-1,7.07-1.44,1.26-7.91.16v.64l7.38-.24.07,2.86-7.41.27v1.14l10.23.18-.09,2.86-23.67-.4,0-2.92,10.58.22v-1l-7.08.25-.12-2.92,7.16-.22v-.67l-5.38.09-1.47-1.23-.28-1.72-1.6.12Zm4.21-.27,4.7-.34V98l-4.79.19Zm.52,3.07,4.18-.06v-.49l-4.24.3Zm7.1-.77v.65l6.65-.16.58-4.09-7.23.31v.43l6-.43.18,2.86Z" style="fill:#2193af"/><path d="M285.73,111.23a10.4,10.4,0,0,1-2.53-7.08A10.79,10.79,0,0,1,285.73,97H287a11,11,0,0,0-2.54,7.17,10.82,10.82,0,0,0,2.53,7.1Z" style="fill:#2193af"/><path d="M295.56,108.58h-2l-3.55-4h0v4H288.5V96.3H290v7.79h0l3.37-3.81h1.89l-3.75,4Z" style="fill:#2193af"/><path d="M303.75,107.89c0,3.07-1.5,4.6-4.48,4.6a5.91,5.91,0,0,1-2.68-.57V110.5a5.51,5.51,0,0,0,2.66.77q3,0,3-3.18v-.88h0a3.34,3.34,0,0,1-5.33.45,4.48,4.48,0,0,1-.93-3,5.1,5.1,0,0,1,1-3.37,3.4,3.4,0,0,1,2.76-1.24,2.7,2.7,0,0,1,2.47,1.32h0v-1.13h1.47Zm-1.47-4.25a2.29,2.29,0,0,0-.65-1.65,2.13,2.13,0,0,0-1.61-.69,2.22,2.22,0,0,0-1.87.89,3.93,3.93,0,0,0-.66,2.42,3.32,3.32,0,0,0,.64,2.13,2.06,2.06,0,0,0,1.71.82,2.24,2.24,0,0,0,1.76-.78,2.87,2.87,0,0,0,.68-2Z" style="fill:#2193af"/><path d="M305.25,111.23a10.8,10.8,0,0,0,2.53-7.1A11,11,0,0,0,305.23,97h1.31a10.71,10.71,0,0,1,2.54,7.19,10.3,10.3,0,0,1-2.54,7.08Z" style="fill:#2193af"/><path d="M158.88,130.78l-.15-4.15,29.71-.51.06,4.1Zm27.21-10.3H161v-4.15h25.11Z" style="fill:#aec9b4"/><path d="M208.06,152.07l3.08-.09-.12-1.29-2.31.12-.15-2.89,2.21-.12-.68-7.84,1.42-1.57,1.57,0,3.29-3.38,2,2-1.26,1.32,9.07-.12,1.45,1.44.06,11.38,1.94-.68,1,2.71-2.89,1,0,4.64-1.11,1.42-5.31,1.38-.71-2.8,4.21-1.1,0-2.49L208,161l-.95-2.71,10.24-3.59-9.13.27Zm5-10.82.12,1.48,11.62-.16V141.1Zm.86,9.26.12,1.38,10.79-.34,0-6.06-11.35.13.19,2,9.84-.59.15,2.89Z" style="fill:#24749e"/><path d="M256.76,158.5l1.29-.71.89-6-18.6,1.1,1.45,7.2-2.86.55-1.78-8.82L238.5,150l22-1.32,1.51,1.66L260.82,159l-.77,1.08-1.91,1Zm-19.37-20.57,10.64-.24-.46-1.14,2.74-1.11.86,2.15,10.73-.24,0,2.92-24.47.58Zm4.31,10.36L239.76,144l1.23-2,14.76-.89,1.53,1.26.43,3.59-1.26,1.6-13.22,1.66Zm1.69,11.35-.92-4.21,1.32-1.79,11.07-.8,1.59,1.6-.55,5-1.44,1.29-9.66.06Zm.52-13.53,10.73-1.35-.09-.71-11.25.65ZM246,157.88l7.13-.06.19-1.93-7.63.55Z" style="fill:#24749e"/><path d="M286.88,160.09a10.33,10.33,0,0,1-2.53-7.08,10.76,10.76,0,0,1,2.53-7.19h1.3a11.06,11.06,0,0,0-2.54,7.18,10.78,10.78,0,0,0,2.52,7.09Z" style="fill:#2193af"/><path d="M299.51,157.45h-1.27v-4.77a4.15,4.15,0,0,0-.33-1.93,1.12,1.12,0,0,0-1.07-.58,1.18,1.18,0,0,0-1,.75,3.8,3.8,0,0,0-.41,1.8v4.73h-1.26v-4.92c0-1.58-.43-2.36-1.3-2.36a1.24,1.24,0,0,0-1.08.72,3.49,3.49,0,0,0-.43,1.83v4.73h-1.27v-8.31h1.27v1.32a2.25,2.25,0,0,1,2.06-1.51,1.54,1.54,0,0,1,1.1.46,2.48,2.48,0,0,1,.67,1.24c.47-1.14,1.16-1.7,2.09-1.7,1.49,0,2.23,1.13,2.23,3.38Zm2.64-7.7h-3v-.85l1.37-1.06a4.59,4.59,0,0,0,.51-.46.71.71,0,0,0,.13-.43.47.47,0,0,0-.16-.38.71.71,0,0,0-.47-.13,1.84,1.84,0,0,0-1.21.45v-1a2.76,2.76,0,0,1,1.38-.33,1.8,1.8,0,0,1,1.12.32,1,1,0,0,1,.4.81,1.86,1.86,0,0,1-.12.78,2.31,2.31,0,0,1-.43.58l-1.11.79h1.62Z" style="fill:#2193af"/><path d="M303.9,160.09a10.77,10.77,0,0,0,2.53-7.09,11,11,0,0,0-2.55-7.18h1.31a10.7,10.7,0,0,1,2.53,7.19,10.29,10.29,0,0,1-2.53,7.08Z" style="fill:#2193af"/><path d="M273.92,140.56l-.5-1,6.38-7.16-2.93-2.45-3.27,2.23-.69-1,3.66-2.51.73.05,3.77,3.15.06.89-5.72,6.44,6.51-.72.13,1.23Z" style="fill:#2193af"/><path d="M80.17,125.37l-1.75-1.56V102l1.65-1.52,19,1,1,2.55-7.53,8.89,6.51,7.87-1,2.55Zm1.35-21.73v18.42l13.36-1.49-5.55-6.68,0-2,6.38-7.47Z" style="fill:#deb25a"/><path d="M123.61,123.84l-3-16.56-6,10.58-2.78-.13-4.5-9.79-2.84,15.9-3.07-.56,3.73-20.79,2.91-.37,5.36,11.54L120,102l2.88.5,3.77,20.79Z" style="fill:#deb25a"/><path d="M131.12,124.34l-3.11-.16,1.12-22.72,3.14.17Z" style="fill:#deb25a"/><path d="M64.94,143l1.41,0-.06-.59-1.06.06-.07-1.33,1,0-.31-3.59.64-.72h.72l1.51-1.55.94.92-.58.6,4.15,0,.66.66,0,5.2.89-.31.45,1.24-1.32.46v2.13l-.51.64-2.43.64-.32-1.28,1.92-.51v-1.14l-7.71,2.72-.43-1.24,4.68-1.65-4.18.13Zm2.29-4.95.06.68,5.31-.07V138Zm.4,4.24.05.63,4.94-.16,0-2.77-5.19.06.09.91,4.5-.26.07,1.32Z" style="fill:#e7ac63"/><path d="M80.24,137.84l.21,9.34-1.32,0-.2-8.07-.61.63-1-.92,3-3.07.95.94Zm6.26.92L86.29,143l.86-.14.21,1.31-1.14.19-.15,2.94-1.34-.07.14-2.64-1.35.22-.24-1.31,1.66-.28.23-4.26-.71.09-2.35,7.59-1.26-.41,2.16-7-1.92.22-.16-1.32,4.31-.52.12-2.23,1.32,0-.11,2,2.81-.36.16,1.33Zm2.86,7-2.8-5.61,1.18-.6,2.78,5.62Z" style="fill:#e7ac63"/><path d="M93.49,147.31l-1.12-.69,1.47-2.43-.08-7.95.62-.68,8.73-.52.07,1.34-8.1.46.1,7.51-.1.36ZM100,139.4v1l3,0,.66.78-.66,3.41-1.29-.26.49-2.61-5.07-.09.17,2.83-1.33.07L95.78,141l.67-.67,2.25,0v-.84l-3,.24-.11-1.33,3.08-.25v-.77H100v.66l3.46-.28.12,1.3Zm-3.16,8.13-1-.87,4.27-4.72,1,.87Zm5.76-.07L99.82,145l.89-1,2.78,2.46Z" style="fill:#e7ac63"/><path d="M108.2,144l-.37-2.63.54-.66,7.29-.16.58.61-.2,2.67-.56.52-2.62.06v.27l3.92,0,0,1.07-3.94.05v.21l5-.07,0,1.32-11.59.11,0-1.29,5.28-.06v-.21l-3.93,0v-1.08l3.94,0v-.25l-2.76,0Zm-1.54-4.51,10.93-.21v1.06l-10.93.21Zm.29-2.55h.8l-.08-.74.55-.63,7.82-.27.6.62-.24,2.73-.56.51-7.31,0-.56-.49-.09-.73-.9,0Zm1.94,0,5.32-.16v1.06l-5.19.15,0,.12,6.27-.05.13-1.56-6.57.23Zm.19,5.16,2.46-.06v-.22l-2.49.06Zm.18,1.28,2.28,0V143l-2.31.06Zm3.6-1.59v.23l2.18-.05v-.24Zm2.1,1.48V143l-2.11,0v.24Z" style="fill:#e7ac63"/><path d="M123.4,139.07l.09,1.7.69-.41.66,1.14-1.26.74.14,2.34-.11.44L122,147.2l-1.08-.81,1.47-2L122.3,143l-1.15.68-.68-1.14,1.73-1-.14-2.46h-1.34v-1.33H122l-.11-2,1.34-.08.11,2.09h1.37v1.33Zm1.37,4.31.86-.11-.1-1.81.64-.71,4.93-.24.69.71-.19,4.95-.65.63-4.45.09-.68-.62-.1-1.66-.76.1Zm1.38-3.57-.62-.72.33-3.72,1.31.11-.24,3.05.5,0,3.07-3,.93.94-2.24,2.24,2.46.17-.1,1.32Zm.82,3.29,2.76-.36.16,1.32-2.85.38,0,1.11,3.21-.07.14-3.59-3.53.16Z" style="fill:#e7ac63"/><path d="M135.34,137.63l1.26-.08,0-2.46,1.32-.05,0,2.42h.16l0,0,.59-2.15,1.28.35-.48,1.73.62,0,.09,1.31-1.18.08,1.37,2-1.06.76L138,139.49l0,1.87-1.32,0,0-1.74-1.4,2-1.09-.74,1.37-2-1,.07-.08-1.32.77,0-.94-1.38,1.1-.75,1,1.42Zm3.84,7.08,1.29.17-.18,1.3-2.34-.29-1.68,1.6-.92-.94.92-.89-1.23-.15-.53-.87.42-1.16-.76,0,.06-1.32,1.18,0,.29-.8,1.25.47-.15.4,3.21.15.42,1.14Zm-2.86-1.17-.28.76,1.45.2.9-.88Zm9.52-5.22L144,142.71l2.3,3.29-1.08.76-1.84-2.62L142.1,147l-1.21-.51,1.55-3.61-1.81-2.6,1.09-.76,1.34,1.92,1.26-2.94-3.08.38-.67-1,1.41-2.68,1.18.62-.83,1.56L146,137l.15,1.31Z" style="fill:#e7ac63"/><line x1="201.76" y1="122.21" x2="313.29" y2="122.21" style="fill:none;stroke:#aec9b4;stroke-miterlimit:10;stroke-width:5px"/><path d="M98.77,46.87l-1.61-1.43V25.36L98.68,24l17.47.94,1,2.35-6.94,8.18,6,7.24-1,2.34Zm1.25-20v17l12.29-1.37-5.11-6.15,0-1.82,5.87-6.88Z" style="fill:#e4007f"/><path d="M138.75,45.47,136,30.23,130.48,40l-2.56-.12-4.14-9-2.61,14.63L118.34,45l3.44-19.13,2.67-.34,4.93,10.62,6.09-10.74,2.64.46L141.58,45Z" style="fill:#e4007f"/><path d="M145.66,45.93l-2.86-.15,1-20.91,2.89.15Z" style="fill:#e4007f"/><path d="M173.2,47.63l-6.39-1-1.16-1.77,3.5-12.47-4,.33L165,29.86l6-.48,1.46,1.82-3.59,12.87,4.77.7Zm-2.35-19.56L165.35,25l1.37-2.49,5.5,3Zm12.87,4.07,0,16.19-2.89,0,0-15.76-7,.88-.36-2.83,7.39-1,0-6.79h2.89l0,6.42,6.49-.85.39,2.86Z" style="fill:#e4007f"/><path d="M198.48,35.7l1.07,0-.43-4.29,1.37-1.61,3.29-.18-1.5-2.19-2.34.27-1.22,2.25-2.52-1.37,3.22-6L202,24l-.33.64,6-.73.33,2.86-2.46.3.79,1.16-2,1.37,11.41-.67,1.52,1.52-.57,9.22L215.25,41l-11.93.42,1.89,1-.25.48h8.37l.09-1.64,2.86.15-.09,1.49h4v2.86H216L216,47.36l-2.89-.15.06-1.5H203.5l-1.25,2.5-2.55-1.28.61-1.22h-2.86V42.85h4.32l.73-1.43-1,0L200,40.15l-.21-2-1.25,0Zm3.68-2.92,11.35-.42.12,2.46-11.22.43,0,.36,10.68-.27.09,2.46-10.53.28.06.45,11.11-.39.39-6.27-12.11.67Zm6.7-4.29.42-5.32,2.86.21-.06.64L219,23.2l.33,2.86-1.46.18,1.28,1.37L217,29.56l-2.68-2.92-2.52.27-.12,1.8Z" style="fill:#e4007f"/><path d="M225.65,32.21l7-8.22,2.19,1.86-6.94,8.21Zm3.07,13.11,6.52-14.64,2.67,1.19-5.47,12.29,11.74-1.64-1.64-3.35,2.59-1.31,4.25,8.62-2.58,1.27-1.25-2.46-15.3,2.07Zm14.55-20.93,2.56-1.34L251.61,34l-2.56,1.37Z" style="fill:#e4007f"/><path d="M256.75,28.37l14.12-.7-.61-4,2.86-.46.67,4.32,3.47-.18-1.07-3.08,2.71-1,1.7,4.93-1.31,1.89-5.08.27,1.43,9.1,5.72,6.23-2.13,1.92-6-6.54-.4-.76-1.55-9.83-14.42.7Zm.73,5.24,11.68-.67.15,2.83-4.44.27.22,6.24,5.14-1.68.85,2.74L258,47.6l-.86-2.74,5.36-1.73h-.25L262,36.22l-4.38.25Z" style="fill:#e4007f"/><path d="M28.61,12.66h0a27,27,0,0,1,27,27v27a0,0,0,0,1,0,0h-27a27,27,0,0,1-27-27v0A27,27,0,0,1,28.61,12.66Z" style="fill:#e4007f"/><line x1="54.64" y1="64.66" x2="341.6" y2="64.66" style="fill:#e4007f;stroke:#e4007f;stroke-miterlimit:10;stroke-width:4px"/><path d="M24.28,31.6l-.4,7.61-2.49-.12.39-7.33-7,.42-.15-2.46,7.24-.43.34-6.12,2.46.1-.3,5.87,7.15-.43.15,2.44Z" style="fill:#f7f8f8"/><path d="M22,52l-.29-3.88,26.35-2L48.42,50Z" style="fill:#2ea7e0"/><path d="M58,23.31l-11.86-9-11.59,11-3.05-3.14,11.07-10.6L34.36,5.3l2.72-3.52,8.77,6.71L54.76,0l3.05,3.24-8.4,8,11.26,8.58Z" style="fill:#faee00"/><path d="M56.24,41.74l-2.35-.9-3-7.55L52.4,31l8.09-.37,1.73,1.65v5l-.87,1.45ZM54.75,56.1,52,54.16,71.5,26.73l2.68,1.94Zm.13-21.9,1.44,3.67,2.56-1.49V34Zm18,20.12L65,53.41l-1.44-1.89.82-5.65,1.12-1.36,5.81-1.86L73.43,44l1.28,8.33Zm-5.82-4,4,.41-.66-4.33-2.92,1Z" style="fill:#00a040"/></g></g></svg>