<svg xmlns="http://www.w3.org/2000/svg" viewBox="0 0 422.23 616.16"><g id="图层_2" data-name="图层 2"><g id="图层_1-2" data-name="图层 1"><rect x="3" y="3" width="416.23" height="610.16" rx="27.59" style="fill:none;stroke:#2193af;stroke-miterlimit:10;stroke-width:6px"/><path d="M111.53,475.15l4.59,3.07,16.43-1.46.25,2.83-17,1.49-.91-.24L110.71,478l-.89,3.16-2.77-.79,4.14-14.6-4.74-.49.3-2.86,6.48.7,1.22,1.83Zm.67-13.45L107.3,458l1.7-2.31,4.9,3.68ZM132.31,466l-10-.31-3,6.76,8.49-1.4-.8-2.37,2.71-.92,2.38,7-2.74.92-.64-1.86-11.56,1.86-1.53-2,3.62-8.1-4-.12.09-2.86,17.13.55Zm-3.41-6.54-11.47-.22.06-2.86,11.47.25Z" style="fill:#77a825"/><path d="M144.3,466.72l-3.59,10.5,4.1-.43-.7-3,2.83-.67,1.71,7.42-2.77.64-.4-1.58-6.72.67-1.49-1.86,3.92-11.53-3.77.15-.12-2.89,11.47-.51.15,2.89Zm3.31-6.33-8.88-.42.09-2.86,9,.42Zm8.64,20.75-1.09-2.61,4.75-2L159,461.94l-3,.4-3.74,18.83-2.83-.54,3.56-17.9-2.53.34-.39-2.83,3.53-.46.82-4.07,2.8.57-.61,3.11,3.56-.49,1.61,1.34,1,17.19-.89,1.4Z" style="fill:#77a825"/><path d="M170.46,475,169,468l1.31-1.74,20.11-1.49,1.53,1.74-1.83,8.27-2.77-.6,1.37-6.39L172.14,469l1.12,5.42Zm9.95-1.52,9.44,5.87-1.53,2.43-10-6.27-6.57,6.36-2-2,11.14-10.77,2,2.07Zm-6.6-9.35-1.37-1-1.76-5.32,1.24-1.86,15.46-1,1.52,1.68L187.84,463l-1.4,1.15Zm.18-5.44.83,2.58,10.4,0,.55-3.34Z" style="fill:#77a825"/><path d="M197.76,468.55l1.64-.52-.12-6.12,1.34-1.49,1.79-.15,3-4.11,2.35,1.68-1.52,2.06,3.55-.33,1.56,1.4.42,16.09-1.18,1.44-9.19,1.61-1.71-1.43-.18-7.64-.88.27Zm4.53-1.4,4.84-1.5.82,2.77-5.6,1.74.15,6.81,6.36-1.09-.36-13.27-6.3.55Zm9.58-3.72,3.63-7.27,2.58,1.31-1.22,2.4h5.73L224,461.3l-.42,18-1.64,1.4-8.25-1,.34-2.89,6.69.82.36-14.84h-5.69l-1,2Zm1.1,4.9,2.1-2,4.53,4.71-2.1,2Z" style="fill:#77a825"/><path d="M243.55,479.9l-1.61-1.43V458.38l1.52-1.4,17.46.95,1,2.34L255,468.45l6,7.25L260,478Zm1.25-20v17l12.29-1.37L252,469.34l0-1.83,5.87-6.87Z" style="fill:#77a825"/><path d="M283.53,478.5l-2.77-15.25L275.25,473l-2.55-.12-4.14-9-2.62,14.64-2.83-.52,3.44-19.14,2.68-.33,4.93,10.61,6.08-10.74,2.65.46L286.36,478Z" style="fill:#77a825"/><path d="M290.44,479l-2.86-.15,1-20.9,2.89.15Z" style="fill:#77a825"/><path d="M316.6,463.65l.22,3.68,1.49-.88,1.43,2.46L317,470.52l.3,5.05-.24.95-3.5,4.71-2.34-1.73,3.19-4.26-.18-3.07-2.5,1.46-1.46-2.47L314,469l-.31-5.32h-2.89v-2.86h2.71l-.24-4.35,2.89-.19.24,4.54h2.95v2.86Zm3,9.34,1.86-.25-.21-3.92,1.37-1.52,10.68-.52,1.49,1.52L334.34,479l-1.4,1.37-9.61.18-1.49-1.33-.22-3.59-1.64.21Zm3-7.73-1.34-1.55.7-8.06,2.83.24-.52,6.6,1.1.09L332,456l2,2-4.84,4.84,5.32.36-.21,2.86Zm1.76,7.12,6-.79.37,2.86-6.18.82.12,2.4,6.94-.15.31-7.76-7.64.34Z" style="fill:#77a825"/><path d="M342.43,460.54l2.74-.18-.12-5.32,2.86-.1.12,5.24h.34l.09-.06,1.28-4.66,2.77.76-1,3.75,1.34-.1.18,2.83-2.55.19,3,4.23-2.31,1.64-3-4.2.1,4.05-2.86.09-.1-3.77-3,4.32-2.37-1.62,3-4.26-2.19.16-.18-2.86,1.67-.1-2-3L342.5,456l2.09,3.07Zm8.31,15.31,2.8.36-.4,2.83-5.05-.64-3.65,3.47-2-2,2-1.91-2.64-.34-1.16-1.88.91-2.5-1.64-.09.12-2.86,2.56.12.64-1.73,2.7,1-.33.88,6.94.31.91,2.46Zm-6.18-2.53L344,475l3.13.42,2-1.88ZM365.16,462l-4.1,9.5,5,7.12-2.35,1.64-4-5.66-2.65,6.18-2.62-1.1,3.35-7.82-3.92-5.63,2.37-1.64,2.89,4.17,2.74-6.36-6.67.82-1.46-2.1,3.05-5.81,2.55,1.34-1.79,3.38,8-.95.33,2.83Z" style="fill:#77a825"/><path d="M63.15,440.56h0a27,27,0,0,1,27,27v27a0,0,0,0,1,0,0h-27a27,27,0,0,1-27-27v0A27,27,0,0,1,63.15,440.56Z" style="fill:#77a825"/><line x1="89.18" y1="492.56" x2="376.13" y2="492.56" style="fill:none;stroke:#77a825;stroke-miterlimit:10;stroke-width:4px"/><path d="M78,530.53l2.72,1.82,9.72-.86.14,1.67-10,.88L80,533.9l-2.5-1.67L77,534.1l-1.63-.47L77.77,525,75,524.7l.18-1.69,3.83.41.72,1.08Zm.4-7.95-2.9-2.18,1-1.37,2.9,2.18Zm11.9,2.52-5.93-.18-1.8,4,5-.82-.47-1.41,1.6-.54,1.4,4.14-1.62.54-.37-1.1-6.84,1.1-.9-1.17,2.14-4.79-2.36-.07,0-1.69,10.14.32Zm-2-3.87-6.79-.13,0-1.69,6.79.14Z" style="fill:#2193af"/><path d="M97.36,525.55l-2.13,6.21,2.43-.25-.41-1.79,1.67-.39,1,4.39-1.64.38-.23-.94-4,.4-.88-1.1,2.32-6.82-2.23.09L93.22,524l6.78-.31.09,1.71Zm2-3.75-5.26-.25.06-1.69,5.29.25Zm5.11,12.28-.65-1.55,2.81-1.17-.52-8.64-1.78.24-2.22,11.14-1.67-.33,2.11-10.58-1.5.2-.23-1.68,2.09-.27.48-2.41,1.66.34-.36,1.84,2.1-.29,1,.79.61,10.17-.52.83Z" style="fill:#2193af"/><path d="M112.84,530.46l-.87-4.14.78-1,11.9-.89.9,1-1.08,4.9-1.64-.36.81-3.78-9.81.72.66,3.2Zm5.88-.9L124.3,533l-.9,1.44-5.94-3.71-3.88,3.76-1.17-1.21L119,527l1.17,1.23Zm-3.9-5.52-.81-.6L113,520.29l.74-1.1,9.15-.61.9,1-.63,3.75-.83.68Zm.11-3.23.48,1.53h6.16l.32-2Z" style="fill:#2193af"/><path d="M131,533.36l-.81-.83-.29-11.5.79-.85,12.13-.88.92.85L143.35,533l-.9.81Zm10.71-1.26.3-11.05-10.4.75.25,9.9Zm-9.4-7.56,3.49-.36,1.44-2.45,1.46.85-.81,1.38,3.35-.34.18,1.69-4.59.47-3,5.17-1.49-.85,2.39-4.1-2.23.23Zm4.57,3.22,1.21-1.19,2.66,2.72-1.22,1.19Z" style="fill:#2193af"/><path d="M155.1,523.19l5.69-.31.9,1-1.26,9.61-.92.68-3.76-.37.16-1.66,3,.31,1-7.76-5.7.3-4.85,9.13-1.49-.77,4.39-8.25-4.28.22-.09-1.71,5.31-.27,2.28-4.3,1.48.79Zm-4.55-.09-1.46-2.88,1.53-.77,1.44,2.88Zm6.24,7.74-2.41-3.4,1.39-1,2.41,3.4Z" style="fill:#2193af"/><path d="M175,527.2l4.84,5.28-1.26,1.13-5.67-6.17-2.81.32-.38,4.41,4-1.24.51,1.62-5.19,1.57-1.1-.85.47-5.33-2.59.29-.2-1.69,2.94-.33.63-7.21,1.67.16-.59,6.86,9.14-1,.18,1.69ZM172.94,525l-1-1.35,5.15-3.87,1,1.35Z" style="fill:#2193af"/><path d="M183.45,533l1.05-2.39-1.23,0,0-1.67,1.48,0v-4.21l-1.12-.09.14-1.67,1,.07v-1h-.94v-1.71h.94v-1.16h1.67v1.16l2.59,0,.07-1.21,1.7.11-.08,1.08h.81V522l-.91,0-.42,7,1,0,0,1.71-4.84-.09-1.29,3Zm3-9.85,2.41.17.07-1.3-2.48,0Zm0,2.81,2.25-.12.05-.83-2.3-.16Zm0,3,2.05,0,.09-1.44-2.14.12Zm1.4,3.28,1.1-1.3,2.13,1.78L190,534Zm6-4,0,.49V529l-.92,4.53-1.67-.29.9-4.48,0-.5-.91,0,0-1.71.81,0-.29-6,.8-.86,4.71-.4.92.86-.18,11.69-.36.68L196,533.58l-1-1.39,1.32-.86.09-7-2.78.3.09,1.89,2.18,0,0,1.71Zm-.33-7,.07,1.72,2.9-.3,0-1.68Z" style="fill:#2193af"/><path d="M213,532.57l.76-.42.52-3.54-10.89.65.85,4.21-1.68.32-1-5.16.79-1,12.91-.78.88,1-.72,5-.45.63-1.12.59Zm-11.34-12,6.23-.15-.27-.66,1.6-.65.51,1.26,6.28-.15,0,1.71-14.33.35Zm2.52,6.06L203,524.05l.72-1.18,8.64-.53.9.74.25,2.11-.74.93-7.74,1Zm1,6.64-.54-2.46.78-1,6.48-.46.93.93-.32,2.94-.85.75-5.65,0Zm.31-7.92,6.28-.79-.05-.41-6.59.38Zm1.22,6.9,4.18,0,.11-1.13-4.47.32Z" style="fill:#2193af"/><path d="M219.69,534l-.36-1.63,3.42-.74.1-2.86-2.77.23-.92-.85v-3.72l.71-.87,2.77-.45.2-2.1-3.68.43L219,519.7l4.7-.54,1,.92-.38,3.79-.7.78-2.7.45v2.09l2.8-.26.92.89-.18,4.5-.66.79ZM230.22,530v1.8l1.54-.16-.36-.86,1.59-.65,1.55,3.6-1.59.66-.48-1.13-7,.68-.18-1.65,3.24-.33v-1.9l-2.31.09-.84-.65-.83-3.33.68-1,3.3-.52v-1.15l-2.34.09-.89-.72-.39-3,.83-1,7.74-.18.84,1-.48,2.85-.81.7-2.79.11v1l3.16-.5,1,.88-.18,4.36-.82.81Zm-3.39-1.58,1.68-.06v-2l-2.13.32Zm-.12-7.83.16,1.24,5.4-.23.2-1.16Zm3.51,5.47v2.25l2.32-.09.09-2.56Z" style="fill:#2193af"/><path d="M237.29,533l1.26-4.34.23-7.72.85-.83,5.2.11-.32-1,1.62-.52.52,1.56,5.58.13,0,1.71-11.77-.25-.2,7,0,.2-1.29,4.46Zm3.24-.06,2.7-1-.94-.27.47-1.64,3.12.9,2.32-.9.18-.88-6.14.54-.16-1.71,7.27-.63.92,1-.47,2.46-.54.63-.65.25,2.47.71-.47,1.65L246,532.64l-4.79,1.84Zm.83-9.48,1.17-.11.05-1.15,1.71.09,0,.9,3-.27-.05-.58,1.69-.2.07.61,1.44-.14.15,1.69-1.39.15.18,1.4-.72.94-5.24.79-1-.88.08-1.62-.94.09Zm6.08,1.15-3.27.3,0,.83,3.4-.5Z" style="fill:#2193af"/><path d="M255,526.63l1-.31-.08-3.62.8-.88,1.06-.09,1.76-2.43,1.39,1-.9,1.23,2.1-.2.92.83.25,9.52-.7.84-5.43,1-1-.85L256,528.1l-.52.17Zm2.69-.83,2.86-.88.48,1.64-3.31,1,.09,4,3.76-.64-.21-7.85-3.73.32Zm5.67-2.2,2.14-4.3,1.53.78-.72,1.42h3.38l.87.84L270.28,533l-1,.83-4.88-.57.2-1.71,4,.48.22-8.78h-3.37l-.57,1.17Zm.64,2.9,1.25-1.17,2.68,2.79-1.24,1.21Z" style="fill:#2193af"/><path d="M276,522.16l.27,12-1.7,0-.25-10.33-.79.81-1.22-1.19,3.88-3.92,1.23,1.2Zm8,1.17-.27,5.37,1.09-.18.27,1.67-1.45.25-.2,3.77-1.71-.09.18-3.39-1.73.29-.31-1.67L282,529l.29-5.46-.9.11-3,9.72-1.62-.52,2.77-9-2.46.29-.2-1.69,5.51-.67.16-2.86,1.69.06-.14,2.61,3.6-.45.19,1.69Zm3.65,9-3.58-7.18,1.51-.77,3.56,7.2Z" style="fill:#2193af"/><path d="M291.78,520.51l6.51-.33-.32-.61,1.47-.77.69,1.29,5.52-.27.09,1.7-8.87.45-1.17,1.45,7-.5-.19-.32,1.45-.87,1.68,2.83-1.46.86-.59-1v.13l-9.72.68-.72-1.37,1.44-1.78-2.73.13Zm9.88,12.24,1.29-.45-.12-5.22-8,.56v.45l7.29.16,0,1.71-7.15-.18.06.9,6.66-.34.09,1.69-6.66.36.1,1.71-1.71.11-.1-1.73-.85,0-.09-1.71.85,0-.22-3.87.77-.88,9.76-.71.9.83.14,6.73-.55.81-1.89.65Z" style="fill:#2193af"/><path d="M311.23,534.1l-1.26-.9,1.8-8.28-2.23-.29.24-1.69,3.11.43.72,1L312,531.61l1.52-.9.86,1.44Zm1.64-11.32L310,520.4l1.08-1.31,2.88,2.39Zm2.9,11.53-1.58-.55,1.18-3.37-.28-11.25,1.71,0,.27,11.41-.06.3Zm4.54-1.13H318.6l0-13.3h1.69Zm2,.86-.16-15.22,1.69,0L324,534Z" style="fill:#2193af"/><path d="M331.18,529.72l-3.69-.48L327,527.8l2.29-2.38L327.4,525l-.52-1.28,2.89-4.57,1.44.9L329,523.6l2.16.51.43,1.4-2.16,2.25,2,.27ZM328.3,534l-.88-1.45,4.42-2.69.89,1.44Zm4.89,0-1.36-1,2.68-3.71,1.37,1Zm5.24-5.65-.29,3.53-.18.45L336.74,534l-1.35-1,1.08-1.47.23-3.08-3.11.14-.85-1.18,1-2.4-.92-.09.17-1.67,1.44.14.63-1.53-2.56-.05,0-1.69,3.24,0,.38-.88,1.58.65-.11.25,4,.05,0,1.71-4.68-.07-.7,1.67,1.74.17.78.91-.16,2,2.53-.13.09,1.7Zm-2.91-3.17-.67,1.62,2-.09.11-1.38Zm6.3,8.46-3.33-1.76.81-1.5,3.33,1.77Z" style="fill:#2193af"/><path d="M352.76,534.89l-1.26-.67,1.31-2.34-1.2-.5.54-1.35,2,.79.36,1Z" style="fill:#2193af"/><path d="M377.91,529.35l-3.41,0,.35,3-.63.9-3.39.86-.43-1.62,2.66-.68-.27-2.47-9.16,0v-1.71l9,.05-.11-1-7-.13-.85-.9L365,520l.83-.77,9.79-.24.83,1.05-.66,3-.81.65-7.44.24,0-1.7,6.76-.19.29-1.3-7.92.16-.21,3.93,9.55.14.22-1.22,1.67.3-.36,2-.86.67-2.41,0,.11,1,3.6,0Zm-10,4.46-2.79-3.29,1.27-1.12,2.79,3.33Z" style="fill:#2193af"/><path d="M45.84,546.5l-1.62.22,0,2.35,2-.19.14,1.69-2.12.2,0,2,2.55-.63.42,1.63-7.17,1.77-.39-1.66,2.89-.7v-2.21l-2.06.18-.16-1.69,2.2-.2,0-2.27-2.1.29L39.52,546l1.35-2.82-1.63.12-.17-1.67L47,541l.12,1.7-4.28.35-1.08,2.33,3.36-.47-.34-.76,1.57-.72,1.44,3.19-1.57.68Zm1.21,8.24,2.48-4.55-1.74-2,1.29-1.09,1.32,1.53,1.8-3.3-3.57-.75L48,543.39l1-2.63,1.58.61L50,543.08l3.69.81.56,1.22L51.57,550l2.88,3.34-1.28,1.12-2.47-2.86-2.18,4Z" style="fill:#2193af"/><path d="M57.07,554.94l-1-.84V542.22l.9-.83,10.33.55.58,1.39-4.11,4.84,3.55,4.29-.56,1.38Zm.74-11.82v10l7.27-.81-3-3.64,0-1.07,3.47-4.07Z" style="fill:#2193af"/><path d="M80.73,554.11l-1.64-9-3.26,5.76-1.51-.08-2.45-5.32-1.55,8.65-1.67-.3,2-11.33,1.59-.19,2.91,6.28,3.6-6.35,1.57.26,2.05,11.33Z" style="fill:#2193af"/><path d="M84.81,554.38l-1.69-.09.61-12.36,1.71.09Z" style="fill:#2193af"/><path d="M91.29,545.33l.13,2.18.88-.53.85,1.46-1.63,1,.18,3-.14.55-2.07,2.79-1.38-1L90,552.19l-.1-1.82-1.48.86-.86-1.46,2.21-1.29-.18-3.15H87.87v-1.69h1.6l-.14-2.58L91,541l.14,2.68h1.75v1.69Zm1.76,5.53,1.1-.15L94,548.39l.81-.9,6.31-.31.89.9-.26,6.34-.82.81-5.69.11-.88-.79-.13-2.13-1,.13Zm1.77-4.58-.79-.91.41-4.77,1.67.14-.3,3.91.65.05,3.92-3.91,1.19,1.21-2.86,2.86,3.15.22-.13,1.69Zm1,4.22,3.53-.47.22,1.69-3.66.49.07,1.42,4.11-.09.18-4.59-4.52.2Z" style="fill:#2193af"/><path d="M106.57,543.49l1.62-.1-.07-3.16,1.69-.05.07,3.1h.2l.06,0,.75-2.75,1.64.45-.61,2.21.79,0,.11,1.67-1.51.11,1.76,2.5-1.37,1-1.76-2.48,0,2.39-1.69.06,0-2.23-1.79,2.55-1.4-.95,1.76-2.52-1.29.09-.11-1.7,1,0-1.21-1.76,1.41-1,1.24,1.82Zm4.92,9.06,1.65.21-.23,1.68-3-.38-2.16,2.05-1.17-1.21,1.17-1.13-1.57-.2-.68-1.11.54-1.48-1-.05.07-1.7,1.51.08.38-1,1.6.6-.2.52,4.11.18.54,1.46Zm-3.66-1.5-.36,1,1.86.26,1.15-1.12ZM120,544.38,117.59,550l3,4.21-1.39,1-2.35-3.35-1.57,3.65-1.55-.65,2-4.62-2.32-3.33,1.4-1,1.71,2.47,1.62-3.76-3.94.49-.86-1.25,1.8-3.43,1.51.79-1.06,2,4.73-.56.2,1.67Z" style="fill:#2193af"/><path d="M123.87,541.33l13.95-.34,0,1.69-4.63.11-2.84,2.94,1.63.1-.09,1.37,6.38,2.38-.58,1.56-5.9-2.16-.4,6.32-1.69-.11.61-9.41-5.85,6.07-1.22-1.17,7.52-7.82-6.89.16Z" style="fill:#2193af"/><path d="M141.65,545.31l1.82-4.59,1.59.63-.4,1,4-.18.07,1.71-2.07.09.53.67-1.35,1.06L144.55,544l-.57,0-.74,1.89Zm.19,4.9,4.73-4.79,1.2,1.19L145.45,549l.6,6.12-1.69.18-.47-4.69-.83.84Zm4.75-1.91,5.95-.86,0-1.25h1.71l0,1,1.43-.21.25,1.71-1.69.25-.06,5.83-.92.85-3.18-.24.12-1.71,2.27.18.06-4.66-5.69.83Zm1.62-3.49,2.52-3.89,1.42.92-.15.23,3.84-.25.11,1.71-1.44.09,1.44,1.15-1.07,1.35L152,543.78l-1.1.07-1.22,1.89Zm0,6.3,1.44-.92,1.53,2.39-1.43.92Z" style="fill:#2193af"/><path d="M159.35,546.79l7.76-6,1,1.35-.85.65,6.95,2.83-.63,1.56-7.9-3.17-5.33,4.11Zm4.23,8.39-.81-.69-.72-3.65.77-1,7.49-.65.92,1-.74,4.61-.88.72Zm-.7-7.94,7.43-1.14.25,1.7-7.41,1.11Zm6.06,6.51.42-2.79-5.44.47.4,2.07Z" style="fill:#2193af"/><path d="M177.46,553.34l6.33-.18-.57-11.77,1.71-.08.2,4.36,5-.79.27,1.67-5.22.85.27,5.71,6.63-.2,0,1.69-14.64.41Z" style="fill:#2193af"/><path d="M203.92,542.92l-.94,1.92,6.19-.14.87.92-.9,8.89-.87.76-11.45-.2-.82-.83-.31-8.37.85-.88,4.53-.09,1-2-6.48-.12,0-1.71,14.19.26,0,1.7Zm-4.32,10.49-.22-6.78-1.94,0,.21,6.72Zm1.49-6,3.33.41.18-1.33-3.53.09Zm.11,3.15,2.93-.49.08-.56-3.07-.41Zm.09,2.88,2.41,0,.2-1.62-2.65.42Zm5-7-.94,7.06,2.15,0,.71-7.15Z" style="fill:#2193af"/><path d="M213,548.23l1-.31-.08-3.62.8-.88,1.06-.09,1.76-2.43,1.39,1-.9,1.23,2.1-.2.92.83.25,9.52-.7.84-5.43,1-1-.85-.11-4.52-.52.17Zm2.69-.83,2.86-.88.48,1.63-3.31,1,.09,4,3.76-.65-.21-7.84-3.73.32Zm5.67-2.2,2.14-4.3,1.53.78-.72,1.42h3.38l.87.84-.25,10.62-1,.83-4.88-.58.2-1.7,4,.48.22-8.78h-3.37l-.57,1.17Zm.64,2.9,1.25-1.17,2.68,2.79-1.24,1.21Z" style="fill:#2193af"/><path d="M234.63,548.35l-.17,1,3.55,4.26-1.32,1.08-2.57-3.11-.59,3.83-1.69-.27,1-6.58-1.42.19-.23-1.69,1.94-.27.38-2.37-2.07-.13.09-1.69,2.23.12.36-2.23,1.67.27-.32,2.05,1.26.06-.07,1.71-1.46-.07-.33,2.05,2.33-.33.21,1.68Zm10.51,2.79-1.68-.23,1.08-8-5.31.89.36,7.09-1.67.09-.52-10,1.69-.09,0,1.16,6.27-1,1,1ZM240,555.79l-1.62-.47,3.24-10.66,1.63.49Zm5.47-.63-3.3-.31-.75-.88.12-2.72,1.7.07-.09,1.93,2.46.23Z" style="fill:#2193af"/><path d="M249.12,544.72l3.4-3.89,1.27,1.11-3.4,3.89Zm2.17,10.65.36-7.74-1,1.17-1.29-1.08,2.61-3.09,1.51.57L253,555.44Zm3.37-10.26,3.38-.27,0-.9-2.89.18-.09-1.67,2.93-.18,0-1.57,1.71,0,0,1.49,3.1-.22.9.91-.09,1.53.43,0,.12,1.71-.66.05-.13,2.16-.84.8h-2.65l0,.81,3.8-.12,0,1.69-3.79.14,0,.92,4.39-.38.15,1.7-4.5.37,0,1.41-1.67,0,0-1.29-4.44.38-.15-1.7,4.54-.38,0-1-3.53.11,0-1.71,3.51-.11,0-.87h-4.3V547.4l4.25,0,0-.84-3.31.27Zm5.06-1.26v.85l2.13-.18.05-.81Zm2,3.51.06-1.11-2,.16,0,1Z" style="fill:#2193af"/><path d="M274.8,556.49l-1.26-.67,1.31-2.34-1.2-.5.54-1.35,2,.79.36,1Z" style="fill:#2193af"/><path d="M285,545l4.59-4.28,1.17,1.22-2.09,2,.25,11.79-1.71,0L287,545.42l-.81.77Zm4.52,9,11-.65.12,1.71-11,.65Zm.86-3-.09-3-.68,0,.09-1.71.56,0-.06-2.25.74-.88,8.28-1.08,1,.87-.16,7.72-.83.83-7.92.36Zm1.59-4.66,5.63.21-.07,1.71L292,548l.05,2,6.25-.31.14-5.9-6.53.84Z" style="fill:#2193af"/><path d="M303.6,554.71l3.31-4.31,1.35,1.07L305,555.73Zm.09-6.36,14.22-.73.09,1.69-5.33.27.11,1.08,3.13-.69.36,1.66-4,.86-1-.73-.2-2.09-7.2.38Zm.65-4.5.61,0-.16-1.71.79-1,9.68-.57.91.84v5l-.85.85-9.22.09-.86-.76-.11-1.08-.65,0Zm2.32-.16,7.11-.56.15,1.7-7.1.54,0,.27,7.61-.08v-3.24l-7.9.49Zm1.24,10.57.25-1.7,9.33,1.37-.23,1.7Z" style="fill:#2193af"/><path d="M329.5,551.36l2.59-1.28-.86-3.26-5,.65.12,1.73,1.77-.68.59,1.58-2.23.86.12,1.6-.28.73-2.92,2.43-1.1-1.3,2.59-2.16-.05-.67-2.46,1-.63-1.57,2.95-1.13-.16-2.16-3,.37-.22-1.67,3.08-.39-.16-2.07-2.2,1.06-.74-1.51,5.82-2.85.74,1.53-2,1,.2,2.66,4.7-.61-.88-3.31,1.63-.42.94,3.51,1.76-.23-1-2.05,1.53-.74,1.52,3.11-.67,1.21-2.72.36.72,2.7,1.28-.63.76,1.53-1.59.77,1.08,4-1.63.45-1-3.72-2.3,1.11Z" style="fill:#2193af"/><path d="M341.4,555.48l-.59-9.88-.74.9-1.33-1.08,4-4.88,1.29,1.08-1.67,2,.69,11.71Zm3.19,0-.27-11.33,1.69,0,.27,11.32Zm2.41-10.8-2.5-3,1.33-1.08,2.46,3Zm4.07,11.09-.44-1.64,2.33-.61.19-10.5-4.55.42-.18-1.68,5.53-.52.92.85-.22,12.11-.63.81Z" style="fill:#2193af"/><path d="M370.36,543.19v10.6l-.77.83-6.93.72-.15-1.68,6.16-.63v-9.9l-11.43-.43.07-1.71,15.05.56,0,1.71Zm-10.69,8.51-1-6.1.88-1,6.93.29.78,1-1,5.35-.78.68-4.86.45Zm1.53-1.06,3.47-.31.74-3.78-4.91-.18Z" style="fill:#2193af"/><path d="M375.62,554.13l.38-13.08,1.69.05-.31,11.11,2.92-2.61,1.13,1.26L377,554.78ZM379.87,542l1.56-.69,2.13,4.74-1.55.7Zm1.2,12.65L387.3,541l1.55.72L386,548l4,5-1.33,1.06-3.48-4.36-2.57,5.66Z" style="fill:#2193af"/><path d="M41.54,572.51l-.88,1.22-1.37-1,2.52-3.49-1.69,0,0-1.69,2.87,0,.46-.65-1.62.05,0-1.71,2.95-.09.47-.66-3.76.36-.15-1.69,11.74-1.14.16,1.69-5.76.56-.57.81,5.86-.2,0,1.7-7.16.25-.53.74,9.13.07,0,1.71-10.33-.11-2.25,3.13,1.24-.12-.07-1.19.79-.9,8.8-.61.9.88-.3,6.17-.83.81H44l-.83-.77L43,574l-1.28.12Zm9.81,3.26.2-4.45-7,.51,0,.3,6.19-.59.16,1.67-6.25.6,0,.16,6-.16,0,1.56-5.9.16,0,.24Z" style="fill:#2193af"/><path d="M59.05,569.38v-5h1.71v4.07l3-.24-.09-5.68,1.71,0,.09,5.58,2.88-.24.54-3.11,1.69.29-.67,3.78-.77.7-3.65.27.09,5.4,3.79,0,.13-4.15,1.71.05-.18,5-.83.81-10.87.1-.85-.81L58.28,572l1.69-.09.18,3.38,3.76,0-.09-5.29-3.85.28Z" style="fill:#2193af"/><path d="M76.15,566.17l5.64-4.26,1,1.35-.63.48,6.7.89.27,1.62-4.25,2.14L90.5,570l-.45,1.64-7.38-2.11L75.81,573,75,571.47l5.22-2.63-1.6-.47.45-1.66,3.4,1L85.93,566l-5.67-.74-3.08,2.34Zm2.27,10.53.2-4.14.88-.81,8,.06.86.84v3.19l-.77.83-8.26.93Zm1.75-.91,6.51-.72v-1.55l-6.39-.06Z" style="fill:#2193af"/><path d="M97.56,568.93l0,1.6,2.65,2.12L99.19,574l-1.51-1.21.15,4.45-1.71,0L96,572.42,94.33,577l-1.6-.6,2.56-7.12-1.93.3L93.09,568l2.72-.45-.07-2.85-2.45.25-.14-1.69,6.53-.66.18,1.69-2.43.25.07,2.74,2.25-.38.27,1.67Zm7.83,5.45v3h-1.69l0-2.81-2,.18-.94-.81-.4-7.45.89-.9,2.39.09,0-3.47h1.69l0,3.54,2.67.09.81,1-.81,6.69-.78.74Zm-3-1.44,1.26-.11,0-5.47-1.55-.05Zm2.91-5.51,0,5.24,1-.09.62-5.09Z" style="fill:#2193af"/><path d="M114,565.36l.27,12-1.7,0L112.35,567l-.79.81-1.22-1.19,3.88-3.92,1.23,1.2Zm8,1.17-.27,5.37,1.09-.18.27,1.67-1.45.25-.2,3.77-1.71-.09.18-3.39-1.73.29-.31-1.67,2.13-.36.29-5.46-.9.11-3,9.72L114.8,576l2.77-9-2.46.29-.2-1.69,5.51-.67.16-2.86,1.69.06-.14,2.61,3.6-.45.19,1.69Zm3.65,9-3.58-7.18,1.51-.77,3.56,7.2Z" style="fill:#2193af"/><path d="M129.78,563.71l6.51-.33-.32-.61,1.47-.77.69,1.29,5.52-.27.09,1.7-8.87.45-1.17,1.45,7-.5-.19-.32,1.45-.87,1.68,2.83-1.46.86-.59-1v.13l-9.72.68-.72-1.37,1.44-1.78-2.73.13ZM139.66,576l1.29-.45-.12-5.22-8,.56v.45l7.29.16,0,1.71L133,573l.06.9,6.66-.34.09,1.69-6.66.36.1,1.71-1.71.11-.1-1.73-.85,0-.09-1.71.85,0-.22-3.87.77-.88,9.76-.71.9.83.14,6.73-.55.81-1.89.65Z" style="fill:#2193af"/><path d="M150.15,572.69,150,575l1.76.31-.28,1.67-2.54-.43-.7-.9.21-2.81-1.24.09-.14-1.69,1.51-.11.14-2h-1.28v-1.71h4.36v1.71h-1.37l-.14,1.84,1.15-.09.11,1.69Zm-.92-7-.55,1.33-1.55-.65,1.73-4.14,1.58.65-.43,1,1.91-.2.18,1.69Zm3.87,11.19-.1-2.46-1.26.36-.47-1.62,1.64-.47-.38-8.55.65-.88,3.06-.69.37,1.64-2.37.54.07,1.44,1.48-.29.32,1.66-1.73.34.07,1.53,1.48-.68.72,1.56-2.11,1,.06.91,1.53-.45.47,1.64-1.93.56.14,2.84Zm6.72-2.84,2.63,1.89-1,1.37-2.56-1.86-1.22,1.86-1.43-.94,1.26-1.91L157,574l1-1.37.48.36,1.42-2.14-2.39,0v-1.68l4-.05.7,1.33Zm.72-5.49-.9-.9.11-3.37-1.07,0-.48,3.94-1.69-.22.59-4.68.86-.75,2.69.07.82.88-.1,3.28.82,0,.13,1.69Z" style="fill:#2193af"/><path d="M169,568.87l-.24-.18-.14,2.2,2.25,3.29-1.4,1-1.39-2-1.08,4-1.64-.41,1.55-5.8,0-.3-1,.27-1.49-5.33,1.64-.49,1,3.64.44-6.12,1.69.11-.24,3.51.56-.71,1.32,1.08Zm2.68,8.21-1.4-1,2.68-3.69,1.37,1Zm5.2-5.65-.27,3.53-.16.41-1.24,1.69-1.37-1,1.1-1.5.25-3.06-3.13.15-.83-1.17,1-2.4-.92-.09.16-1.67,1.44.14.63-1.55-2.59,0,0-1.69,3.25,0,.38-.88,1.55.65-.11.25,4,0,0,1.69-4.7,0-.7,1.67,1.76.17.76.9-.16,2,2.57-.12.09,1.71Zm-2.9-3.17-.66,1.62,2-.09.12-1.4Zm6.32,8.46L177,575l.78-1.51,3.36,1.78Z" style="fill:#2193af"/><path d="M187.66,571.5l3.77,3.87-1.21,1.21-3.35-3.48-2,4-1.53-.75,2.28-4.59-2.05-2.14,1.21-1.17,1.63,1.71,1.89-3.78-4.35-1.19.45-1.62,5.34,1.44.54,1.19Zm9.15-5.79.81,10.24-.7.9-4.41.77L192.2,576l3.65-.69-.73-9.41-4.22.41-.14-1.67,4.23-.42-.16-2.17,1.69-.11.16,2.12,1.37-.14.14,1.67Zm-3.21,8-2.7-5.22,1.52-.77,2.7,5.24Z" style="fill:#2193af"/><path d="M209.57,564.3l.48,4.3,6-.55.17,1.69-5.93.56.54,4.59-.63.93-4.41,1.23-.45-1.64,3.73-1-.47-3.94-7.07.65-.16-1.69,7-.65-.52-4.48-4.66-.09,0-1.68,11.63.2,0,1.69Z" style="fill:#2193af"/><path d="M222,565.36l.27,12-1.7,0L220.35,567l-.79.81-1.22-1.19,3.88-3.92,1.23,1.2Zm8,1.17-.27,5.37,1.09-.18.27,1.67-1.45.25-.2,3.77-1.71-.09.18-3.39-1.73.29-.31-1.67,2.13-.36.29-5.46-.9.11-3,9.72L222.8,576l2.77-9-2.46.29-.2-1.69,5.51-.67.16-2.86,1.69.06-.14,2.61,3.6-.45.19,1.69Zm3.65,9-3.58-7.18,1.51-.77,3.56,7.2Z" style="fill:#2193af"/><path d="M239,577.48l-1.44-.88,1.89-3.12-.11-10.17.8-.86,11.17-.67.09,1.71-10.36.6.12,9.61-.12.45Zm8.37-10.12v1.24l3.8.06.85,1-.85,4.35-1.66-.32.63-3.35-6.48-.11.22,3.62-1.71.09-.23-4.55.84-.87,2.88.06v-1.08l-3.8.3-.14-1.69,3.94-.32v-1h1.71v.84l4.43-.36.14,1.68Zm-4,10.41L242,576.65l5.46-6,1.26,1.12Zm7.38-.09-3.6-3.15,1.14-1.28,3.56,3.15Z" style="fill:#2193af"/><path d="M255,569.83l1-.31-.08-3.62.8-.88,1.06-.09,1.76-2.43,1.39,1-.9,1.23,2.1-.2.92.83.25,9.52-.7.84-5.43,1-1-.85L256,571.3l-.52.17Zm2.69-.83,2.86-.88.48,1.64-3.31,1,.09,4,3.76-.64-.21-7.85-3.73.32Zm5.67-2.2,2.14-4.3,1.53.78-.72,1.42h3.38l.87.84-.26,10.62-1,.83-4.88-.57.2-1.71,4,.48.22-8.78h-3.37l-.57,1.17Zm.64,2.9,1.25-1.17,2.68,2.79-1.24,1.21Z" style="fill:#2193af"/><path d="M273.83,562.93l13.95-.34,0,1.69-4.63.11-2.84,2.94,1.63.1-.09,1.37,6.38,2.38-.58,1.56-5.9-2.16-.4,6.32-1.69-.11.61-9.41-5.85,6.07-1.22-1.17,7.52-7.82-6.89.17Z" style="fill:#2193af"/><path d="M301.08,575.34l2.83-1.7-.58-9.19-9.5.19-.25,11.7h-1.7l.26-12.53L293,563l11.16-.23.87.79.65,10.53-.44.75-3.24,2Zm-6.75-9.47,7.65-.81.18,1.69-7.65.81Zm1.57,8-.79-.75-.38-3.75.75-.91,6-.63.94.91-.4,4.74-.9.75Zm4.46-1.36.24-2.88-4.11.43.24,2.18Z" style="fill:#2193af"/><path d="M315.86,566.35l-2.16.11,1.42.24-.23,1.44-2.63-.44.18-1.17-1.24.06.41,3.42-1.69.2-.52-4.32.81-.94,5.61-.27v-.58l-4,.27-.11-1.67,9.72-.68.14,1.69-4.08.29v.61l5.74-.29.88,1-.86,4.7-1.66-.33.67-3.63-4.74.23.09,3.58-1.69.06Zm1.6,10.79.63-2.76-2.43.07.06,2.7-1.68,0-.07-2.68-2.3.07.18,2.63-1.68.11-.23-3.51.81-.9,4.93-.17.22-.64-5.33.32-.09-1.71,12.11-.72.11,1.67-5,.31-.23.72,5.4-.18.88.85v2.14l-.25.61-1.3,1.35L321,576.25l1.06-1.09v-.92l-2.25.07-.72,3.2Zm-5.2-7.67.22-1.44,2.64.45-.23,1.42Zm6.1-1.77.22-1.44,2.63.44-.22,1.44Zm0,1.75.22-1.44,2.63.45-.22,1.4Z" style="fill:#2193af"/><path d="M328.57,565l5.43-.31v-2.32h1.7v2.22l3.47-.2-.77-1,1.35-1,1.72,2.27-.63,1.35-5.14.31v2.34l1.83,1.6,2.65-2.88,1.26,1.15-2.61,2.84,3.44,3-1.12,1.28-5.45-4.75v5.38l-1,.83-3.24-.78.4-1.67,2.17.54v-2.16l-6.08,2.66-.68-1.56L334,571.2v-4.76l-5.34.31Zm.29,3.58,1.08-1.31,2.93,2.41L331.79,571Z" style="fill:#2193af"/><path d="M345.58,574.81l-.29-9.61.86-.88h3l.86.88-.3,9.45-.81.83-2.43.16Zm1.67-.91.79-.06.27-7.83L347,566Zm6.91-.26,2.63-1.72-.77-4-2.43.3.05,1.64.85-.29.54,1.6-1.33.45.07,1.89-.13.47-1.91,3.17-1.47-.86,1.8-3,0-1.12-1,.34-.56-1.6,1.53-.52-.05-2-1.32.16-.2-1.69,1.46-.18-.07-1.78-.76.23-.5-1.62,4-1.19L355,564l-1.51.45.07,2.09,2.15-.27-.62-3.15,1.66-.3.65,3.25,2.61-.32.21,1.67-2.5.33.63,3.15.92-.6.92,1.43-1.48,1,.81,4-1.67.34-.67-3.34-2,1.35Zm3.19-10.31,1.37-1,1.51,2.11-1.37,1Z" style="fill:#2193af"/><path d="M363.07,576.85l-.23-2.86,1.91-.17.23,2.88Zm2-4.83-1.91-.23,1.19-9.25,1.93.29Z" style="fill:#2193af"/><path d="M93.13,431.68a9.27,9.27,0,1,0-9.26-9.26,9.27,9.27,0,0,0,9.26,9.26Z" style="fill:#f7c479"/><path d="M95,456.33l-17-7.6c-1.85-.93-2.78,1.85-3.71,3.7s-7.59,13.35-7,15.38a3.73,3.73,0,0,0,3.52,2.6,2.29,2.29,0,0,0,1.11-.19l22.8-7a3.55,3.55,0,0,0,2.59-3.33A3.92,3.92,0,0,0,95,456.33Z" style="fill:#a41f24"/><path d="M90.91,433.91l-4.08-1.86a5,5,0,0,0-6.48,2.41l-22,47.44a3.79,3.79,0,0,0,1.85,5,5.29,5.29,0,0,0,1.67.37,3.49,3.49,0,0,0,3.33-2s17.79-24.64,19.27-27.61,9.08-17.23,9.08-17.23a5,5,0,0,0-2.59-6.48Z" style="fill:#e94c37"/><path d="M116.3,434.83a3.78,3.78,0,0,0-5.19-.55l-9.27,7.78L90,435.57a4.4,4.4,0,0,0-6.11,1.67c-1.48,2.41-.74,5.37,1.48,6.3l15.38,6.3a5.29,5.29,0,0,0,1.67.37,3.9,3.9,0,0,0,2.41-.93L115.93,440a3.76,3.76,0,0,0,.37-5.19ZM62.93,448.54l6.3-9.45,8.52,1.12,2.78-5.75a4.71,4.71,0,0,1,3.89-2.78h-17a3.64,3.64,0,0,0-3.15,1.67l-7.41,11.12a3.67,3.67,0,0,0,1.11,5.19,2.76,2.76,0,0,0,1.85.55A3.86,3.86,0,0,0,62.93,448.54Z" style="fill:#f7c479"/><path d="M111.22,241.09l4.39-.24-1.77-1.74,2-2.07,2.74,2.71-1,1,5.57-.34,2.19-3.16,2.38,1.67-.89,1.28,5.18-.31.18,2.83-5.51.34-1.49,5h.94l2.86-4.93,2.47,1.43-2,3.47,3.32,0,0,2.89-23.28.15v-2.89h2.83l-1.16-1.46,2.23-1.77,2.55,3.2h1l-.1-4.47-5.56.3Zm-.85,14.64,1.52,0-.3-1.59,1.31-1.7,17.19-1.19,1.52,1.62-1,8.12-1.43,1.22-14.81-.09L113,261l-.49-2.4-2,0Zm17.5,3.62.67-5.15-13.82,1,.09.49,11.81-.22.09,2.89-11.35.22.15.73Zm-8-11.29h2.34l1.43-4.84-3.87.21Z" style="fill:#2193af"/><path d="M153,255.42l-2.83-.09.15,2.95-2.89.15-.15-3.22-1,0,.13-2.89.7,0-.31-7,1.43-1.52,3.11-.09-.8-1,2.2-1.85,1.79,2.13,2.62-2.22-8.4-.76.24-2.83,11.9,1.06.79,2.53-3.19,2.64,2.73-.09,1.5,1.49-.4,10.65-.49,1L160.09,258l3.74-.46.37,2.83-16.1,2-1.09-.3-3.35-2.83-2.22,2.58L139.28,260l2.58-3,1.1-9.88-3.8-.67.54-2.83,5.08.91,1.16,1.58-1.16,10.38,3.59,3L159,258.19l-1.46-1.67,1.95-1.77.3-8.49-4.26.13,0,1.39,3.37-.15.12,2.89-3.37.16.06,2,2.55.09-.09,2.87-2.34-.07.06,2-2.89.09Zm-12.78-16.95,2.34-1.58,3.17,4.57L143.35,243ZM149.8,248l2.93-.12-.07-1.4-2.92.09Zm.22,4.44,2.86.09-.06-1.76-2.89.12Z" style="fill:#2193af"/><path d="M169.64,260.29,183.3,237.5l2.44,1.49-13.66,22.76ZM181,249.73l2-2.07,11.53,10.84-2,2.09Z" style="fill:#2193af"/><path d="M199.52,261.08l-1.61-1.43V239.57l1.52-1.4,17.46.94,1,2.35-6.94,8.18,6,7.24-.94,2.35Zm1.25-20v17l12.29-1.37L208,250.52l0-1.82,5.87-6.88Z" style="fill:#2193af"/><path d="M239.5,259.68l-2.77-15.24-5.5,9.73-2.56-.12-4.14-9-2.61,14.63-2.83-.52L222.52,240l2.68-.34,4.93,10.62,6.09-10.74,2.64.46,3.47,19.13Z" style="fill:#2193af"/><path d="M246.41,260.14l-2.86-.15,1-20.91,2.89.15Z" style="fill:#2193af"/><path d="M266.46,249.82l-.15,8.37,9.34-.36.12,2.86-24.83.94-.12-2.83,5.33-.21-1.83-12.39,2.86-.42L259,258.5l4.38-.19.27-17.52-11.17-.31.1-2.89,22.12.67-.07,2.83-8.09-.21-.09,6.08H274v2.86Z" style="fill:#2193af"/><path d="M281.34,247.75l.7-5.53,1.4-1.25,2.16,0-1.28-2.43,2.5-1.31,2,3.77,3.81,0,.27-3.95,2.86.15-.24,3.83,3.1,0,3-4.08,2.28,1.74-1.73,2.37h2.5l1.46,1.52-.28,4.42-2.86-.16.15-2.92-18.43-.15-.49,4.23Zm10,14.34.15-5.42L285,257l.52,4.11-2.83.4-.73-5.66,1.37-1.65,8.33-.36,0-1.49h-4.9l-1.43-1.64.58-4.42,1.34-1.24,12.69-.67,1.49,1.27.61,5.09-1.4,1.61h-6.09l0,1.37,9-.43,1.49,1.52-.39,4.9-1.07,1.25-3.29.88-.73-2.77,2.32-.61.18-2.25-7.64.37-.18,5.6ZM299,249.46l-.28-2.16-10.1.48-.24,1.68Z" style="fill:#2193af"/><path d="M312.8,262.91l-1.52-2.38,8.33-5.23,1.53,2.43Zm6.63-17.74-1-2.16-6.18.36-.15-2.89,5-.27-.67-1.49L319,237.5l1.15,2.53,8.22-.46,1.31-3.29,2.67,1.07-.82,2,5.11-.31.16,2.83-6.46.4-1.24,3-2.65-1.06.73-1.8-5.72.34L322,244Zm-.27,4.71-6.7-2,.83-2.77,6.69,2.07Zm.12,4.51-6.48-.46.18-2.83,6.51.46Zm13.63,8.21-8.55-1.85-1.12-1.22L321.8,248l1.37-1.58,11.05-.58,1.49,1.55-.46,5.26-1.06,1.25-6.3,1.67-.7-2.76,5.33-1.4.18-2.59-7.85.37,1.12,9,6.48,1.46,2-4.05,2.59,1.25-2.5,5Z" style="fill:#2193af"/><path d="M345,262.33,343.59,261l-1.16-21.82,1.37-1.52,21.42-.79,1.49,1.52L365,260.72,363.61,262Zm.34-21.82,1,19,15.94-.31,1.4-19.38Zm15,18-2.8-.7.85-3-3.62.16-.28,3.34-2.83-.27.25-3-4,.15-.12-2.86,4.38-.18.12-1.74-3.47.09-.09-2.86,3.81-.09.18-2.13-5.39-.12.09-2.86,5.54.15.18-2.16,2.86.22-.18,2,5.54.13-.06,2.86-5.72-.13-.15,2,4.65-.12.06,2.86-5,.12-.15,1.67,5.2-.24,1.43,1.83Z" style="fill:#2193af"/><path d="M64.76,221.75h0a27,27,0,0,1,27,27v27a0,0,0,0,1,0,0h-27a27,27,0,0,1-27-27v0a27,27,0,0,1,27-27Z" style="fill:#2193af"/><line x1="90.79" y1="273.75" x2="377.74" y2="273.75" style="fill:none;stroke:#2193af;stroke-miterlimit:10;stroke-width:4px"/><path d="M199.29,306.48l-.08,4.81,5.37-.21.07,1.65-14.28.54-.07-1.62,3.06-.13-1.05-7.12,1.65-.25,1.06,7.32,2.52-.11.16-10.08-6.42-.17.05-1.66,12.73.38,0,1.63-4.66-.12-.05,3.5h4.31v1.64Z" style="fill:#aec9b4"/><path d="M207.85,305.29l.41-3.18.8-.72,1.24,0-.73-1.4,1.43-.76,1.16,2.17,2.19,0,.15-2.27,1.65.08-.14,2.21,1.78,0,1.72-2.35,1.31,1-1,1.36h1.44l.84.88-.16,2.54-1.64-.09.08-1.68-10.6-.09-.28,2.43Zm5.78,8.24.09-3.11-3.78.17.29,2.37-1.62.23-.42-3.26L209,309l4.8-.21,0-.85H211l-.82-.95.33-2.54.77-.71,7.3-.39.85.74.35,2.92-.8.93h-3.5l0,.78,5.2-.24.86.87-.23,2.82-.61.72-1.89.51-.42-1.6,1.33-.34.1-1.3-4.39.21-.11,3.22Zm4.37-7.26-.15-1.24-5.81.28-.14,1Z" style="fill:#aec9b4"/><path d="M334.86,308.43l3.37-4.19,1.28,1-2,2.47h.93l-.14,9.86-1.64,0,.1-8.91-.63.79Zm3.76,9,1.12-5.27-.14-5.91.79-.86,3.09-.14-.59-1,1.42-.82,1.05,1.73,3.57-.17.87.84-.07,3-.82.8-7.58-.07.07,2.63,0,.21-1.13,5.35Zm9.47-9.43.05-1.31-6.88.33,0,.91Zm-4.2,8-.49,0,.1,2.11-1.66.06-.28-6.57.73-.84,6.58-.61.91.84-.22,6.63-1.65,0,.07-1.86-.49,0,0,1.78h-1.66l0-1.68h-.32l.13,2-1.63.09Zm-.56-1.63.45,0-.12-2-.42,0Zm2.1-.12.43,0,0-2.1-.58.06Zm2.11-2.29v2.19l.5,0,.09-2.22Z" style="fill:#e7ac63"/><path d="M354,310.49l.74-.05-.18-1.16.79-1,3.73-.16v-.36l-5.48.24-.09-1.64,5.57-.27v-.45l-4,.3-.11-1.63,10.49-.83.12,1.65-4.86.39v.5l5.8-.28.09,1.65-5.89.28v.38l5-.21.85.95-.56,4-.82.72-4.5.09V314l4.2-.14,0,1.62-4.22.16v.65l5.83.1-.06,1.63L353,317.82l0-1.66,6,.12v-.56l-4,.14L355,314.2l4.08-.12v-.39l-3.06.06-.84-.7-.16-1-.91.07Zm2.4-.16,2.68-.19v-.3l-2.73.11Zm.3,1.75,2.38,0v-.28l-2.42.17Zm4-.43V312l3.78-.08.34-2.33-4.12.17V310l3.4-.25.1,1.63Z" style="fill:#e7ac63"/><path d="M68.72,314.39l6,1.68,5.51-.28.09,1.67-5.67.28-.26-.06-6.22-1.75-.8,2.28-1.56-.54,2.91-8.16-2.51-.58.35-1.61,3.43.77.62,1.09Zm.93-7.49-2.8-2.22,1-1.29,2.8,2.22Zm8.61.65.77,6.23-.72.91-3.57.46-.21-1.63,2.79-.35-.69-5.43-5.21.65-.19-1.64,5.19-.65-.29-2.47,1.64-.21.3,2.48,2.34-.29.23,1.64ZM73.57,313l-1.8-3.48,1.47-.77,1.8,3.5Z" style="fill:#24749e"/><path d="M87.83,315.37l.06,2.91-1.63,0-.05-2.65-2.89.51L83,314.53l3.13-.54,0-2.61L84,311.21l-.73-1,.77-3-1,.1-.18-1.64,1.58-.16L85,303.3l1.6.42-.42,1.61,3.6-.39.18,1.63-4.24.45-.66,2.61,1,.09,0-1.68,1.66,0,0,1.84L89,310l-.14,1.64-1.07-.09,0,2.19,2.06-.35.28,1.61Zm8-8.05,2.71,2.21-1.05,1.28-3-2.44-3.78,3-1-1.31,5.55-4.39-4.55-.26.08-1.67,6.72.42.46,1.47ZM95,312.84l.16,3.44,2.62.09,0,1.63-8-.32.07-1.61,3.72.14-.15-3.3-2.49.08,0-1.66,6.58-.24.07,1.64Z" style="fill:#24749e"/><path d="M101.66,374.39a5.94,5.94,0,0,1-1.8,1.33,3.44,3.44,0,0,1-2.23.3,7.29,7.29,0,0,1-2.33-1,17,17,0,0,0-2.23-1.2,2.77,2.77,0,0,0-2-.17,8.14,8.14,0,0,0-2.56,1.77v-.8a7,7,0,0,1,1.93-1.43,3.06,3.06,0,0,1,2-.23A9.14,9.14,0,0,1,95,374.09a15.53,15.53,0,0,0,2.53,1.23,2.44,2.44,0,0,0,2-.16,10.3,10.3,0,0,0,2.21-1.57Zm0,3.2a6.11,6.11,0,0,1-1.8,1.33,3.44,3.44,0,0,1-2.23.3,7.1,7.1,0,0,1-2.33-1,19.83,19.83,0,0,0-2.23-1.2,2.87,2.87,0,0,0-2-.17,7.81,7.81,0,0,0-2.56,1.77v-.8a6.79,6.79,0,0,1,1.93-1.43,3.13,3.13,0,0,1,2-.23A8.85,8.85,0,0,1,95,377.28a14.92,14.92,0,0,0,2.53,1.24,2.44,2.44,0,0,0,2-.17,11.38,11.38,0,0,0,2.21-1.56Z" style="fill:#2193af"/><path d="M108.34,382.56l-1.36-.1.78-10.79-3,2.26-.83-1.1,4.25-3.15,1.09.59Z" style="fill:#2193af"/><path d="M116.17,382.54l-5.92-1.46-.31-1.18,4.61-4.13-3.5-2.76.15-1.15,5-2.18.8.17,2.33,2.57,0,1-2.55,2.3,3.88,3,0,1.14-3.83,2.61Zm-4.34-2.48,4.37,1.09,2.81-1.93-3.35-2.6Zm1-7.4,2.79,2.17,2.23-2-1.55-1.7Z" style="fill:#2193af"/><path d="M123.64,383.05l-2.37-.83.85-2.35,2.37.82Z" style="fill:#2193af"/><path d="M133.47,382.44l-8.3-1.82.3-1.35,7.71,1.71,1.62-4.09-6.59-.69-.59-.82.93-5.05.68-.57h6.54v1.37h-6l-.71,3.77,6.75.72.55.93L134.25,382Z" style="fill:#2193af"/><path d="M306.89,374.05a6.38,6.38,0,0,1-1.79,1.33,3.38,3.38,0,0,1-2.23.29,6.7,6.7,0,0,1-2.33-1,17,17,0,0,0-2.23-1.2,2.84,2.84,0,0,0-2-.16,8.26,8.26,0,0,0-2.56,1.77v-.8a7.19,7.19,0,0,1,1.93-1.44,3.13,3.13,0,0,1,2-.23,9.1,9.1,0,0,1,2.59,1.1,16.87,16.87,0,0,0,2.53,1.23,2.47,2.47,0,0,0,2-.17,10.54,10.54,0,0,0,2.2-1.56Zm0,3.2a6.17,6.17,0,0,1-1.79,1.32,3.38,3.38,0,0,1-2.23.3,6.7,6.7,0,0,1-2.33-1,17,17,0,0,0-2.23-1.2,2.84,2.84,0,0,0-2-.17,8,8,0,0,0-2.56,1.76v-.8a7.13,7.13,0,0,1,1.93-1.43,3.2,3.2,0,0,1,2-.23,8.82,8.82,0,0,1,2.59,1.1,15.94,15.94,0,0,0,2.53,1.23,2.39,2.39,0,0,0,2-.17,10.83,10.83,0,0,0,2.2-1.55Z" style="fill:#e7ac63"/><path d="M310.28,382.38l-.57-1.14,7.06-7.92-3.23-2.71-3.62,2.47-.77-1.12,4.05-2.78.82.05,4.17,3.49.06,1-6.32,7.13,7.19-.8.16,1.36Z" style="fill:#e7ac63"/><path d="M327.44,382.2,320,380.58l.3-1.33,7,1.5,1.7-3.16-4.82-1.19-.25-1.21,4.66-3.63-6.19-.86.18-1.36,7.8,1.08.34,1.23-4.83,3.74,4.32,1.07.42,1-2.38,4.39Z" style="fill:#e7ac63"/><path d="M333.7,382.71l-2.36-.84.85-2.34,2.36.81Z" style="fill:#e7ac63"/><path d="M340.58,382.1l-1.26-.57,4.33-9.64-4.71-1-2.11,2.94,4,1.89-.59,1.24-4.73-2.26-.26-1,2.86-4,.7-.29,6,1.31.49.95Z" style="fill:#e7ac63"/><rect x="50.72" y="332.57" width="60.22" height="6.3" style="fill:#24749e"/><rect x="115.81" y="332.57" width="198.97" height="6.3" style="fill:#aec9b4"/><rect x="319.64" y="332.57" width="74.07" height="6.3" style="fill:#e7ac63"/><rect x="110.94" y="308.08" width="4.86" height="55.28" style="fill:#2193af"/><rect x="314.77" y="305.65" width="4.86" height="60.15" style="fill:#deb25a"/><path d="M110.93,205.39H50.74a4.49,4.49,0,1,0,0,9H67.68a3.37,3.37,0,0,1,3.25,2.5c.89,2.3.46,6.74-.09,10.18l-.72,4.06v0l0,0L64.35,263.9a4.54,4.54,0,0,0,5.45,5.24,4.65,4.65,0,0,0,1.62-.73,4.47,4.47,0,0,0,1.21-1.28,4.34,4.34,0,0,0,.62-1.66l4-22.75s1.28-5.4,3.6-5.4,3.62,5.4,3.62,5.4l4,22.77a4.57,4.57,0,0,0,3.49,3.7,4.54,4.54,0,0,0,5.42-3.51,4.5,4.5,0,0,0,0-1.79l-5.76-32.72a0,0,0,0,0,0,0v0L90.85,227c-.55-3.44-1-7.88-.1-10.18A3.41,3.41,0,0,1,94,214.37h17a4.49,4.49,0,1,0,0-9Z" style="fill:#e94e37"/><path d="M80.83,197.87a9.32,9.32,0,1,0-9.31-9.31A9.31,9.31,0,0,0,80.83,197.87Z" style="fill:#f7c579"/><path d="M248,109.43l.46,20.42-2.89.09-.43-17.65-1.36,1.39-2.09-2,6.64-6.71L250.4,107Zm13.68,2-.46,9.16,1.87-.3.46,2.86-2.49.43L260.7,130l-2.92-.15.31-5.78-2.95.49-.52-2.86,3.62-.62.5-9.31-1.54.18-5.14,16.61-2.76-.9L254,112.35l-4.21.5-.34-2.89,9.41-1.14.28-4.89,2.89.09-.25,4.46,6.15-.77.34,2.89Zm6.24,15.4-6.12-12.26,2.58-1.32,6.09,12.29Z" style="fill:#2193af"/><path d="M276.54,116.41l1.29-.09-.31-2,1.38-1.69,6.55-.28v-.64l-9.62.43-.16-2.89,9.78-.46V108l-7,.52-.18-2.86,18.41-1.44.22,2.89-8.55.67v.89l10.21-.49.15,2.89-10.36.49v.68l8.86-.37,1.5,1.66-1,7.07-1.45,1.26-7.9.16v.64l7.38-.24.06,2.86-7.41.27v1.14l10.24.18-.09,2.86-23.67-.4,0-2.92,10.57.22v-1l-7.07.25-.12-2.92,7.16-.22V122l-5.38.09-1.47-1.23-.28-1.72-1.6.12Zm4.21-.27,4.7-.34v-.53l-4.79.19Zm.52,3.07,4.18-.06v-.49l-4.24.3Zm7.1-.77v.65l6.64-.16.59-4.09-7.23.31v.43l6-.43.18,2.86Z" style="fill:#2193af"/><path d="M321.88,128.5a10.35,10.35,0,0,1-2.53-7.08,10.74,10.74,0,0,1,2.53-7.19h1.3a11,11,0,0,0-2.54,7.17,10.79,10.79,0,0,0,2.52,7.1Z" style="fill:#2193af"/><path d="M331.71,125.85h-2l-3.55-4h0v4h-1.47V113.57h1.47v7.79h0l3.37-3.81h1.89l-3.75,4Z" style="fill:#2193af"/><path d="M339.89,125.16q0,4.6-4.47,4.6a6,6,0,0,1-2.69-.57v-1.42a5.57,5.57,0,0,0,2.67.77q3,0,3-3.18v-.88h0a3.33,3.33,0,0,1-5.32.45,4.47,4.47,0,0,1-.94-3,5.1,5.1,0,0,1,1-3.37,3.4,3.4,0,0,1,2.76-1.24,2.67,2.67,0,0,1,2.46,1.32h0v-1.13h1.47Zm-1.47-4.24a2.29,2.29,0,0,0-.64-1.66,2.13,2.13,0,0,0-1.61-.69,2.22,2.22,0,0,0-1.87.89,3.93,3.93,0,0,0-.67,2.42,3.37,3.37,0,0,0,.65,2.14,2.08,2.08,0,0,0,1.71.81,2.24,2.24,0,0,0,1.76-.78,2.87,2.87,0,0,0,.67-2Z" style="fill:#2193af"/><path d="M341.39,128.5a10.74,10.74,0,0,0,2.53-7.1,11,11,0,0,0-2.54-7.17h1.31a10.7,10.7,0,0,1,2.53,7.19,10.29,10.29,0,0,1-2.53,7.08Z" style="fill:#2193af"/><path d="M195,148.05l-.16-4.15,29.72-.51,0,4.1Zm27.2-10.3h-25.1V133.6h25.1Z" style="fill:#aec9b4"/><path d="M244.21,169.34l3.08-.09-.13-1.29-2.3.12-.16-2.89,2.22-.12-.68-7.84,1.42-1.57,1.56,0,3.29-3.38,2.06,2-1.26,1.32,9.07-.12,1.45,1.44.06,11.38,1.93-.68,1,2.71-2.89,1,0,4.64-1.11,1.42-5.32,1.38-.7-2.8,4.21-1.1,0-2.49-16.85,5.93-1-2.71L253.43,172l-9.13.27Zm5-10.82.13,1.48,11.62-.16v-1.47Zm.86,9.26.13,1.38,10.79-.34,0-6-11.35.12.19,2,9.83-.59.16,2.89Z" style="fill:#24749e"/><path d="M292.91,175.77l1.29-.71.89-6.05-18.6,1.1,1.45,7.2-2.86.55L273.29,169l1.36-1.73,22-1.32,1.51,1.66L297,176.23l-.77,1.08-1.91,1ZM273.54,155.2l10.64-.24-.46-1.14,2.73-1.11.86,2.15,10.73-.24,0,2.92-24.47.58Zm4.3,10.36-1.93-4.33,1.23-2,14.75-.89,1.54,1.26.43,3.59-1.26,1.6-13.22,1.66Zm1.7,11.35-.93-4.21,1.33-1.79,11.06-.8,1.6,1.6-.55,5L290.6,178l-9.65.07Zm.52-13.53L290.79,162l-.09-.71-11.26.65Zm2.09,11.77,7.13-.06.19-1.93-7.63.55Z" style="fill:#24749e"/><path d="M323,177.36a10.33,10.33,0,0,1-2.53-7.08,10.76,10.76,0,0,1,2.53-7.19h1.3a11.06,11.06,0,0,0-2.54,7.18,10.78,10.78,0,0,0,2.52,7.09Z" style="fill:#2193af"/><path d="M335.66,174.72h-1.28V170a4.17,4.17,0,0,0-.32-1.93,1.12,1.12,0,0,0-1.07-.58,1.17,1.17,0,0,0-1,.75,3.68,3.68,0,0,0-.41,1.8v4.73h-1.26V169.8c0-1.58-.44-2.36-1.3-2.36a1.26,1.26,0,0,0-1.09.72,3.61,3.61,0,0,0-.42,1.84v4.72h-1.28v-8.3h1.28v1.31a2.24,2.24,0,0,1,2.06-1.51,1.54,1.54,0,0,1,1.1.46,2.56,2.56,0,0,1,.67,1.24,2.27,2.27,0,0,1,2.09-1.7c1.49,0,2.23,1.13,2.23,3.38Zm2.63-7.7h-3v-.85l1.38-1.06a3.55,3.55,0,0,0,.5-.46.65.65,0,0,0,.13-.43.46.46,0,0,0-.15-.38.74.74,0,0,0-.48-.13,1.83,1.83,0,0,0-1.2.45v-1a2.76,2.76,0,0,1,1.38-.33,1.77,1.77,0,0,1,1.11.32,1,1,0,0,1,.41.81,1.86,1.86,0,0,1-.12.78,2.31,2.31,0,0,1-.43.58l-1.12.79h1.62Z" style="fill:#2193af"/><path d="M340,177.36a10.72,10.72,0,0,0,2.53-7.09,11,11,0,0,0-2.54-7.18h1.31a10.7,10.7,0,0,1,2.53,7.19,10.29,10.29,0,0,1-2.53,7.08Z" style="fill:#2193af"/><path d="M310.07,157.83l-.51-1,6.38-7.16L313,147.19l-3.27,2.23-.69-1,3.65-2.51.74,0,3.77,3.15.06.89-5.72,6.44,6.5-.72.14,1.23Z" style="fill:#2193af"/><path d="M116.31,142.64l-1.75-1.56V119.26l1.66-1.52,19,1,1.06,2.54-7.54,8.89,6.52,7.87-1,2.55Zm1.36-21.73v18.42L131,137.84l-5.56-6.68,0-2,6.38-7.47Z" style="fill:#deb25a"/><path d="M159.76,141.11l-3-16.56-6,10.58L148,135l-4.5-9.79-2.84,15.9-3.08-.56,3.74-20.79,2.91-.37,5.35,11.54,6.62-11.67,2.87.5,3.77,20.79Z" style="fill:#deb25a"/><path d="M167.26,141.61l-3.11-.16,1.13-22.72,3.14.17Z" style="fill:#deb25a"/><path d="M101.09,160.3l1.4,0,0-.59-1.06.06-.07-1.33,1-.05-.31-3.59.65-.72h.72l1.5-1.55,1,.92-.58.6,4.15-.05.66.66,0,5.2.88-.31.45,1.24-1.32.46,0,2.13-.51.64-2.43.64-.33-1.28,1.93-.51v-1.14l-7.71,2.72-.44-1.24,4.69-1.65-4.18.13Zm2.29-5,.06.68,5.31-.07v-.68Zm.39,4.24.06.63,4.94-.16,0-2.77-5.19.06.09.91,4.5-.26.07,1.32Z" style="fill:#e7ac63"/><path d="M116.39,155.11l.21,9.34-1.32.05-.2-8.08-.62.63-.95-.92,3-3.07,1,.94Zm6.26.92-.21,4.19.86-.14.21,1.31-1.14.19-.16,2.94-1.33-.07.14-2.64-1.35.22-.24-1.3,1.66-.29.22-4.26-.7.09-2.35,7.59-1.27-.41,2.17-7-1.93.22-.15-1.32,4.3-.52.13-2.23,1.32,0-.11,2,2.81-.35.16,1.32Zm2.85,7-2.8-5.61,1.19-.6,2.78,5.62Z" style="fill:#e7ac63"/><path d="M129.64,164.58l-1.13-.69,1.48-2.43-.08-8,.61-.68,8.74-.52.07,1.34-8.1.46.1,7.52-.1.35Zm6.54-7.91v1l3,0,.66.79-.66,3.4-1.3-.25.5-2.62-5.07-.08.17,2.82-1.34.07-.18-3.56.66-.67,2.25,0v-.84l-3,.24-.12-1.33,3.08-.25v-.77h1.34v.66l3.46-.28.11,1.31ZM133,164.8l-1-.87,4.26-4.72,1,.87Zm5.77-.07L136,162.27l.88-1,2.79,2.47Z" style="fill:#e7ac63"/><path d="M144.35,161.23,144,158.6l.55-.66,7.29-.15.57.6-.19,2.67-.57.52-2.61.06v.27l3.92,0,0,1.07L149,163v.21l5-.07v1.32l-11.59.11v-1.29l5.28-.06V163l-3.93,0V162l3.94,0v-.25l-2.76,0Zm-1.55-4.51,10.93-.21,0,1.06-10.93.22Zm.3-2.55h.8l-.08-.73.55-.64,7.82-.26.6.61-.24,2.73-.56.51-7.31.06-.57-.5-.08-.73-.9,0Zm1.94,0,5.32-.16V155l-5.19.15,0,.12,6.27-.05.13-1.56-6.57.23Zm.18,5.16,2.47-.06V159l-2.49.06Zm.19,1.28,2.28,0v-.23l-2.31.06ZM149,159v.23l2.18-.05v-.23Zm2.09,1.48,0-.24-2.11,0v.24Z" style="fill:#e7ac63"/><path d="M159.54,156.34l.1,1.7.69-.41.66,1.14-1.26.75.14,2.33-.12.44-1.61,2.18-1.09-.8,1.48-2-.08-1.42-1.16.67-.67-1.14,1.73-1-.14-2.46h-1.34V155h1.25l-.11-2,1.34-.08.11,2.09h1.36v1.33Zm1.38,4.32.86-.12-.1-1.81.63-.71,4.94-.23.69.7-.2,4.95-.64.63-4.45.09-.69-.62-.1-1.66-.76.1Zm1.38-3.58-.62-.71.32-3.73,1.31.11-.24,3.05.51,0,3.07-3.05.92.94L165.34,156l2.46.17-.1,1.32Zm.82,3.29,2.75-.36.17,1.32-2.85.38.05,1.11,3.21-.07.14-3.59-3.53.16Z" style="fill:#e7ac63"/><path d="M171.48,154.9l1.27-.08-.06-2.46,1.33-.05,0,2.42h.16l0,0,.59-2.16,1.28.35-.48,1.74.62,0,.08,1.31-1.18.09,1.38,1.95-1.07.76-1.38-1.94,0,1.87-1.33,0,0-1.74-1.39,2-1.1-.75,1.38-2-1,.07-.09-1.32.78,0-.94-1.38,1.09-.75,1,1.42Zm3.84,7.08,1.3.17-.18,1.3-2.34-.29-1.69,1.6-.91-.94.91-.89-1.22-.15-.54-.87.43-1.16-.76,0,.05-1.32,1.18.06.3-.81,1.25.47-.15.41,3.2.14.43,1.14Zm-2.85-1.17-.28.76,1.45.2.9-.88Zm9.52-5.22-1.9,4.39,2.31,3.29-1.08.76-1.85-2.62-1.22,2.86-1.21-.51,1.55-3.61-1.82-2.6,1.1-.76,1.34,1.92,1.26-2.94-3.08.38-.67-1,1.4-2.68,1.18.62-.83,1.56,3.7-.44.16,1.31Z" style="fill:#e7ac63"/><line x1="237.91" y1="139.48" x2="349.44" y2="139.48" style="fill:none;stroke:#aec9b4;stroke-miterlimit:10;stroke-width:5px"/><path d="M134.92,64.14l-1.61-1.43V42.63l1.52-1.4,17.46.94,1,2.35-6.94,8.18,6,7.24-.94,2.35Zm1.25-20v17l12.29-1.37-5.11-6.15,0-1.82,5.87-6.88Z" style="fill:#e4007f"/><path d="M174.9,62.74,172.13,47.5l-5.51,9.73-2.55-.12-4.14-9-2.62,14.63-2.83-.51,3.44-19.14,2.68-.34,4.93,10.62,6.08-10.74,2.65.46,3.47,19.14Z" style="fill:#e4007f"/><path d="M181.81,63.2,179,63.05l1-20.91,2.89.16Z" style="fill:#e4007f"/><path d="M209.34,64.9l-6.39-1-1.15-1.77,3.5-12.47-4,.33-.24-2.89,6-.48,1.46,1.82L205,61.34l4.78.7ZM207,45.34l-5.51-3,1.37-2.5,5.51,3Zm12.87,4.08,0,16.18-2.89,0,0-15.76-7,.88-.36-2.83,7.39-1,0-6.79h2.89l0,6.42,6.48-.85.4,2.86Z" style="fill:#e4007f"/><path d="M234.63,53l1.06,0-.42-4.29L236.64,47l3.28-.18-1.49-2.19-2.34.27-1.22,2.25-2.52-1.37,3.22-6,2.53,1.37-.34.64,6-.73.33,2.86-2.46.3.79,1.16-2,1.37,11.41-.67,1.52,1.52-.58,9.22-1.37,1.34-11.92.43,1.88,1-.24.49h8.37l.09-1.65,2.86.15-.09,1.5h4V63h-4.14l-.06,1.64-2.89-.15.06-1.49h-9.64l-1.25,2.49-2.56-1.28.61-1.21h-2.86V60.13h4.32l.73-1.43-1,0-1.49-1.31-.21-2-1.25,0Zm3.68-2.93,11.35-.42.12,2.46-11.23.43,0,.36,10.68-.27.09,2.46-10.52.28.06.45,11.1-.39.4-6.27-12.11.67ZM245,45.76l.43-5.32,2.86.21-.06.64,6.94-.82.33,2.86-1.46.18,1.28,1.37-2.13,1.95-2.68-2.92-2.52.27-.13,1.8Z" style="fill:#e4007f"/><path d="M261.8,49.48l7-8.22L271,43.12,264,51.33Zm3.07,13.11L271.38,48l2.68,1.19-5.48,12.29,11.75-1.64-1.64-3.35,2.58-1.3,4.26,8.61L283,65l-1.25-2.46-15.31,2.07Zm14.55-20.93L282,40.32l5.78,10.92-2.55,1.37Z" style="fill:#e4007f"/><path d="M292.89,45.64l14.12-.7-.61-4,2.86-.46.67,4.32,3.47-.18-1.06-3.08,2.7-1,1.71,4.93-1.31,1.89-5.08.27,1.43,9.1L317.51,63l-2.13,1.91-6-6.54-.4-.76-1.55-9.83-14.42.7Zm.74,5.24,11.68-.67.15,2.83-4.44.27.21,6.24,5.14-1.68.86,2.74-13.09,4.26-.85-2.74,5.36-1.73h-.25l-.21-6.91-4.38.25Z" style="fill:#e4007f"/><path d="M64.76,29.93h0a27,27,0,0,1,27,27v27a0,0,0,0,1,0,0h-27a27,27,0,0,1-27-27v0a27,27,0,0,1,27-27Z" style="fill:#e4007f"/><line x1="90.79" y1="81.93" x2="377.74" y2="81.93" style="fill:#e4007f;stroke:#e4007f;stroke-miterlimit:10;stroke-width:4px"/><path d="M60.42,48.87,60,56.48l-2.5-.12.4-7.33-7,.42L50.81,47l7.24-.43.33-6.11,2.47.09-.31,5.87L67.69,46l.16,2.44Z" style="fill:#f7f8f8"/><path d="M58.18,69.23l-.29-3.87,26.35-2,.33,3.92Z" style="fill:#2ea7e0"/><path d="M94.19,40.58l-11.87-9-11.58,11-3-3.14,11.07-10.6L70.5,22.57l2.72-3.52L82,25.76l8.92-8.49,3,3.24-8.39,8,11.26,8.58Z" style="fill:#faee00"/><path d="M92.39,59,90,58.11l-3-7.55,1.53-2.27,8.08-.37,1.73,1.65v5l-.86,1.45ZM90.9,73.37l-2.72-1.94L107.64,44l2.68,1.93ZM91,51.47l1.45,3.67L95,53.65V51.3Zm18,20.12-7.91-.9-1.45-1.9.83-5.65,1.11-1.36,5.82-1.86,2.14,1.36,1.28,8.33Zm-5.81-4,4,.42-.66-4.33-2.93.94Z" style="fill:#00a040"/></g></g></svg>