<svg xmlns="http://www.w3.org/2000/svg" viewBox="0 0 222.49 222.49"><g id="图层_2" data-name="图层 2"><g id="全包和"><path d="M111.25,111.25V0A111.3,111.3,0,0,0,5.42,76.86Z" style="fill:#dd223f"/><path d="M111.25,111.25,217.07,76.86A111.29,111.29,0,0,0,111.25,0h0Z" style="fill:#dd223f"/><path d="M111.25,111.25,5.42,76.86A111.38,111.38,0,0,0,45.86,201.25Z" style="fill:#dd223f"/><path d="M111.25,111.25l-65.39,90a111.28,111.28,0,0,0,130.78,0Z" style="fill:#dd223f"/><path d="M217.07,76.86,111.25,111.25l65.39,90A111.39,111.39,0,0,0,217.07,76.86Z" style="fill:#dd223f"/><path d="M111.25,111.25V0A111.3,111.3,0,0,0,5.42,76.86Z" style="fill:#1179b9"/><path d="M111.25,111.25,217.07,76.86A111.29,111.29,0,0,0,111.25,0h0Z" style="fill:#dd223f"/><path d="M111.25,111.25,5.42,76.86A111.38,111.38,0,0,0,45.86,201.25Z" style="fill:#f2ac37"/><path d="M111.25,111.25l-65.39,90a111.28,111.28,0,0,0,130.78,0Z" style="fill:#221e1f"/><path d="M217.07,76.86,111.25,111.25l65.39,90A111.39,111.39,0,0,0,217.07,76.86Z" style="fill:#169e4f"/></g></g></svg>