<svg width="217" height="213" viewBox="0 0 217 213" fill="none" xmlns="http://www.w3.org/2000/svg">
<path d="M152.069 163.076C163.741 153.74 172.056 140.847 175.753 126.352C179.451 111.857 178.329 96.5503 172.558 82.7513C164.152 50.6411 138.479 26.0362 106.771 20.0358C73.1195 13.6684 38.4191 29.3256 19.6564 58.9174C28.5944 42.9974 41.6032 29.7474 57.3462 20.5286C73.0892 11.3098 90.999 6.45458 109.236 6.46169C113.288 6.46158 117.336 6.69827 121.361 7.17055H121.417C159.185 13.1959 188.502 42.9867 193.289 79.5552C197.592 112.449 181.331 145.423 152.069 163.076Z" fill="#DD223F"/>
<g filter="url(#filter0_d)">
<path d="M163.965 180.12C134.313 194.372 98.2523 189.354 72.4117 167.392C84.4825 175.072 98.6467 178.785 112.926 178.012C127.206 177.24 140.889 172.02 152.063 163.083V163.083C181.325 145.43 197.585 112.455 193.283 79.5614C188.496 42.9929 159.135 13.2021 121.411 7.18298C143.814 9.86754 164.713 19.8584 180.885 35.6149C197.058 51.3715 207.606 72.0187 210.903 94.3729C210.906 94.3851 210.906 94.3979 210.903 94.4102C214.479 130.351 195.63 164.898 163.965 180.12Z" fill="#169E4F"/>
</g>
<path d="M211.99 109.371C211.989 128.961 206.406 148.144 195.897 164.666C185.387 181.188 170.387 194.363 152.659 202.642V202.642C120.163 216.011 82.6995 208.593 58.9326 183.783C35.8735 159.7 29.5158 123.206 42.9514 91.4877C39.1636 105.631 39.9765 120.615 45.2721 134.264C50.5678 147.912 60.0702 159.515 72.3993 167.386C98.2399 189.348 134.3 194.366 163.953 180.114C195.617 164.892 214.467 130.369 210.897 94.4039C211.623 99.3598 211.988 104.362 211.99 109.371Z" fill="#221E1F"/>
<path d="M152.641 202.679C134.608 211.074 114.533 214.055 94.844 211.261C75.1552 208.466 56.6971 200.017 41.7035 186.935C13.3794 159.737 6.72364 117.237 24.8903 84.2436C39.9278 56.9338 69.6551 40.3564 101.444 41.084C87.7827 42.6523 74.9063 48.2913 64.4812 57.2709C54.0562 66.2506 46.5624 78.1575 42.97 91.4504C29.5344 123.163 35.8921 159.663 58.9512 183.745C82.6995 208.593 120.163 216.011 152.641 202.679Z" fill="#F2AC37"/>
<g filter="url(#filter1_d)">
<path d="M172.527 82.7513C167.286 70.275 158.484 59.6258 147.225 52.1383C135.966 44.6508 122.751 40.6583 109.236 40.6611C106.628 40.6592 104.022 40.8087 101.431 41.1088C69.655 40.3564 39.9278 56.9338 24.8903 84.2436C6.72363 117.237 13.3794 159.737 41.7035 186.935C23.9023 171.382 11.9924 150.163 7.97718 126.848C3.96192 103.533 8.08621 79.5446 19.6564 58.9174C38.4191 29.3256 73.1195 13.6684 106.771 20.0358C138.479 26.0362 164.152 50.6411 172.527 82.7513Z" fill="#1179B9"/>
</g>
<defs>
<filter id="filter0_d" x="61.4117" y="0.182983" width="154.924" height="196.964" filterUnits="userSpaceOnUse" color-interpolation-filters="sRGB">
<feFlood flood-opacity="0" result="BackgroundImageFix"/>
<feColorMatrix in="SourceAlpha" type="matrix" values="0 0 0 0 0 0 0 0 0 0 0 0 0 0 0 0 0 0 127 0"/>
<feOffset dx="-3" dy="1"/>
<feGaussianBlur stdDeviation="4"/>
<feColorMatrix type="matrix" values="0 0 0 0 0.2375 0 0 0 0 0.232948 0 0 0 0 0.232948 0 0 0 0.61 0"/>
<feBlend mode="normal" in2="BackgroundImageFix" result="effect1_dropShadow"/>
<feBlend mode="normal" in="SourceGraphic" in2="effect1_dropShadow" result="shape"/>
</filter>
<filter id="filter1_d" x="0.481049" y="10.6297" width="182.046" height="184.305" filterUnits="userSpaceOnUse" color-interpolation-filters="sRGB">
<feFlood flood-opacity="0" result="BackgroundImageFix"/>
<feColorMatrix in="SourceAlpha" type="matrix" values="0 0 0 0 0 0 0 0 0 0 0 0 0 0 0 0 0 0 127 0"/>
<feOffset dx="2"/>
<feGaussianBlur stdDeviation="4"/>
<feColorMatrix type="matrix" values="0 0 0 0 0.239216 0 0 0 0 0.231373 0 0 0 0 0.231373 0 0 0 0.61 0"/>
<feBlend mode="normal" in2="BackgroundImageFix" result="effect1_dropShadow"/>
<feBlend mode="normal" in="SourceGraphic" in2="effect1_dropShadow" result="shape"/>
</filter>
</defs>
</svg>
