<svg xmlns="http://www.w3.org/2000/svg" viewBox="0 0 469.43 621.38"><defs><style>.cls-1{fill:#5fb8d0;}.cls-2{fill:#0090b2;}.cls-3{fill:#8fdfff;}.cls-4{fill:#1da7cf;}.cls-5{fill:#78cbe7;}.cls-6{fill:#62cef2;}.cls-7{fill:#fff;}.cls-8{fill:#6ed3ff;}.cls-9{fill:#c5c5c5;}.cls-10{fill:#d5f6f9;}.cls-11{fill:#ffda34;}.cls-12{fill:#ffe674;}.cls-13{fill:#ff7a2f;}</style></defs><g id="图层_2" data-name="图层 2"><g id="图层_3" data-name="图层 3"><polygon class="cls-1" points="445 303.91 445 453.15 154.67 621.38 154.67 477.57 445 303.91"/><polygon class="cls-2" points="27.13 374.46 27.13 548.12 154.67 621.38 154.67 447.72 27.13 374.46"/><polygon class="cls-3" points="0 366.31 154.67 455.86 469.43 274.06 314.76 184.51 0 366.31"/><polygon class="cls-4" points="0 388.02 154.67 477.57 154.67 455.86 0 366.31 0 388.02"/><polygon class="cls-5" points="469.43 295.77 154.67 477.57 154.67 455.86 469.43 274.06 469.43 295.77"/><polygon class="cls-1" points="445 119.39 445 268.63 154.67 436.87 154.67 293.05 445 119.39"/><polygon class="cls-2" points="27.13 189.94 27.13 363.6 154.67 436.87 154.67 263.2 27.13 189.94"/><polygon class="cls-3" points="0 181.8 154.67 271.35 469.43 89.54 314.76 0 0 181.8"/><polygon class="cls-4" points="0 203.51 154.67 293.05 154.67 271.35 0 181.8 0 203.51"/><polygon class="cls-5" points="469.43 111.25 154.67 293.05 154.67 271.35 469.43 89.54 469.43 111.25"/><polygon class="cls-6" points="46.13 192.66 154.5 255.06 423.3 100.4 314.76 37.99 46.13 192.66"/><path class="cls-7" d="M61.88,274.28v74.66l54.71,31.68V306Zm52.52,99.77L66.26,345.61V277.78l48.14,29.86Z"/><polygon class="cls-8" points="65.19 346.48 65.19 275.81 116.58 305.79 116.58 376.46 65.19 346.48"/><path class="cls-9" d="M59.7,272.09v78.35l57,33.24V305.33Zm54.7,107.22L61.88,348.67v-72.2L114.4,307.1Z"/><path class="cls-7" d="M61.88,456.08v74.66l54.71,31.68V487.76Zm52.52,99.77L66.26,527.41V459.58l48.14,29.86Z"/><polygon class="cls-8" points="65.19 528.28 65.19 457.61 116.58 487.59 116.58 558.26 65.19 528.28"/><path class="cls-9" d="M59.7,453.89v78.35l57,33.24V487.13Zm54.7,107.22L61.88,530.47v-72.2L114.4,488.9Z"/><path class="cls-7" d="M195.46,308.67v74.66l54.7-31.67V277Zm2.19,1.68,48.14-29.86v67.83l-48.14,28.45Z"/><polygon class="cls-8" points="246.86 349.19 246.86 278.52 195.46 308.5 195.46 379.17 246.86 349.19"/><path class="cls-9" d="M195.37,308v78.35l57-33.23V274.8Zm2.28,1.77,52.51-30.63v72.21L197.65,382Z"/><path class="cls-7" d="M274.15,265.25v74.67l54.7-31.68V233.58Zm2.19,1.69,48.14-29.86v67.83l-48.14,28.44Z"/><polygon class="cls-8" points="325.55 305.78 325.55 235.11 274.15 265.09 274.15 335.76 325.55 305.78"/><path class="cls-9" d="M274.06,264.63V343l57-33.24V231.39Zm2.28,1.77,52.51-30.63V308L276.34,338.6Z"/><path class="cls-7" d="M352.84,221.84V296.5l54.7-31.67V190.16Zm2.19,1.68,48.14-29.86v67.83L355,289.94Z"/><polygon class="cls-8" points="404.24 262.36 404.24 191.69 352.84 221.68 352.84 292.34 404.24 262.36"/><path class="cls-9" d="M352.75,221.21v78.35l57-33.24V188ZM355,223l52.51-30.63v72.21L355,295.19Z"/><polygon class="cls-2" points="314.76 21.71 314.76 37.99 423.3 100.4 436.87 92.26 314.76 21.71"/><polygon class="cls-1" points="32.56 184.51 314.76 21.71 314.76 37.99 46.13 192.66 32.56 184.51"/><polygon class="cls-7" points="400.89 479.21 227.4 579.38 227.97 477.68 401.79 377.51 400.89 479.21"/><polygon class="cls-10" points="395.33 481.69 235.54 573.95 236.07 480.28 396.16 388.02 395.33 481.69"/><polygon class="cls-7" points="316.12 433.61 316.12 528.04 321.87 524.45 322.35 429.81 316.12 433.61"/><path class="cls-11" d="M227.93,485.62v-37.9c6.65,3,23.26,10.17,29.85,21.71,8.41,14.73,8.37,30.57,8.05,37.61C250.45,498.25,243.31,494.41,227.93,485.62Z"/><path class="cls-12" d="M401.59,390.65v-37.9c6.65,3,23.07,11.53,29.66,23.07,8.42,14.73,8.57,29.21,8.24,36.25C424.11,403.28,417,399.44,401.59,390.65Z"/><path class="cls-13" d="M227.93,447.49l29.85-16.05c7.34,3,21.71,10.85,29.85,21.71,7.28,9.7,8.14,27.13,8.14,38-8.14,5.43-19,10.86-29.85,16.28,0-8.14,0-24.42-8.14-38S235.84,451.6,227.93,447.49Z"/><path class="cls-12" d="M257.78,431.21l29.85-16c7.34,3,21.7,10.85,29.84,21.7,7.28,9.71,8.14,27.14,8.14,38-8.14,5.43-19,10.86-29.84,16.28,0-8.14,1.35-25.33-8.14-38C279.49,442.29,265.69,435.32,257.78,431.21Z"/><path class="cls-12" d="M317.47,398.65l29.85-16c7.34,3,21.71,10.85,29.85,21.7,7.28,9.71,8.14,27.14,8.14,38-8.14,5.43-19,10.86-29.85,16.28,0-8.14,1.35-25.33-8.14-38C339.18,409.73,325.38,402.76,317.47,398.65Z"/><path class="cls-12" d="M377.17,366.32l24.42-13.57c6.75,3.07,23,8.53,30.5,19.77,6.7,10.05,7.49,28.1,7.49,39.34-7.49,5.62-14.44,8.53-24.42,14.15,0-8.43.59-24.88-8.14-38C399.53,376.78,384.45,370.58,377.17,366.32Z"/><path class="cls-13" d="M287.63,414.93l29.84-16.05c7.35,3,21.71,10.85,29.85,21.7,7.28,9.71,8.14,27.14,8.14,38-8.14,5.43-19,10.86-29.85,16.28,0-8.14,1.36-25.33-8.14-38C309.33,426,295.54,419,287.63,414.93Z"/><path class="cls-13" d="M347.32,382.37l29.85-16.05c7.34,3,21.71,10.85,29.85,21.7,7.28,9.71,8.14,27.14,8.14,38-8.14,5.43-19,10.85-29.85,16.28,0-8.14,1.35-25.33-8.14-38C369,393.45,355.23,386.48,347.32,382.37Z"/></g></g></svg>