<svg xmlns="http://www.w3.org/2000/svg" xmlns:xlink="http://www.w3.org/1999/xlink" viewBox="0 0 700 346.4" width="700" height="346.4"><path d="M 254.400,51.400 C 257.511,49.907 257.600,50.200 260.800,49.000" stroke-width="5.414" stroke="black" fill="none" stroke-linecap="round"></path><path d="M 260.800,49.000 C 269.099,46.444 269.111,46.707 277.600,45.000" stroke-width="3.265" stroke="black" fill="none" stroke-linecap="round"></path><path d="M 277.600,45.000 C 290.432,43.624 290.299,42.844 303.200,41.800" stroke-width="2.398" stroke="black" fill="none" stroke-linecap="round"></path><path d="M 303.200,41.800 C 315.618,39.903 315.632,40.024 328.000,37.800" stroke-width="2.307" stroke="black" fill="none" stroke-linecap="round"></path><path d="M 328.000,37.800 C 336.762,35.778 336.818,36.303 345.600,34.600" stroke-width="2.541" stroke="black" fill="none" stroke-linecap="round"></path><path d="M 345.600,34.600 C 348.849,34.206 348.762,34.178 352.000,34.600" stroke-width="3.456" stroke="black" fill="none" stroke-linecap="round"></path><path d="M 352.000,34.600 C 356.354,34.154 355.249,35.006 358.400,36.200" stroke-width="4.474" stroke="black" fill="none" stroke-linecap="round"></path><path d="M 358.400,36.200 C 360.244,39.695 360.754,38.554 360.800,43.400" stroke-width="4.543" stroke="black" fill="none" stroke-linecap="round"></path><path d="M 360.800,43.400 C 361.342,47.862 361.444,47.695 360.800,52.200" stroke-width="3.923" stroke="black" fill="none" stroke-linecap="round"></path><path d="M 360.800,52.200 C 360.392,57.710 360.142,57.462 358.400,62.600" stroke-width="3.522" stroke="black" fill="none" stroke-linecap="round"></path><path d="M 358.400,62.600 C 354.989,68.095 355.992,68.510 352.000,73.800" stroke-width="3.289" stroke="black" fill="none" stroke-linecap="round"></path><path d="M 352.000,73.800 C 351.502,77.152 350.589,76.495 349.600,79.400" stroke-width="3.842" stroke="black" fill="none" stroke-linecap="round"></path><path d="M 349.600,79.400 C 346.630,82.240 347.102,82.352 343.200,84.200" stroke-width="3.777" stroke="black" fill="none" stroke-linecap="round"></path><path d="M 343.200,84.200 C 340.880,85.490 341.030,85.440 338.400,85.800" stroke-width="4.485" stroke="black" fill="none" stroke-linecap="round"></path><path d="M 338.400,85.800 C 334.391,85.990 334.480,86.290 330.400,85.800" stroke-width="4.002" stroke="black" fill="none" stroke-linecap="round"></path><path d="M 330.400,85.800 C 325.938,85.789 325.991,85.590 321.600,85.000" stroke-width="3.787" stroke="black" fill="none" stroke-linecap="round"></path><path d="M 321.600,85.000 C 312.928,81.858 312.738,83.389 304.000,81.000" stroke-width="2.907" stroke="black" fill="none" stroke-linecap="round"></path><path d="M 304.000,81.000 C 292.000,81.000 292.128,79.858 280.000,81.000" stroke-width="2.479" stroke="black" fill="none" stroke-linecap="round"></path><path d="M 280.000,81.000 C 275.600,81.000 275.600,81.000 271.200,81.000" stroke-width="3.227" stroke="black" fill="none" stroke-linecap="round"></path><path d="M 271.200,81.000 C 267.200,81.000 267.200,81.000 263.200,81.000" stroke-width="3.624" stroke="black" fill="none" stroke-linecap="round"></path><path d="M 263.200,81.000 C 259.274,82.484 260.000,81.000 256.800,81.000" stroke-width="4.560" stroke="black" fill="none" stroke-linecap="round"></path><path d="M 256.800,81.000 C 253.722,77.584 253.274,78.884 251.200,73.800" stroke-width="4.696" stroke="black" fill="none" stroke-linecap="round"></path><path d="M 251.200,73.800 C 247.563,66.055 248.922,70.384 247.200,66.600" stroke-width="4.577" stroke="black" fill="none" stroke-linecap="round"></path><path d="M 247.200,66.600 C 248.788,71.330 246.763,67.255 249.600,76.200" stroke-width="5.019" stroke="black" fill="none" stroke-linecap="round"></path><path d="M 249.600,76.200 C 250.879,83.374 250.788,83.330 251.200,90.600" stroke-width="3.368" stroke="black" fill="none" stroke-linecap="round"></path><path d="M 251.200,90.600 C 252.465,101.537 251.679,101.373 251.200,112.200" stroke-width="2.691" stroke="black" fill="none" stroke-linecap="round"></path><path d="M 251.200,112.200 C 248.961,125.149 249.665,125.137 245.600,137.800" stroke-width="2.338" stroke="black" fill="none" stroke-linecap="round"></path><path d="M 245.600,137.800 C 242.204,150.815 242.161,150.749 237.600,163.400" stroke-width="2.227" stroke="black" fill="none" stroke-linecap="round"></path><path d="M 237.600,163.400 C 230.944,184.060 230.204,183.615 221.600,203.400" stroke-width="1.683" stroke="black" fill="none" stroke-linecap="round"></path><path d="M 221.600,203.400 C 212.703,219.190 213.744,219.660 203.200,234.600" stroke-width="1.761" stroke="black" fill="none" stroke-linecap="round"></path><path d="M 203.200,234.600 C 197.844,243.175 197.903,243.190 192.000,251.400" stroke-width="2.213" stroke="black" fill="none" stroke-linecap="round"></path><path d="M 192.000,251.400 C 187.003,258.369 187.044,258.375 181.600,265.000" stroke-width="2.595" stroke="black" fill="none" stroke-linecap="round"></path><path d="M 181.600,265.000 C 178.194,269.206 178.203,269.169 174.400,273.000" stroke-width="3.136" stroke="black" fill="none" stroke-linecap="round"></path><path d="M 174.400,273.000 C 172.448,274.664 172.594,274.806 170.400,276.200" stroke-width="3.847" stroke="black" fill="none" stroke-linecap="round"></path><path d="M 170.400,276.200 C 167.722,279.751 167.648,278.264 164.800,280.200" stroke-width="3.956" stroke="black" fill="none" stroke-linecap="round"></path><path d="M 164.800,280.200 C 160.143,279.799 162.522,280.551 160.000,277.800" stroke-width="4.888" stroke="black" fill="none" stroke-linecap="round"></path><path d="M 268.800,131.400 C 271.012,135.312 270.800,135.400 272.800,139.400" stroke-width="5.284" stroke="black" fill="none" stroke-linecap="round"></path><path d="M 272.800,139.400 C 273.600,145.229 273.812,141.712 274.400,144.200" stroke-width="5.173" stroke="black" fill="none" stroke-linecap="round"></path><path d="M 274.400,144.200 C 276.760,138.292 276.400,141.629 278.400,132.200" stroke-width="4.802" stroke="black" fill="none" stroke-linecap="round"></path><path d="M 278.400,132.200 C 278.654,127.629 279.560,127.892 280.000,123.400" stroke-width="3.899" stroke="black" fill="none" stroke-linecap="round"></path><path d="M 280.000,123.400 C 281.663,118.806 281.454,118.829 284.000,114.600" stroke-width="3.674" stroke="black" fill="none" stroke-linecap="round"></path><path d="M 284.000,114.600 C 285.805,111.634 285.663,111.606 288.000,109.000" stroke-width="3.899" stroke="black" fill="none" stroke-linecap="round"></path><path d="M 288.000,109.000 C 289.763,104.605 289.805,106.834 292.000,105.000" stroke-width="4.075" stroke="black" fill="none" stroke-linecap="round"></path><path d="M 292.000,105.000 C 297.208,107.740 296.563,105.805 301.600,111.400" stroke-width="4.556" stroke="black" fill="none" stroke-linecap="round"></path><path d="M 301.600,111.400 C 304.626,113.846 304.408,113.740 306.400,117.000" stroke-width="4.094" stroke="black" fill="none" stroke-linecap="round"></path><path d="M 306.400,117.000 C 307.668,120.579 308.226,120.246 308.800,124.200" stroke-width="3.895" stroke="black" fill="none" stroke-linecap="round"></path><path d="M 308.800,124.200 C 310.019,126.941 309.668,126.979 310.400,129.800" stroke-width="4.097" stroke="black" fill="none" stroke-linecap="round"></path><path d="M 310.400,129.800 C 310.612,133.015 310.819,132.941 310.400,136.200" stroke-width="4.041" stroke="black" fill="none" stroke-linecap="round"></path><path d="M 310.400,136.200 C 310.374,139.092 310.212,139.015 309.600,141.800" stroke-width="4.165" stroke="black" fill="none" stroke-linecap="round"></path><path d="M 309.600,141.800 C 308.481,147.958 307.974,147.492 305.600,153.000" stroke-width="3.527" stroke="black" fill="none" stroke-linecap="round"></path><path d="M 305.600,153.000 C 303.173,156.403 303.681,156.358 300.000,158.600" stroke-width="3.739" stroke="black" fill="none" stroke-linecap="round"></path><path d="M 300.000,158.600 C 295.200,160.394 297.973,160.003 295.200,160.200" stroke-width="4.469" stroke="black" fill="none" stroke-linecap="round"></path><path d="M 295.200,160.200 C 297.600,159.000 295.200,159.994 300.000,157.800" stroke-width="5.086" stroke="black" fill="none" stroke-linecap="round"></path><path d="M 273.600,231.400 C 274.881,234.133 274.400,234.200 275.200,237.000" stroke-width="3.726" stroke="black" fill="none" stroke-linecap="round"></path><path d="M 275.200,237.000 C 274.719,241.467 275.681,241.333 275.200,245.800" stroke-width="3.712" stroke="black" fill="none" stroke-linecap="round"></path><path d="M 275.200,245.800 C 277.350,251.400 275.519,248.667 276.800,251.400" stroke-width="3.991" stroke="black" fill="none" stroke-linecap="round"></path><path d="M 276.800,251.400 C 273.702,249.020 276.150,251.400 272.800,245.800" stroke-width="4.804" stroke="black" fill="none" stroke-linecap="round"></path><path d="M 272.800,245.800 C 271.580,238.623 270.902,239.020 271.200,231.400" stroke-width="3.338" stroke="black" fill="none" stroke-linecap="round"></path><path d="M 271.200,231.400 C 270.621,223.367 270.780,223.423 271.200,215.400" stroke-width="3.017" stroke="black" fill="none" stroke-linecap="round"></path><path d="M 271.200,215.400 C 271.436,201.081 272.221,201.367 274.400,187.400" stroke-width="2.325" stroke="black" fill="none" stroke-linecap="round"></path><path d="M 274.400,187.400 C 276.814,176.721 276.636,177.081 281.600,167.400" stroke-width="2.444" stroke="black" fill="none" stroke-linecap="round"></path><path d="M 281.600,167.400 C 285.210,162.190 284.414,161.921 289.600,157.800" stroke-width="2.953" stroke="black" fill="none" stroke-linecap="round"></path><path d="M 289.600,157.800 C 292.276,153.828 292.410,154.990 296.000,153.000" stroke-width="3.469" stroke="black" fill="none" stroke-linecap="round"></path><path d="M 296.000,153.000 C 303.727,152.017 303.076,151.428 311.200,153.000" stroke-width="3.728" stroke="black" fill="none" stroke-linecap="round"></path><path d="M 311.200,153.000 C 318.755,155.189 318.927,154.017 326.400,157.000" stroke-width="3.125" stroke="black" fill="none" stroke-linecap="round"></path><path d="M 326.400,157.000 C 334.206,158.009 333.955,158.789 341.600,160.200" stroke-width="2.993" stroke="black" fill="none" stroke-linecap="round"></path><path d="M 341.600,160.200 C 345.039,161.426 345.006,161.209 348.000,163.400" stroke-width="3.567" stroke="black" fill="none" stroke-linecap="round"></path><path d="M 348.000,163.400 C 353.538,165.697 352.239,166.226 356.000,169.800" stroke-width="4.064" stroke="black" fill="none" stroke-linecap="round"></path><path d="M 356.000,169.800 C 356.377,174.711 358.338,173.697 357.600,179.400" stroke-width="3.650" stroke="black" fill="none" stroke-linecap="round"></path><path d="M 357.600,179.400 C 359.937,183.670 358.777,183.911 360.800,188.200" stroke-width="3.634" stroke="black" fill="none" stroke-linecap="round"></path><path d="M 360.800,188.200 C 360.800,192.200 361.537,192.070 360.800,196.200" stroke-width="3.714" stroke="black" fill="none" stroke-linecap="round"></path><path d="M 360.800,196.200 C 361.030,202.210 360.800,202.200 360.800,208.200" stroke-width="3.412" stroke="black" fill="none" stroke-linecap="round"></path><path d="M 360.800,208.200 C 361.099,212.760 360.630,212.610 360.000,217.000" stroke-width="3.610" stroke="black" fill="none" stroke-linecap="round"></path><path d="M 360.000,217.000 C 358.081,223.626 358.299,223.560 355.200,229.800" stroke-width="3.251" stroke="black" fill="none" stroke-linecap="round"></path><path d="M 355.200,229.800 C 352.565,235.801 352.481,235.626 348.800,241.000" stroke-width="3.154" stroke="black" fill="none" stroke-linecap="round"></path><path d="M 348.800,241.000 C 343.844,247.254 344.165,247.401 338.400,253.000" stroke-width="2.978" stroke="black" fill="none" stroke-linecap="round"></path><path d="M 338.400,253.000 C 336.564,256.471 336.644,254.854 334.400,256.200" stroke-width="3.773" stroke="black" fill="none" stroke-linecap="round"></path><path d="M 334.400,256.200 C 329.370,254.541 330.164,255.671 325.600,251.400" stroke-width="4.378" stroke="black" fill="none" stroke-linecap="round"></path><path d="M 325.600,251.400 C 322.485,248.011 322.170,248.541 320.000,244.200" stroke-width="3.789" stroke="black" fill="none" stroke-linecap="round"></path><path d="M 320.000,244.200 C 315.984,238.960 316.485,238.811 313.600,233.000" stroke-width="3.355" stroke="black" fill="none" stroke-linecap="round"></path><path d="M 313.600,233.000 C 308.458,220.856 308.784,220.960 305.600,208.200" stroke-width="2.401" stroke="black" fill="none" stroke-linecap="round"></path><path d="M 305.600,208.200 C 303.376,195.840 302.858,196.056 302.400,183.400" stroke-width="2.312" stroke="black" fill="none" stroke-linecap="round"></path><path d="M 302.400,183.400 C 302.400,175.400 301.776,175.440 302.400,167.400" stroke-width="2.693" stroke="black" fill="none" stroke-linecap="round"></path><path d="M 302.400,167.400 C 302.400,160.200 302.400,160.200 302.400,153.000" stroke-width="2.875" stroke="black" fill="none" stroke-linecap="round"></path><path d="M 302.400,153.000 C 302.400,148.200 302.400,148.200 302.400,143.400" stroke-width="3.344" stroke="black" fill="none" stroke-linecap="round"></path><path d="M 302.400,143.400 C 301.564,138.218 302.400,140.600 302.400,137.800" stroke-width="3.919" stroke="black" fill="none" stroke-linecap="round"></path><path d="M 302.400,137.800 C 304.674,139.486 303.164,137.418 305.600,141.800" stroke-width="4.855" stroke="black" fill="none" stroke-linecap="round"></path><path d="M 305.600,141.800 C 306.573,145.770 307.074,145.486 307.200,149.800" stroke-width="4.121" stroke="black" fill="none" stroke-linecap="round"></path><path d="M 307.200,149.800 C 310.185,163.710 309.373,163.770 311.200,177.800" stroke-width="2.546" stroke="black" fill="none" stroke-linecap="round"></path><path d="M 311.200,177.800 C 312.876,208.191 313.385,208.110 313.600,238.600" stroke-width="1.454" stroke="black" fill="none" stroke-linecap="round"></path><path d="M 313.600,238.600 C 314.618,258.653 314.076,258.591 313.600,278.600" stroke-width="1.604" stroke="black" fill="none" stroke-linecap="round"></path><path d="M 313.600,278.600 C 311.993,297.853 312.618,297.853 309.600,317.000" stroke-width="1.635" stroke="black" fill="none" stroke-linecap="round"></path><path d="M 309.600,317.000 C 308.561,326.747 308.393,326.653 306.400,336.200" stroke-width="2.220" stroke="black" fill="none" stroke-linecap="round"></path><path d="M 306.400,336.200 C 304.938,344.566 305.361,340.747 303.200,345.000" stroke-width="3.083" stroke="black" fill="none" stroke-linecap="round"></path></svg>