<svg xmlns="http://www.w3.org/2000/svg" viewBox="0 0 908.48 142.32"><defs><style>.cls-1{fill:#231815;}</style></defs><g id="图层_2" data-name="图层 2"><g id="图层_4" data-name="图层 4"><path class="cls-1" d="M858.67,122.33a96.86,96.86,0,0,1,16.77-2.68,98.61,98.61,0,0,1,14.09.39,5.1,5.1,0,0,1,3.17.29,2.37,2.37,0,0,1,1.49,1.33l1.08,1.75c.38.91.69,2.35,1.08,3.46.26.74-.84,1.8-1.62,1.94l-2.55.13a80.89,80.89,0,0,0-14-1.24c-4.8.36-9.44.47-13,1.54a2.88,2.88,0,0,1-2.4-.24,3,3,0,0,1-.9-.84Z"/><path class="cls-1" d="M860,97.08l3.54,3.37a2.28,2.28,0,0,0,2.06,1.2c3.62.54,7.17.09,11.75.14,5-.44,8.24-.53,12.17-1.08-.71,2.41-.5,5.07-.79,8.27-.39,4-.61,7.62-.9,10.89a5.42,5.42,0,0,0-.07,1.35,5,5,0,0,0,.29,1.32l2.52,5a.64.64,0,0,0,1.18,0l1.56-3.86c.32-.7.54-1.68.79-2.36a77.74,77.74,0,0,1,3-9.42,80.5,80.5,0,0,1,7.14-13.23,2.87,2.87,0,0,0,.22-1.7,2.76,2.76,0,0,0-.78-1.5l-5.87-5.83a2.53,2.53,0,0,0-2.85-.52l-3.17,2.18c-4.78.86-9.09,1.47-15.25,2.2-7.41.88-12.29,1.92-15.74,2C860.76,95.52,860.25,95.58,860,97.08Z"/><path class="cls-1" d="M857.1,78.93a89.34,89.34,0,0,1,14.33-2.11,91.67,91.67,0,0,1,12,.3,4.7,4.7,0,0,1,2.71.24,1.94,1.94,0,0,1,1.27,1l.92,1.38c.33.72.59,1.85.93,2.73.22.59-.72,1.42-1.39,1.53l-2.17.11a72.14,72.14,0,0,0-12-1c-4.09.28-8.06.37-11.14,1.21a2.66,2.66,0,0,1-2-.19,2.41,2.41,0,0,1-.77-.67Z"/><path class="cls-1" d="M855.24,55.09l3.19,3.07a2.08,2.08,0,0,0,1.86,1.09c3.26.49,6.47.08,10.6.13,4.54-.4,7.43-.48,11-1-.64,2.2-.46,4.63-.72,7.55-.35,3.62-.55,6.94-.81,9.92a5.05,5.05,0,0,0-.06,1.23,4.52,4.52,0,0,0,.26,1.2l2.28,4.58a.57.57,0,0,0,1,0l1.41-3.53c.29-.63.49-1.52.72-2.15a68.43,68.43,0,0,1,2.68-8.58,73.56,73.56,0,0,1,6.43-12.07,2.63,2.63,0,0,0,.2-1.54,2.51,2.51,0,0,0-.7-1.37l-5.3-5.32a2.25,2.25,0,0,0-2.57-.47l-2.86,2c-4.31.78-8.2,1.33-13.75,2-6.68.8-11.09,1.75-14.2,1.87C855.9,53.66,855.44,53.72,855.24,55.09Z"/><path class="cls-1" d="M851.8,51l11.5,1a1.37,1.37,0,0,1,.89.39l.52.51c.3.3.25,1.09.2,1.48l-1.11,5.36c-1.23,5.62-.68,64.24-1.13,69.91-.33,4.29-4.45,6-5.88,6.56-1.62-1.48-5.16-7.51-5.29-10.12-.09-1.87,1.69-1.92,1.6-3.28-.69-10.47.3-59.58-.51-64.11-.76-2.48-1.3-2.83-2.06-5.31-.17-.55-.24-.49,0-1l.55-1A.73.73,0,0,1,851.8,51Z"/><path class="cls-1" d="M852.53,29.1c-.2-.65.56-2.77.91-2.83.51-.18,3.95-.55,4.49-.62C866,24.5,869.49,24.08,878.45,23c8.69-1,14.85-3,22.69-3.6a2,2,0,0,1,2.36,1.37,38.27,38.27,0,0,0,2.33,4.12c.81,1.29,2.74,1.55,2.64,4.57-.18,5.88-6.56,13.5-9.6,15.84-1.85,1.43-5.75,3.41-6.08,4.12.72-1.59,1.66-4,2.21-5.29.35-1.55.58-2.35.78-3.76s.11-2.52.2-3.55a8,8,0,0,0-.09-2.15,3.4,3.4,0,0,0-.26-.56,1.24,1.24,0,0,0-.67-.28c-4.75-1.14-7.68-.19-16.82.81-8.95,1-10.93,1-21.3,3.38-.37.09-1.74.21-2.46.35-.47.08-1.15-.25-1.17-.6Z"/><path class="cls-1" d="M853.75,17.17l-.53,2a24.09,24.09,0,0,1-4.62,10.18,75.16,75.16,0,0,1-7.08,7.79,3.85,3.85,0,0,0-.81,3,27.4,27.4,0,0,0,1.53,8.39,52.49,52.49,0,0,0,4.45,8.86c.37.59,1.14.44,1.43-.26a80.68,80.68,0,0,0,4-12.48A81.61,81.61,0,0,0,853.75,17.17Z"/><path class="cls-1" d="M861.57,3.35A87,87,0,0,0,868,17.2a79.09,79.09,0,0,0,7.57,10.91c.29.35.79.17.91-.31a23.75,23.75,0,0,0,1-5,29.41,29.41,0,0,0,.65-5.47,12.77,12.77,0,0,0-.27-3.08c-1.09-3.2-3.3-4.21-6.69-5.69A47.65,47.65,0,0,1,861.57,3.35Z"/><path class="cls-1" d="M844.56,100.15c-2.9,5.56-4.21,13-9.18,19.43A97.6,97.6,0,0,1,823,132.94c-.45.4-1-.1-1-.9a49.2,49.2,0,0,1,.06-8.33,61.21,61.21,0,0,1,.65-8.82c.16-1,.17-2.61,1-3.1,3.38-2,5.55-3.05,10.07-6A80.16,80.16,0,0,1,844.56,100.15Z"/><path class="cls-1" d="M829.11,51.26l-12.67,2.4c-.36,0,.24-.2,0,0l-.34,1A5.91,5.91,0,0,0,815,56.88l.89,3.8c1,4.17.42,39.08-.38,55.12-.2,4-2.15,5.7-2.08,6.76.29,4,8.14,10.36,9.62,10.87,1.09-3,1.78-8.9,2.05-11.92.86-9.66,1.93-55.81,2.83-60,.82-2.28,1.39-5.06,2.63-7.42a1.53,1.53,0,0,0-.15-1.54l-.55-1A.8.8,0,0,0,829.11,51.26Z"/><path class="cls-1" d="M830.08,40c.12-.82.22-2.16.25-2.32a1,1,0,0,0-.27-.85c0-.15-.57-.32-.57-.32a17.11,17.11,0,0,0-4.6.06c-5,.55-7.19,1.6-12.76,5.11a3.81,3.81,0,0,1-1,.47c-.25.07-.26-.3.05-1.27l3.09-9.25c.14-.65,1.5-.68,1.69-.73s2-.37,2.3-.47a93.57,93.57,0,0,1,12.61-3.33c2-.27,4.27-3.05,5.91-3,.33,0,1,.77,1.45,1.42.75,1.11,2.7,3.63,3,5.12.24,1.25.84,1.69-.39,4.62-1.84,4.36-1.83,2.4-4.1,5.11-4.28,5.11-8.51,8-8.83,8.77a43.1,43.1,0,0,0,1.37-4.85"/><path class="cls-1" d="M793.07,65l3.08-5.84a80.93,80.93,0,0,0,7.11-18.65c2.21-8.13,4.79-21.07,5.91-28.34.46-3,1.26-3.47,1.77-3.3,1.37.46,2,2.08,4.29,4.24,2.94,2.83,3.75,2.75,4.54,8.08.2,1.35-3.33,14.3-3.79,15.47-2.27,5.81-4.41,12.35-7.63,16.28C801,62,796.61,64.21,793.07,65Z"/><path class="cls-1" d="M732,88.27l9.17,2.11a2.76,2.76,0,0,1,1.15,2.33v1.46a.4.4,0,0,1-.22.36c-1.61.9-2.73,13-1.14,24.59.7,5.09,5.57,9,9.7,9.27a108.14,108.14,0,0,0,14.49.22,12.63,12.63,0,0,0,7.21-2.22c2-1.35,3.58-12.09,3.06-13.63,1.4,4.16,5.29,11.56,5.7,12.71,1.15,3.3,1.34,6.23.64,7.61a5.39,5.39,0,0,1-2.58,1.6,32.36,32.36,0,0,1-3.67.92c-.46.1-.92.21-1.54.31l-2.47.43a38.6,38.6,0,0,1-6.62.59c-2.48-.05-3.42,0-10.09,0-8-.18-12.3,0-17-2.78-1.12-.67-5-3.78-5.7-10.83-1.61-15.26.12-20.21-1.48-28.63a12.78,12.78,0,0,0-.83-4.71C730.5,89,730.52,88.13,732,88.27Z"/><path class="cls-1" d="M686.51,138.24l6.5-5.52A76.93,76.93,0,0,0,702,123c5.57-7.21,8.26-13.4,11-19.79,4.14-9.53,6.21-14.3,6.29-18.66.08-4.1-1-10.28,1.84-9.76s4.13,1.54,6.74,2.69c1.43.63,3.39,1.53,2.83,4.47a20.78,20.78,0,0,1-2,5.34c-2,6.26-3.41,13.66-8.83,24.16A49.93,49.93,0,0,1,706.78,127,64.8,64.8,0,0,1,686.51,138.24Z"/><path class="cls-1" d="M742.63,55.61l13.75-.11c.35,0-.23-.15,0,0l.31.68a3.64,3.64,0,0,1,1.07,1.61l-.91,2.67c-1.25,3.67-.08,42.49-.53,46.19-.34,2.8-6,4.74-7.49,5.07-1-2.1-1.61-6.31-1.83-8.44-.7-6.83-1.09-39.44-1.91-42.4-.77-1.62-2.29-1.92-3.88-3.28-.37-.31-.12-.75.16-1.09l.55-.67A.94.94,0,0,1,742.63,55.61Z"/><path class="cls-1" d="M753.29,61.33c-6.79-.78-14.6-.47-21.43,0-7.6.48-15.12,1.84-22.69,2.91-.06,0-1.19-.09-1.46-.55a2.22,2.22,0,0,1-.3-1.13l-.11-5.39c0-.89.29-2.42.81-2.44,7.93-.35,15.76-1.56,23.6-2.2,6-.5,11.6-.62,17.32-1.63.88-.15,1.68-1.56,3-2,.6-.18,1.44-.73,2-.45a3.6,3.6,0,0,1,.63,1c.4,1,2.37,4.72,2.61,5.84,0,.25.5,1.42.64,2.14a4.1,4.1,0,0,1,0,2.78h0a.66.66,0,0,1-.74.7C756.56,61,753.7,61.32,753.29,61.33Z"/><path class="cls-1" d="M696.89,53.47l11.21.68a1.69,1.69,0,0,1,.87.27l.51.34c.29.21.24.74.19,1l-1.08,3.63c-1.2,3.81-.67,43.55-1.1,47.39-.33,2.92-4.35,4.1-5.74,4.45-1.58-1-5-5.09-5.16-6.86-.09-1.27,1.65-1.3,1.56-2.22-.67-7.1.29-40.39-.5-43.46-.74-1.68-1.27-1.92-2-3.6-.17-.38-.24-.34,0-.69l.53-.69A.83.83,0,0,1,696.89,53.47Z"/><path class="cls-1" d="M745.65,26.72a83.2,83.2,0,0,0,10.28,12.05,101.3,101.3,0,0,0,11.65,9.7c.44.31,1.12.21,1.26-.18.58-1.67.48-.6,1-4.09.35-2.19.62-2.59.46-4.49a7,7,0,0,0-.65-2.59c-1.81-2.74-5-3.77-9.95-5.28A106.24,106.24,0,0,1,745.65,26.72Z"/><path class="cls-1" d="M769.27,21.25a77.72,77.72,0,0,0-13.73-.18c-5.06.3-10.07,1.19-15.1,1.88a.51.51,0,0,1-.45-.31,1.54,1.54,0,0,1-.21-.75l-.62-3.67c0-.59.19-1.62.53-1.63,5.28-.21,10.49-1,15.72-1.41,4-.31,7.72-.38,11.53-1,.59-.1,1.11-1,2-1.31.4-.12.95-.48,1.35-.3a2.6,2.6,0,0,1,.42.7c.27.68,1.12,4,1.28,4.76,0,.17.15,1,.25,1.51a13.13,13.13,0,0,1,.23,1.78h0a.42.42,0,0,1-.49.46C771.52,21.76,769.54,21.24,769.27,21.25Z"/><path class="cls-1" d="M721.33,43.86l2.91-4a53.91,53.91,0,0,0,7-13,194.14,194.14,0,0,0,6.37-19.91c.53-2.12,1.24-2.42,1.67-2.29,1.16.37,1.68,1.54,3.52,3.13,2.4,2.09,3.11,2.06,3.55,5.86.11,1-3.51,10-4,10.86-2.22,4-4.36,8.63-7.32,11.32C728.3,41.91,724.42,43.37,721.33,43.86Z"/><path class="cls-1" d="M722.43,2.41,710.3,3.83c-.34,0,.23-.13,0,0L710,4.4c-.3.16-1.12,1.14-1.08,1.36l.86,2.3c.93,2.52.52,23.6-.2,33.28-.18,2.44-2,3.44-2,4.07.29,2.41,7.82,6.28,9.24,6.6,1-1.79,1.68-5.37,1.93-7.19.79-5.83,1.69-33.7,2.54-36.21a27.61,27.61,0,0,1,2.49-4.47c.27-.32.13-.64-.14-.94l-.53-.58A1,1,0,0,0,722.43,2.41Z"/><path class="cls-1" d="M702.94,12.34l-12.11.84c-.34,0,.23-.08,0,0l-.32.36c-.3.1-1.12.72-1.06.86l.87,1.47c.95,1.61.69,15,0,21.16-.17,1.55-2,2.17-1.94,2.58.3,1.53,7.86,4,9.28,4.24a11.19,11.19,0,0,0,1.88-4.56c.75-3.7,1.45-21.42,2.28-23a17.06,17.06,0,0,1,2.46-2.83c.27-.2.12-.41-.15-.6l-.53-.37A1.5,1.5,0,0,0,702.94,12.34Z"/><path class="cls-1" d="M649.94,97.35l-.07.32a2.18,2.18,0,0,1-1.26,1.62l-22.07,9.85c4.57-5.19,7.4-9.64,9.86-12.58s3.26-4,4.68-5.83A7.75,7.75,0,0,0,642,89a4.78,4.78,0,0,1,.94-1.17l.88-.48"/><path class="cls-1" d="M603.55,81.52a13.51,13.51,0,0,1,4.7-.31c.19,0,.52.21.66.24.6.18,1.12.39,1.65.58.33.12.42.27.87.92.83,1.19,16.7,15.53,27.21,23.56a116.38,116.38,0,0,0,27.28,15.61L672.5,125a.82.82,0,0,1-.36,1.59l-18.9,1.67a53.1,53.1,0,0,1-6-2.87c-11.45-6.38-17.35-12.76-27.61-24.57-3.12-3.6-4.47-4.63-8.16-8.51-1.23-1.29-2.83-2.52-4.16-3.68l-.33-.19c-1.11-.56-2.42-.37-3.17-1.23l-2.66-2.91C600.58,83.55,602.6,81.78,603.55,81.52Z"/><path class="cls-1" d="M623.6,117c-2.61,4.19-3.79,9.79-8.27,14.65a81.39,81.39,0,0,1-11.12,10.07c-.41.3-.92-.08-.94-.68a29.8,29.8,0,0,1,.05-6.28,39.1,39.1,0,0,1,.58-6.65c.15-.75.16-2,.91-2.34,3-1.47,5-2.29,9.06-4.53A76.45,76.45,0,0,1,623.6,117Z"/><path class="cls-1" d="M609.69,79.44l-11.41,1.81c-.32,0,.22-.15,0,0L598,82a4.27,4.27,0,0,0-1,1.7l.8,2.87c.86,3.15.38,29.47-.34,41.56-.18,3-1.94,4.3-1.87,5.1.26,3,7.33,7.81,8.66,8.19,1-2.23,1.6-6.71,1.84-9,.78-7.29,1.74-42.08,2.55-45.23A38.13,38.13,0,0,1,611,81.59a1,1,0,0,0-.14-1.17l-.49-.72A.79.79,0,0,0,609.69,79.44Z"/><path class="cls-1" d="M643.64,83.14A206.35,206.35,0,0,0,617,84.3c-9.43.87-18.74,2.57-28.11,4-.08,0-1.48,0-1.84-.43a1.89,1.89,0,0,1-.4-1.06l-.28-5.08c0-.84.29-2.3.93-2.35,9.85-.77,19.54-2.35,29.27-3.39,7.48-.8,14.39-1.22,21.47-2.5,1.1-.19,2.05-1.56,3.7-2,.74-.21,1.77-.77,2.51-.54a3.16,3.16,0,0,1,.81.95c.53.92,3.08,4.32,3.41,5.37.07.23.66,1.31.86,2,.29,1,.6,1.11.13,2.62h0c0,.66-.65.68-.9.7C647.7,82.62,644.16,83.11,643.64,83.14Z"/><path class="cls-1" d="M631.22,48.12l.17.35a2.91,2.91,0,0,1,0,2.62l-9.49,31.07c.64-8.89-2.85-.58-2.63-5.49.22-4.73,3.25-21.51,3.25-24.51a9.5,9.5,0,0,0-.38-2.4,6.15,6.15,0,0,1,.06-1.92l.5-1.24"/><path class="cls-1" d="M605.09,48.3l.27.27a2.82,2.82,0,0,1,.79,2.48l.9,32.72c-2.21-8.59-2.87.52-4.2-4.18-1.29-4.52-3.75-21.41-4.69-24.22A8.85,8.85,0,0,0,597,53.25a6.26,6.26,0,0,1-.55-1.82l.09-1.35"/><path class="cls-1" d="M636.56,63.55a139,139,0,0,0-21.27.84c-7.52.75-14.95,2.29-22.43,3.56-.06,0-1.18,0-1.46-.43a1.93,1.93,0,0,1-.34-1l-.27-4.88c0-.8.21-2.2.72-2.24,7.86-.64,15.6-2.06,23.36-3,6-.69,11.49-1,17.14-2.18.87-.18,1.62-1.48,2.94-1.9.59-.19,1.4-.72,2-.5a3.51,3.51,0,0,1,.66.92c.43.9,2.49,4.17,2.77,5.18.06.22.54,1.26.7,1.91a3.44,3.44,0,0,1,.14,2.51h0a.63.63,0,0,1-.71.66C639.8,63.09,637,63.53,636.56,63.55Z"/><path class="cls-1" d="M552,134.67l7.44-16.61c3.3-8.55,6.05-12.26,12.47-33.55,5.37-17.8,6.26-44.4,3.39-62-1.07-6.55,1.45-8,2.64-7.88,3.17.33,5.35,3.33,11,7,1.65,1.09,1.05,6.73.05,16.7-.3,3-3.85,29.4-4.41,32.11-2.8,13.47-6.06,26.4-11.92,36.07C562.52,123.16,558.56,128.69,552,134.67Z"/><path class="cls-1" d="M581.78,36.66a150.14,150.14,0,0,1,42.4-7.87,8.91,8.91,0,0,1,4.38-.23,2.85,2.85,0,0,1,2.13,1.18l1.58,1.7c.58.92,1.09,2.42,1.69,3.56.4.76-1.06,2.09-2.13,2.37l-3.5.6A139.27,139.27,0,0,0,609,39.07c-6.58,1.22-13,2.15-17.9,3.93a5,5,0,0,1-3.32.17,3.63,3.63,0,0,1-1.28-.76Z"/><path class="cls-1" d="M579.92,16l5.26,3.79a3.5,3.5,0,0,0,3.05,1.29c5.31.46,10.62-.83,17.33-1,7.36-.78,15.26-1.52,21-2.38-1,2.88-.5,4.55-.6,5.93.39,2.52.55,3.67.87,6.19,0,.4.65,2,.73,2.66a13.75,13.75,0,0,0,.85,2.51l1.72,4.6a1,1,0,0,0,1.71-.12l1.53-5.89c.45-.83.85-1.91,1.21-2.73a45.52,45.52,0,0,1,4.64-10.08c2.17-3.6,1.93-2.67,5.44-5.24a2.85,2.85,0,0,0,.27-2,3.06,3.06,0,0,0-1.18-1.73L635,5.24a4.35,4.35,0,0,0-4.19-.45l-4.57,2.73c-7,1.25-13.27,2.2-22.26,3.38-10.82,1.42-17.94,2.9-23,3.23C581,14.14,580.19,14.24,579.92,16Z"/><path class="cls-1" d="M465.22,67.34a13.29,13.29,0,0,1,5.13-.08c.2.06.55.28.7.33.63.25,1.19.54,1.74.8.36.16.44.34.88,1.15.81,1.47,17,19.56,27.77,29.79a123.2,123.2,0,0,0,28.46,20.33l6.93,3.86a1,1,0,0,1-.52,1.86l-20.67.8a56.22,56.22,0,0,1-6.28-3.8c-12-8.33-17.89-16.31-28.13-31-3.12-4.49-4.51-5.81-8.22-10.66-1.25-1.62-2.89-3.18-4.25-4.65l-.33-.25c-1.17-.73-2.61-.59-3.36-1.66l-2.67-3.63C461.83,69.56,464.16,67.58,465.22,67.34Z"/><path class="cls-1" d="M411.21,131l6.38-5.66a140.31,140.31,0,0,0,17.85-19c6.94-8.58,17.12-22.56,22.53-30.53,2.25-3.3,3.26-3.55,3.64-3.18,1,1,.66,3.08,1.46,6.33,1.05,4.25,1.85,4.43-.61,10.82-.63,1.63-11.7,15.3-12.83,16.48-5.61,5.9-11.54,12.68-16.91,16.1C420.46,130.19,415,131.28,411.21,131Z"/><path class="cls-1" d="M461.58,56.94l11.68,1a1.4,1.4,0,0,1,.91.39l.53.51c.3.3.26,1.1.2,1.49l-1.12,5.36c-1.26,5.64-.7,64.37-1.15,70.05-.34,4.3-4.53,6.05-6,6.57-1.64-1.48-5.24-7.52-5.37-10.14-.1-1.87,1.72-1.92,1.62-3.28-.7-10.49.3-59.69-.52-64.23-.77-2.48-1.32-2.84-2.09-5.32-.17-.56-.25-.5,0-1l.55-1A.77.77,0,0,1,461.58,56.94Z"/><path class="cls-1" d="M511.63,74.33c-14.08-.75-30.33-.24-44.53.37-15.8.68-31.47,2.36-47.21,3.71-.13,0-2.47-.08-3-.59a1.72,1.72,0,0,1-.6-1.26l-.09-6c0-1,.66-2.73,1.73-2.76,16.49-.54,32.79-2.06,49.1-2.93,12.56-.67,24.11-.92,36-2.16,1.84-.19,3.52-1.78,6.32-2.27,1.25-.22,3-.84,4.23-.55A4.74,4.74,0,0,1,514.87,61c.81,1.12,4.8,5.24,5.28,6.5a25.32,25.32,0,0,1,1.29,2.38c.41,1.23.92,1.35,0,3.12h0c-.09.78-1.14.78-1.55.79C518.44,73.85,512.49,74.31,511.63,74.33Z"/><path class="cls-1" d="M505.09,34.74v.36a2.41,2.41,0,0,1-1.1,2l-23.45,16c4.14-6.68,6.43-12.13,8.62-15.88s2.9-5,4.13-7.38a7.85,7.85,0,0,0,.66-2.07,5.52,5.52,0,0,1,.84-1.48l.91-.73"/><path class="cls-1" d="M459.75,34.16c1.61,3,1.94,6.62,4.94,10.24a61.52,61.52,0,0,0,7.67,7.77.52.52,0,0,0,.82-.3,16.3,16.3,0,0,0,.62-3.93,19.87,19.87,0,0,0,.24-4.23c0-.49.34-2.65-.21-3a30.52,30.52,0,0,0-6.76-3.21A60.71,60.71,0,0,1,459.75,34.16Z"/><path class="cls-1" d="M430.37,38.68c2.34,3,3.39,7,7.4,10.5a70.92,70.92,0,0,0,10,7.21.57.57,0,0,0,.85-.49,18,18,0,0,0,0-4.49,22.38,22.38,0,0,0-.52-4.77c-.13-.53-.11-3-.78-3.27a34.31,34.31,0,0,0-8.12-2.3A68.73,68.73,0,0,1,430.37,38.68Z"/><path class="cls-1" d="M434.35,29.57l6.11-1.38A70.09,70.09,0,0,0,458,21.74,261.08,261.08,0,0,0,481.2,8.23c2.35-1.56,3.23-1.25,3.48-.76.68,1.33.09,2.87.26,5.94.22,4,.86,4.58-2.13,8.56-.76,1-11.95,6.56-13.05,7-5.51,2-11.42,4.49-16.37,4.55C442.1,33.6,437.45,31.72,434.35,29.57Z"/><path class="cls-1" d="M298.26,85l5.21-4.15c3.32-2.93,6.5-4.85,13.88-14.18a282.14,282.14,0,0,0,16-23.23c1.54-2.53,2.51-2.66,3-2.33,1.25.88,1.38,2.55,2.92,5.25,2,3.54,2.89,3.74,1.83,8.77-.27,1.28-8.46,11.61-9.34,12.49-4.37,4.4-8.88,9.49-13.58,11.89C307.48,85,302.19,85.48,298.26,85Z"/><path class="cls-1" d="M303.2,44.65a158,158,0,0,0,16,23.62,202.82,202.82,0,0,0,19,20.31c.73.68,2,.78,2.34.2,1.44-2.51,1-.81,2.83-6.29,1.14-3.45.67-1.61.81-4.78a6,6,0,0,0-1.5-3.5c-3.52-4-8.36-7.73-17.39-13.1C319.83,57.85,312.45,50.84,303.2,44.65Z"/><path class="cls-1" d="M288.73,27c7.37-.25,16-1.36,24.38-2.43A242.85,242.85,0,0,0,350.43,17c.06,0,.49,1.55.59,1.5s-.18-1.69-.12-1.75l2.64-.95a1.53,1.53,0,0,1,2.2-.06L362.13,22a2.63,2.63,0,0,1,.48,3.12l-.88,1.62a.71.71,0,0,0-.09.28,214.39,214.39,0,0,0,1,60.64c5.1,25,10.95,25.76,19.91,34.48.47.45-.64,2-.38,1.4,1.16-2.71,1.51-6.46,2.51-10.17a16.27,16.27,0,0,0,.25-2.47l8,17.79c0,.06.39,4.31.37,4.37-.64,2.47-1.64,3.38-4.08,3.91-2.73.6-7.66-1-10.24-2.83-9.11-7.68-20.55-14.91-25.13-34-7.13-29.75-6-51.45-3.77-68.73.06-.52-.51-2.4-1-2.33-18.82,2.54-36.41,5-55.23,7.49a.8.8,0,0,1-.7-.25l-5-6.62C287.67,29.28,288.1,27.05,288.73,27Z"/><path class="cls-1" d="M257.38,137.1l11.49-14.63c5-6.48,9.3-11.7,14.06-32,4-17,2.51-41.24-.44-57.57-1.09-6.08,1.58-7.45,2.83-7.34,3.34.3,5.62,3.07,11.57,6.48,1.73,1,.86,6.15.74,15.34-.05,3.18-1.11,26.4-1.28,29a89.33,89.33,0,0,1-8.94,32.93C279.21,126.07,264.38,131.52,257.38,137.1Z"/><path class="cls-1" d="M213.79,72.45a141.18,141.18,0,0,0,7.51,19.73,134.44,134.44,0,0,0,9.1,16.35c.35.54,1,.48,1.16-.09.77-2.46.53-.86,1.54-6.09a35.85,35.85,0,0,0,1.08-6.77,18.05,18.05,0,0,0-.21-4c-1.23-4.43-4-6.43-8.22-9.41A81.85,81.85,0,0,1,213.79,72.45Z"/><path class="cls-1" d="M169.91,88.45l2.81-3c.33-.65,1.48,0,1.87.1l1.75,1.15,46.3-2.21.83,9.48c-13.66,2.42-22.39,3.47-29.28,4.8-5.89,1.14-11,2.27-14.94,3.26-.87.22-2.85.3-3.58,1.14a2.2,2.2,0,0,1-1.66.68l-1.3,0"/><path class="cls-1" d="M205.29,65.13l-.07.48a3,3,0,0,1-1.82,2.44L178.88,96.71,175,91.29a112,112,0,0,0,13.66-20c2.33-4.39,4.57-7.61,6.07-10.79a29.73,29.73,0,0,0,1.08-3,1.42,1.42,0,0,1,.68-.86l1.34-.72"/><path class="cls-1" d="M169,55.72a187.91,187.91,0,0,1,28.06-6.38c8.46-1.25,17.11-1.37,24.24-1.54a10.06,10.06,0,0,1,5.46,0,3.56,3.56,0,0,1,2.59,1.76l1.9,2.45c.69,1.3,1.26,3.4,2,5,.47,1.07-1.4,2.81-2.73,3.13l-4.37.58c-7.46-.57-13.19-.44-24.12.25-8.23,1.26-16.56,1.11-22.74,3.25a8.29,8.29,0,0,1-2.75.51,1.93,1.93,0,0,1-1-.25,10.57,10.57,0,0,1-1.91-1.38Z"/><path class="cls-1" d="M179.24,27.8a164.31,164.31,0,0,1,18.31-4.5c5.2-1.09,10.07-1.79,14.28-2.46a4.59,4.59,0,0,1,3.39,0c.92.31,1.13.56,1.69,1.5l1.29,2.07c.49,1.11.94,2.89,1.45,4.25.34.91-.74,2.39-1.55,2.66l-2.7.51c-4.66-.46-8.23.6-15,1.22-5.06,1.09-9.76,1.54-13.71,2.7a2.93,2.93,0,0,1-2.58,0,3.29,3.29,0,0,1-1-1Z"/><path class="cls-1" d="M130.8,106.54a34.18,34.18,0,0,1,7.36-2.68c.3,0,.87,0,1.09-.06,1-.11,1.85-.14,2.72-.19.55,0,.71.09,1.57.58,1.55.89,29.62,8.68,47.89,12.24a204.53,204.53,0,0,0,46.33,3.5l11-.11c1.45,0,1.27,1.48-.24,1.91L219,133c-2.22.07-5.8.12-10.05-.16-19.42-1.28-30.07-5.33-48.73-13.15-5.69-2.38-8-2.85-14.67-5.25-2.22-.8-5-1.35-7.34-2l-.55,0c-1.87-.06-3.91.8-5.27.24l-4.81-1.86C126.53,110.24,129.35,107.3,130.8,106.54Z"/><path class="cls-1" d="M130.12,80.09l22.4-3.33,6.78,2.61a1.92,1.92,0,0,1,1.2,1.75l.08,5.58c-2.1,7.64-8.05,16.16-19.93,28-6.36,6.34-9.77,6.63-14.64,9.71,3.13-5.53,15.56-21.33,20.28-32.19.63-1.47,2.51-5,2.1-5.17l-8.87,1.66c-1.23.09-3.46.06-4.4-.83l-5.69-5A1.57,1.57,0,0,1,130.12,80.09Z"/><path class="cls-1" d="M124.21,54.13l31.2-3.31,6.64,2.93a1.91,1.91,0,0,1,1.12,1.81L163,61.14c-2.47,7.53-.42,2.89-12.85,14.12-6.66,6-10.08,6.15-15.1,9,3.4-5.37,6.57-8.71,13.07-19,2.26-3.58,1.78-3.81,1.41-5.74l-17.23,3.94a6.69,6.69,0,0,1-4.19-1.57l-4.7-5A1.58,1.58,0,0,1,124.21,54.13Z"/><path class="cls-1" d="M135,20c2.24,3.85,3.13,8.77,7.07,13.38a79.94,79.94,0,0,0,9.84,9.72c.37.3.85,0,.89-.49a24.67,24.67,0,0,0,.18-5.4,31.27,31.27,0,0,0-.31-5.76c-.11-.66,0-3.63-.64-4a33.5,33.5,0,0,0-8.19-3.63A66.79,66.79,0,0,1,135,20Z"/><path class="cls-1" d="M53.27,96.38a11.42,11.42,0,0,1,4,0c.16,0,.43.2.55.23.49.18.92.38,1.35.56s.34.24.69.81c.63,1,13.23,13.71,21.66,20.88a97.09,97.09,0,0,0,22.18,14.27l5.4,2.71a.69.69,0,0,1-.4,1.31l-16.08.51a46.05,46.05,0,0,1-4.9-2.66c-9.32-5.85-13.94-11.44-21.94-21.75-2.44-3.14-3.52-4.07-6.41-7.47-1-1.13-2.25-2.23-3.31-3.26l-.27-.17c-.9-.52-2-.42-2.61-1.17l-2.09-2.55C50.64,97.93,52.45,96.55,53.27,96.38Z"/><path class="cls-1" d="M6.42,138.54l6.74-4.86a77.8,77.8,0,0,0,9.52-8.81c6.06-6.65,9.34-12.57,12.71-18.69,5-9.11,7.56-13.67,8.18-18,.58-4.09.64-8.15,2.92-9.59,2-1.26,4.83.63,7.11,2.06,1.24.78,1.78,3.23.89,6.12A21.92,21.92,0,0,1,52,91.88c-2.64,6.07-4.87,13.34-11.2,23.29a50.42,50.42,0,0,1-14.14,14.21A60.19,60.19,0,0,1,6.42,138.54Z"/><path class="cls-1" d="M91.7,94.85c-13.52-.5-29.14-.07-42.78.45-15.19.56-30.24,1.88-45.38,2.94a9,9,0,0,1-2.9-.43,1.18,1.18,0,0,1-.57-.94L0,92.35c0-.75.64-2,1.67-2.07,15.85-.47,31.51-1.66,47.19-2.37,12.06-.55,23.17-.77,34.62-1.75,1.77-.15,3.39-1.35,6.08-1.72A15,15,0,0,1,93.63,84a4.08,4.08,0,0,1,1.23.87c.77.83,4.6,3.9,5,4.84a17,17,0,0,1,1.23,1.78c.39.92.88,1,0,2.33h0c-.09.59-1.1.59-1.5.6C98.24,94.47,92.52,94.84,91.7,94.85Z"/><path class="cls-1" d="M50.63,53.92a60.13,60.13,0,0,0,8.62,8.24,81.24,81.24,0,0,0,9.8,6.61c.37.21,1,.14,1.07-.13a6.62,6.62,0,0,0,.93-2.83,8.26,8.26,0,0,0,.44-3.1A4.15,4.15,0,0,0,71,60.94c-1.51-1.89-4.24-2.58-8.41-3.59A100.8,100.8,0,0,1,50.63,53.92Z"/><path class="cls-1" d="M27.16,67.06l2.8-1.5a29.24,29.24,0,0,0,7.12-5.19,80.08,80.08,0,0,0,7.54-8.65c.7-.94,1.29-1,1.61-.84.85.36,1.11,1,2.33,2.08,1.61,1.4,2.16,1.5,2,3.42,0,.48-4,4.31-4.49,4.63-2.25,1.61-4.52,3.49-7.17,4.32C32.85,67.23,29.63,67.32,27.16,67.06Z"/><path class="cls-1" d="M45.63,32.81l8,.56a1.12,1.12,0,0,1,.62.21l.36.29c.21.17.18.61.14.83l-.77,3c-.85,3.13-.47,35.75-.78,38.9-.23,2.4-3.1,3.37-4.09,3.65-1.12-.82-3.59-4.17-3.68-5.63-.06-1,1.18-1.06,1.12-1.82-.49-5.82.2-33.15-.36-35.67-.53-1.38-.91-1.58-1.43-3-.12-.31-.17-.28,0-.57l.38-.57A.54.54,0,0,1,45.63,32.81Z"/><path class="cls-1" d="M63.65,54.3a110.18,110.18,0,0,0-13.72,0c-5.06.26-10.08.93-15.12,1.46a.6.6,0,0,1-.45-.21.88.88,0,0,1-.19-.54l-.59-2.6c0-.43.2-1.16.54-1.17,5.29-.19,10.5-.79,15.73-1.12,4-.26,7.73-.33,11.54-.83.59-.08,1.12-.75,2-.95.4-.09,1-.35,1.35-.22a1.84,1.84,0,0,1,.42.49A35.82,35.82,0,0,1,66.41,52c0,.12.14.73.23,1.07a6,6,0,0,1,.22,1.27h0c0,.33-.36.33-.49.33C65.9,54.65,63.93,54.29,63.65,54.3Z"/><path class="cls-1" d="M67.12,41.26l0,.23a1.59,1.59,0,0,1-.58,1.39l-14,11.54c2.25-4.56,3.39-8.23,4.57-10.78s1.55-3.43,2.2-5a5.25,5.25,0,0,0,.31-1.39,3.34,3.34,0,0,1,.44-1l.54-.52"/><path class="cls-1" d="M31.42,39.76c1.71,2,2.49,4.67,5.44,7a52.44,52.44,0,0,0,7.33,4.8.42.42,0,0,0,.62-.33,10.49,10.49,0,0,0,0-3,12.88,12.88,0,0,0-.39-3.16c-.09-.36-.07-2-.57-2.18a27.86,27.86,0,0,0-6-1.53A54.15,54.15,0,0,1,31.42,39.76Z"/><path class="cls-1" d="M74.15,21.42l11.24-.12c.29,0-.19-.16,0,0l.26.72a4.1,4.1,0,0,1,.87,1.71l-.75,2.83c-1,3.89-.06,45-.42,49-.28,3-4.95,5-6.13,5.39a42,42,0,0,1-1.49-9c-.58-7.25-.9-41.81-1.57-44.94-.62-1.72-1.86-2-3.17-3.48-.3-.33-.09-.8.14-1.16l.44-.71A.65.65,0,0,1,74.15,21.42Z"/><path class="cls-1" d="M80.28,25.3A261.31,261.31,0,0,0,52,25.45c-10,.46-20,1.67-30,2.62-.08,0-1.56-.07-1.92-.44a1.43,1.43,0,0,1-.38-.95l-.08-4.52c0-.75.41-2,1.09-2.06,10.46-.35,20.8-1.44,31.16-2,8-.46,15.3-.61,22.86-1.51,1.16-.13,2.23-1.32,4-1.67a6.68,6.68,0,0,1,2.69-.4,3.26,3.26,0,0,1,.82.87c.51.84,3.07,3.94,3.37,4.88A18.51,18.51,0,0,1,86.5,22c.27.92.59,1,0,2.33h0c0,.58-.72.58-1,.59C84.6,25,80.83,25.29,80.28,25.3Z"/><path class="cls-1" d="M15.71,19.47l9.17.72a1.22,1.22,0,0,1,.71.28l.41.37c.24.22.21.79.16,1.07l-.88,3.86c-1,4.06-.54,46.33-.9,50.42-.27,3.1-3.55,4.36-4.69,4.73-1.29-1.07-4.11-5.41-4.22-7.3-.07-1.35,1.35-1.38,1.28-2.36-.55-7.55.24-43-.41-46.23-.6-1.79-1-2-1.64-3.83-.14-.4-.2-.36,0-.74l.44-.73A.58.58,0,0,1,15.71,19.47Z"/><path class="cls-1" d="M16.44,19.35,21.15,18a56.18,56.18,0,0,0,13.4-5.72A203.49,203.49,0,0,0,52,1c1.75-1.29,2.45-1.1,2.68-.75.6,1,.22,2.14.52,4.42.39,3,.92,3.38-1.2,6.5-.54.8-9,5.51-9.84,5.86-4.21,1.76-8.7,3.95-12.57,4.25C22.72,22,19,20.79,16.44,19.35Z"/></g></g></svg>